<svg data-v-4cb4dc06="" xmlns="http://www.w3.org/2000/svg" width="111" height="110" fill="none" viewBox="0 0 111 110"><path fill="#0063FD" d="M79.781 17.188H17.344c-7.663 0-13.875 6.156-13.875 13.75v34.375c0 7.593 6.212 13.75 13.875 13.75H79.78c7.663 0 13.875-6.157 13.875-13.75V30.938c0-7.594-6.212-13.75-13.875-13.75"></path><path fill="#0063FD" d="m48.562 92.813 12.054-13.785H36.508z"></path><path fill="#80BEF1" d="M93.656 17.188H31.22c-7.663 0-13.875 6.156-13.875 13.75v34.375c0 7.593 6.212 13.75 13.875 13.75h62.437c7.663 0 13.875-6.157 13.875-13.75V30.938c0-7.594-6.212-13.75-13.875-13.75"></path><path fill="#0063FD" d="M62.438 92.813H48.562V81.847h14.344z"></path><path fill="#80BEF1" d="M62.437 92.813 74.49 79.028H50.383z"></path><path fill="#0063FD" d="M107.531 39.531H17.344v3.438h90.187zM107.531 56.719H17.344v3.437h90.187z"></path><path fill="#fff" d="M60.217 36.025c2.069 0 3.746-1.662 3.746-3.712S62.286 28.6 60.217 28.6s-3.746 1.662-3.746 3.712 1.677 3.713 3.746 3.713M64.171 58.438h-3.468v-15.47H55.76v-3.437h6.677l1.734 1.719z"></path><path fill="#fff" d="M69.097 56.719H55.76v3.437h13.337z"></path></svg>