<svg xmlns="http://www.w3.org/2000/svg" width="157" height="25" fill="none" viewBox="0 0 133 25" class="cw-logo"><g fill="#0066F5" clip-path="url(#clip0_37731_18033)"><path d="M12.556.25H5.73l-.013.024-.942 1.744h7.782c5.765 0 10.44 4.749 10.44 10.607s-4.674 10.607-10.44 10.607-10.441-4.75-10.441-10.607c0-1.108.17-2.21.506-3.264h1.994a8.83 8.83 0 0 0-.354 5.44 8.72 8.72 0 0 0 2.9 4.586 8.5 8.5 0 0 0 5.018 1.934 8.47 8.47 0 0 0 5.166-1.478 8.7 8.7 0 0 0 3.286-4.31 8.84 8.84 0 0 0 .118-5.45 8.7 8.7 0 0 0-3.096-4.453 8.48 8.48 0 0 0-5.097-1.707h-8.81L2.79 5.69h9.766c1.493 0 2.944.498 4.132 1.416a6.94 6.94 0 0 1 2.445 3.668 7.04 7.04 0 0 1-.24 4.423 6.9 6.9 0 0 1-2.827 3.373 6.74 6.74 0 0 1-8.215-.921 6.97 6.97 0 0 1-2.034-3.918 7.03 7.03 0 0 1 .715-4.37h2.259a5.08 5.08 0 0 0-1.18 3.118 5.1 5.1 0 0 0 1.005 3.182 4.95 4.95 0 0 0 2.745 1.84 4.88 4.88 0 0 0 3.274-.315 5 5 0 0 0 2.358-2.33 5.1 5.1 0 0 0 .4-3.316 5.04 5.04 0 0 0-1.734-2.839 4.9 4.9 0 0 0-3.103-1.108H1.761L.806 9.361a12.6 12.6 0 0 0-.431 3.264C.375 19.459 5.829 25 12.556 25c6.728 0 12.181-5.54 12.181-12.375C24.737 5.791 19.283.25 12.557.25m0 9.111c.636 0 1.257.192 1.785.55s.94.869 1.183 1.465.307 1.253.183 1.886a3.3 3.3 0 0 1-.88 1.67 3.2 3.2 0 0 1-1.644.894 3.17 3.17 0 0 1-1.856-.186 3.22 3.22 0 0 1-1.442-1.202 3.3 3.3 0 0 1 .4-4.12 3.19 3.19 0 0 1 2.271-.957M30.092 12.887c0-3.438 2.27-5.854 5.675-5.854 2.1 0 3.813.935 4.712 2.503l-1.97 1.414c-.621-1.001-1.564-1.48-2.677-1.48-1.841 0-3.063 1.329-3.063 3.417 0 2.066 1.22 3.415 3.063 3.415 1.114 0 2.056-.5 2.677-1.501l1.97 1.414c-.9 1.589-2.613 2.503-4.712 2.503-3.405 0-5.675-2.416-5.675-5.831M40.848 12.887c0-3.22 2.249-5.854 5.74-5.854 3.513 0 5.74 2.633 5.74 5.854 0 3.198-2.228 5.83-5.74 5.83-3.489 0-5.74-2.632-5.74-5.83m8.803 0c0-2.024-1.179-3.438-3.063-3.438s-3.063 1.414-3.063 3.438c0 2.001 1.178 3.415 3.063 3.415s3.063-1.414 3.063-3.415M69.482 7.336 66.139 18.41h-2.822L60.954 10.6l-2.383 7.811h-2.826L52.422 7.336h2.593l2.257 7.985 2.425-7.985h2.51l2.425 7.985 2.236-7.985zM106.197 7.336l-3.346 11.075h-2.822L97.666 10.6l-2.383 7.811h-2.82L89.139 7.338h2.592l2.258 7.986 2.423-7.988h2.509l2.425 7.985 2.237-7.985zM77.302 7.294v2.48a8 8 0 0 0-1.2-.109c-1.906 0-2.912.98-2.912 3.286v5.462h-2.612V7.336h2.567v1.85c.536-1.283 1.714-2.045 3.213-2.045.321-.006.64.045.944.153M88.14 7.336V17.3c0 3.722-2.034 5.766-5.633 5.766-1.863 0-3.576-.565-4.605-1.544l1.178-1.937c.92.738 2.12 1.11 3.278 1.11 2.013 0 3.212-1.153 3.212-3.396v-.955c-.62 1.218-1.949 1.958-3.555 1.958-2.314 0-3.77-1.48-3.77-4.178v-6.79h2.613v6.116c0 1.697.686 2.437 2.056 2.437 1.585 0 2.635-.979 2.635-2.59V7.337zM106.883 3.834c0-.958.664-1.654 1.671-1.654.984 0 1.647.696 1.647 1.654 0 .957-.665 1.653-1.647 1.653-1.007 0-1.671-.696-1.671-1.653m.364 3.503h2.613v11.075h-2.613zM111.176 16.607l1.413-1.676c.857.958 2.185 1.524 3.577 1.524 1.242 0 1.928-.479 1.928-1.175 0-.588-.429-.957-1.521-1.219l-1.778-.413c-2.27-.544-3.234-1.61-3.234-3.133 0-2.046 1.671-3.482 4.498-3.482 1.928 0 3.534.674 4.476 1.763l-1.392 1.719c-.942-.827-2.013-1.219-3.149-1.219-1.22 0-1.82.457-1.82 1.132 0 .522.364.848 1.52 1.11l1.885.456c2.292.523 3.127 1.588 3.127 3.112 0 2.197-1.671 3.612-4.562 3.612-2.162 0-3.983-.827-4.968-2.111M132.312 13.67h-8.119c.279 1.784 1.435 2.741 3.213 2.741 1.221 0 2.249-.457 3.041-1.393l1.564 1.567c-1.028 1.35-2.678 2.133-4.691 2.133-3.47 0-5.783-2.307-5.783-5.788 0-3.438 2.228-5.897 5.526-5.897 3.17 0 5.312 2.241 5.312 5.614a9 9 0 0 1-.063 1.022m-8.119-1.806h5.571c-.128-1.632-1.114-2.524-2.677-2.524-1.608 0-2.614.935-2.894 2.524"></path></g><defs><clipPath id="clip0_37731_18033"><path fill="#fff" d="M.375.25h132V25h-132z"></path></clipPath></defs></svg>