<svg xmlns="http://www.w3.org/2000/svg" xmlns:xlink="http://www.w3.org/1999/xlink" viewBox="0 0 32 32" width="32" height="32" preserveAspectRatio="xMidYMid meet" style="width: 100%; height: 100%; transform: translate3d(0px, 0px, 0px); content-visibility: visible;"><defs><clipPath id="__lottie_element_2"><rect width="32" height="32" x="0" y="0"></rect></clipPath></defs><g clip-path="url(#__lottie_element_2)"><g style="display: none;" transform="matrix(1.5229294300079346,0,0,1.5229294300079346,3.4358320236206055,3.4358320236206055)" opacity="0.022044415094655535"><g opacity="1" transform="matrix(1,0,0,1,8.25,8.25)"><path fill="rgb(251,44,86)" fill-opacity="1" d=" M-8,0 C-8,4.415999889373779 -4.415999889373779,8 0,8 C4.415999889373779,8 8,4.415999889373779 8,0 C8,-4.415999889373779 4.415999889373779,-8 0,-8 C-4.415999889373779,-8 -8,-4.415999889373779 -8,0z"></path></g></g><g style="display: block;" transform="matrix(1.0002326965332031,0,0,1.0002326965332031,7.748080253601074,7.748080253601074)" opacity="1"><g opacity="1" transform="matrix(1,0,0,1,8.25,8.25)"><path fill="rgb(251,44,86)" fill-opacity="1" d=" M-8,0 C-8,4.415999889373779 -4.415999889373779,8 0,8 C4.415999889373779,8 8,4.415999889373779 8,0 C8,-4.415999889373779 4.415999889373779,-8 0,-8 C-4.415999889373779,-8 -8,-4.415999889373779 -8,0z"></path></g><g opacity="1" transform="matrix(1,0,0,1,8.25,7.193999767303467)"><path fill="rgb(255,255,255)" fill-opacity="1" d=" M0,2.5439999103546143 C0.22100000083446503,2.5439999103546143 0.4000000059604645,2.365000009536743 0.4000000059604645,2.1440000534057617 C0.4000000059604645,2.1440000534057617 0.4000000059604645,-2.1440000534057617 0.4000000059604645,-2.1440000534057617 C0.4000000059604645,-2.365000009536743 0.22100000083446503,-2.5439999103546143 0,-2.5439999103546143 C-0.22100000083446503,-2.5439999103546143 -0.4000000059604645,-2.365000009536743 -0.4000000059604645,-2.1440000534057617 C-0.4000000059604645,-2.1440000534057617 -0.4000000059604645,2.1440000534057617 -0.4000000059604645,2.1440000534057617 C-0.4000000059604645,2.365000009536743 -0.22100000083446503,2.5439999103546143 0,2.5439999103546143z"></path></g><g opacity="1" transform="matrix(1,0,0,1,8.25,12.25)"><path fill="rgb(255,255,255)" fill-opacity="1" d=" M0,-0.800000011920929 C-0.44200000166893005,-0.800000011920929 -0.800000011920929,-0.4429999887943268 -0.800000011920929,0 C-0.800000011920929,0.4410000145435333 -0.44200000166893005,0.800000011920929 0,0.800000011920929 C0.44200000166893005,0.800000011920929 0.800000011920929,0.4410000145435333 0.800000011920929,0 C0.800000011920929,-0.4429999887943268 0.44200000166893005,-0.800000011920929 0,-0.800000011920929z"></path></g></g></g></svg>