<svg xmlns="http://www.w3.org/2000/svg" xmlns:xlink="http://www.w3.org/1999/xlink" viewBox="0 0 500 500" preserveAspectRatio="xMidYMid meet"><defs><clipPath id="__lottie_element_515"><rect width="500" height="500" x="0" y="0"></rect></clipPath><g id="__lottie_element_519"><g transform="matrix(1,0,0,1,119.80899047851562,159.62799072265625)" opacity="1" style="display: block;"><g opacity="1" transform="matrix(1,0,0,1,122.38200378417969,98.18099975585938)"><path fill="rgb(0,47,105)" fill-opacity="1" d=" M-114.24299621582031,58.87900161743164 C-114.24299621582031,58.87900161743164 -126.13200378417969,20.246000289916992 -126.13200378417969,20.246000289916992 C-126.13200378417969,20.246000289916992 -126.13200378417969,20.246000289916992 -126.13200378417969,20.246000289916992 C-126.13200378417969,20.246000289916992 -114.24299621582031,58.87900161743164 -114.24299621582031,58.87900161743164 C-114.24299621582031,58.87900161743164 -114.24299621582031,58.87900161743164 -114.24299621582031,58.87900161743164z"></path></g></g></g><mask id="__lottie_element_519_1" mask-type="alpha"><use xlink:href="#__lottie_element_519"></use></mask></defs><g clip-path="url(#__lottie_element_515)"><g mask="url(#__lottie_element_519_1)" style="display: block;"><g transform="matrix(1,0,0,1,119.80899047851562,159.62799072265625)" opacity="1"><g opacity="1" transform="matrix(1,0,0,1,122.38200378417969,98.18099975585938)"><path fill="rgb(0,47,105)" fill-opacity="1" d=" M-112.24299621582031,53.87900161743164 C-112.24299621582031,53.87900161743164 -122.13200378417969,24.246000289916992 -122.13200378417969,24.246000289916992 C-122.13200378417969,24.246000289916992 112.24299621582031,-53.87900161743164 112.24299621582031,-53.87900161743164 C112.24299621582031,-53.87900161743164 122.13200378417969,-24.246000289916992 122.13200378417969,-24.246000289916992 C122.13200378417969,-24.246000289916992 -112.24299621582031,53.87900161743164 -112.24299621582031,53.87900161743164z"></path></g></g></g><g style="display: none;"><g><path stroke-linecap="butt" stroke-linejoin="miter" fill-opacity="0" stroke-miterlimit="4"></path></g></g></g></svg>