<svg xmlns="http://www.w3.org/2000/svg" width="124" height="26" fill="none" viewBox="0 0 124 26"><path fill="#FEBE10" d="M8.573 4.39c.45-1.381 2.405-1.381 2.854 0l1.155 3.556a1.5 1.5 0 0 0 1.426 1.037h3.74c1.452 0 2.056 1.86.88 2.713l-3.024 2.198a1.5 1.5 0 0 0-.545 1.677l1.156 3.556c.449 1.382-1.133 2.53-2.309 1.677l-3.024-2.198a1.5 1.5 0 0 0-1.764 0l-3.024 2.198c-1.176.854-2.758-.295-2.309-1.677l1.156-3.556a1.5 1.5 0 0 0-.545-1.677L1.37 11.696c-1.174-.854-.57-2.713.883-2.713h3.739a1.5 1.5 0 0 0 1.426-1.037l1.155-3.555Zm26 0c.45-1.381 2.405-1.381 2.854 0l1.155 3.556a1.5 1.5 0 0 0 1.426 1.037h3.74c1.452 0 2.056 1.86.88 2.713l-3.024 2.198a1.5 1.5 0 0 0-.545 1.677l1.156 3.556c.449 1.382-1.133 2.53-2.309 1.677l-3.024-2.198a1.5 1.5 0 0 0-1.764 0l-3.024 2.198c-1.176.854-2.758-.295-2.309-1.677l1.156-3.556a1.5 1.5 0 0 0-.545-1.677l-3.025-2.198c-1.175-.854-.571-2.713.882-2.713h3.738a1.5 1.5 0 0 0 1.427-1.037l1.155-3.555Zm26 0c.45-1.381 2.405-1.381 2.854 0l1.155 3.556a1.5 1.5 0 0 0 1.427 1.037h3.738c1.453 0 2.058 1.86.882 2.713l-3.025 2.198a1.5 1.5 0 0 0-.545 1.677l1.156 3.556c.449 1.382-1.133 2.53-2.309 1.677l-3.024-2.198a1.5 1.5 0 0 0-1.764 0l-3.024 2.198c-1.176.854-2.758-.295-2.309-1.677l1.156-3.556a1.5 1.5 0 0 0-.545-1.677l-3.025-2.198c-1.175-.854-.571-2.713.882-2.713h3.739a1.5 1.5 0 0 0 1.426-1.037l1.155-3.555Zm26 0c.45-1.381 2.405-1.381 2.854 0l1.155 3.556a1.5 1.5 0 0 0 1.427 1.037h3.738c1.453 0 2.058 1.86.882 2.713l-3.025 2.198a1.5 1.5 0 0 0-.545 1.677l1.156 3.556c.449 1.382-1.133 2.53-2.309 1.677l-3.024-2.198a1.5 1.5 0 0 0-1.764 0l-3.024 2.198c-1.176.854-2.758-.295-2.309-1.677l1.156-3.556a1.5 1.5 0 0 0-.545-1.677l-3.025-2.198c-1.175-.854-.571-2.713.882-2.713h3.739a1.5 1.5 0 0 0 1.426-1.037l1.155-3.555Zm26 0c.449-1.381 2.405-1.381 2.854 0l1.155 3.556a1.5 1.5 0 0 0 1.426 1.037h3.739c1.453 0 2.057 1.86.882 2.713l-3.025 2.198a1.5 1.5 0 0 0-.545 1.677l1.156 3.556c.449 1.382-1.133 2.53-2.309 1.677l-3.024-2.198a1.501 1.501 0 0 0-1.764 0l-3.024 2.198c-1.176.854-2.758-.295-2.309-1.677l1.156-3.556a1.5 1.5 0 0 0-.545-1.677l-3.025-2.198c-1.175-.854-.571-2.713.882-2.713h3.739a1.5 1.5 0 0 0 1.426-1.037l1.155-3.555Z"></path></svg>