<svg xmlns="http://www.w3.org/2000/svg" width="48" height="48" viewBox="0 0 48 48" class="green-star"><path d="M26.241 12.742c3.38-16.99-7.858-16.99-4.478 0-3.38-16.99-13.764-12.69-4.14 1.714C7.999.053.053 8 14.456 17.623c-14.403-9.624-18.703.76-1.714 4.138-16.99-3.38-16.99 7.858 0 4.478-16.99 3.38-12.687 13.762 1.714 4.138-14.401 9.624-6.455 17.57 3.167 3.167-9.624 14.401.76 18.701 4.138 1.714-3.38 16.99 7.858 16.99 4.478 0 3.38 16.99 13.762 12.687 4.138-1.714 9.624 14.401 17.57 6.455 3.167-3.167 14.401 9.624 18.701-.76 1.714-4.138 16.99 3.38 16.99-7.858 0-4.478 16.99-3.38 12.687-13.762-1.714-4.138 14.401-9.624 6.455-17.57-3.167-3.167 9.624-14.401-.76-18.701-4.138-1.714h.002Z"></path></svg>