<svg xmlns="http://www.w3.org/2000/svg" xmlns:xlink="http://www.w3.org/1999/xlink" viewBox="0 0 645 260" width="645" height="260" preserveAspectRatio="xMidYMid meet" style="width: 100%; height: 100%; transform: translate3d(0px, 0px, 0px); content-visibility: visible;"><defs><clipPath id="__lottie_element_156"><rect width="645" height="260" x="0" y="0"></rect></clipPath></defs><g clip-path="url(#__lottie_element_156)"><g style="display: none;" transform="matrix(2.550814151763916,-0.5236068964004517,0.5236068964004517,2.550814151763916,746.1814575195312,643.3944702148438)" opacity="1"><g opacity="1" transform="matrix(1.090000033378601,0,0,1.090000033378601,0,0)"><path fill="rgb(112,255,129)" fill-opacity="1" d=" M-209.5,-105.25 C-210.25,-105.375 -210.31300354003906,-103.81199645996094 -210.68800354003906,-103.81199645996094 C-211.06300354003906,-103.81199645996094 -211.68699645996094,-103.18699645996094 -211.375,-102.81199645996094 C-211.06300354003906,-102.43699645996094 -210.25,-102 -209.81199645996094,-102.375 C-209.37399291992188,-102.75 -208.81199645996094,-102.3759994506836 -208.5,-102.93800354003906 C-208.18800354003906,-103.5 -208.75,-103.81300354003906 -208.68800354003906,-104.375 C-208.62600708007812,-104.93699645996094 -208.75,-105.125 -209.5,-105.25z"></path></g></g><g style="display: none;" transform="matrix(2.6040000915527344,0,0,2.6040000915527344,850.3603515625,747.5197143554688)" opacity="1"><g opacity="1" transform="matrix(1.090000033378601,0,0,1.090000033378601,0,0)"><path fill="rgb(112,255,129)" fill-opacity="1" d=" M-209.5919952392578,-104.57599639892578 C-210.3419952392578,-104.70099639892578 -210.81500244140625,-104.45600128173828 -211.0570068359375,-104.16899871826172 C-211.70799255371094,-103.39700317382812 -211.68699645996094,-103.18699645996094 -211.375,-102.81199645996094 C-211.06300354003906,-102.43699645996094 -210.78399658203125,-102.06600189208984 -210.38099670410156,-102.2300033569336 C-209.97799682617188,-102.39399719238281 -209.2220001220703,-102.177001953125 -208.91000366210938,-102.73899841308594 C-208.59800720214844,-103.3010025024414 -208.89500427246094,-103.36399841308594 -208.83299255371094,-103.9260025024414 C-208.8159942626953,-104.24299621582031 -208.8419952392578,-104.45099639892578 -209.5919952392578,-104.57599639892578z"></path></g></g><g style="display: none;" transform="matrix(0.8820000290870667,0,0,0.8820000290870667,-44.739498138427734,412.34307861328125)" opacity="1"><g opacity="1" transform="matrix(1,0,0,1,0,0)"><path fill="rgb(255,255,255)" fill-opacity="1" d=" M102.25,-14.5 C101.25,-15 99.5,-11.75 98.5,-10.5 C97.5,-9.25 96,-3.25 96,0.25 C96,3.75 99.25,3.25 101.5,3.5 C103.75,3.75 104.5,8.5 103.75,11 C103,13.5 107.75,10.75 110,7 C110.9280014038086,5.453999996185303 108.5,3.5 108.75,-3 C108.81999969482422,-4.818999767303467 108.25,-6.25 106,-5.25 C103.75,-4.25 102,-1 102.5,-3.25 C103,-5.5 107,-7 106.25,-9.5 C105.5,-12 103.25,-14 102.25,-14.5z"></path></g></g><g style="display: none;" transform="matrix(-0.08886171132326126,-0.5933831930160522,0.5933831930160522,-0.08886171132326126,216.54690551757812,511.79681396484375)" opacity="1"><g opacity="1" transform="matrix(1,0,0,1,0,0)"><path fill="rgb(255,255,255)" fill-opacity="1" d=" M132,-114 C129.75,-116.25 126,-110.5 124,-107.75 C122,-105 123,-103 120,-95.5 C117,-88 119.25,-86 123,-86.25 C126.75,-86.5 132.25,-92.5 132.5,-96.75 C132.75,-101 134.25,-111.75 132,-114z"></path></g></g><g style="display: none;" transform="matrix(0.10418891161680222,-0.5908846855163574,0.5908846855163574,0.10418891161680222,110.65092468261719,528.8961791992188)" opacity="1"><g opacity="1" transform="matrix(1,0,0,1,0,0)"><path fill="rgb(112,255,129)" fill-opacity="1" d=" M39,-66.5 C28.351999282836914,-72.23300170898438 31.5,-64.5 32,-61.5 C32.5,-58.5 32.5,-51.5 35.5,-51.5 C38.5,-51.5 45.5,-51.5 47,-53 C48.5,-54.5 45.5,-63 39,-66.5z"></path></g></g><g style="display: none;" transform="matrix(0.35731664299964905,-0.04387296363711357,0.04387296363711357,0.35731664299964905,224.63182067871094,492.7707824707031)" opacity="1"><g opacity="1" transform="matrix(1,0,0,1,0,0)"><path fill="rgb(112,255,129)" fill-opacity="1" d=" M39,-66.5 C28.351999282836914,-72.23300170898438 31.5,-64.5 32,-61.5 C32.5,-58.5 32.5,-51.5 35.5,-51.5 C38.5,-51.5 45.5,-51.5 47,-53 C48.5,-54.5 45.5,-63 39,-66.5z"></path></g></g><g style="display: none;" transform="matrix(0.6000000238418579,0,0,0.6000000238418579,-104.41680908203125,517.2332153320312)" opacity="1"><g opacity="1" transform="matrix(1,0,0,1,226.0279998779297,-88.72200012207031)"><path fill="rgb(112,255,129)" fill-opacity="1" d=" M0,-9.050000190734863 C4.99469518661499,-9.050000190734863 9.050000190734863,-4.99469518661499 9.050000190734863,0 C9.050000190734863,4.99469518661499 4.99469518661499,9.050000190734863 0,9.050000190734863 C-4.99469518661499,9.050000190734863 -9.050000190734863,4.99469518661499 -9.050000190734863,0 C-9.050000190734863,-4.99469518661499 -4.99469518661499,-9.050000190734863 0,-9.050000190734863z"></path></g></g><g style="display: none;" transform="matrix(-0.15529143810272217,-0.5795555114746094,0.5795555114746094,-0.15529143810272217,70.15481567382812,345.464111328125)" opacity="1"><g opacity="1" transform="matrix(1,0,0,1,-209.75,-80.25)"><path fill="rgb(255,255,255)" fill-opacity="1" d=" M4.621204766542977e-16,-7.546999931335449 C4.621204766542977e-16,-7.546999931335449 2.2177138328552246,-3.0524210929870605 2.2177138328552246,-3.0524210929870605 C2.2177138328552246,-3.0524210929870605 7.177623748779297,-2.332151174545288 7.177623748779297,-2.332151174545288 C7.177623748779297,-2.332151174545288 3.588336229324341,1.1659210920333862 3.588336229324341,1.1659210920333862 C3.588336229324341,1.1659210920333862 4.4360151290893555,6.105651378631592 4.4360151290893555,6.105651378631592 C4.4360151290893555,6.105651378631592 2.310296127921497e-16,3.7730000019073486 2.310296127921497e-16,3.7730000019073486 C2.310296127921497e-16,3.7730000019073486 -4.4360151290893555,6.105651378631592 -4.4360151290893555,6.105651378631592 C-4.4360151290893555,6.105651378631592 -3.588336229324341,1.1659210920333862 -3.588336229324341,1.1659210920333862 C-3.588336229324341,1.1659210920333862 -7.177623748779297,-2.332151174545288 -7.177623748779297,-2.332151174545288 C-7.177623748779297,-2.332151174545288 -2.2177138328552246,-3.0524210929870605 -2.2177138328552246,-3.0524210929870605 C-2.2177138328552246,-3.0524210929870605 4.621204766542977e-16,-7.546999931335449 4.621204766542977e-16,-7.546999931335449z"></path></g></g><g style="display: none;" transform="matrix(-0.28168293833732605,-0.5297685861587524,0.5297685861587524,-0.28168293833732605,194.0309295654297,314.67596435546875)" opacity="1"><g opacity="1" transform="matrix(1,0,0,1,-209.75,-80.25)"><path fill="rgb(112,255,129)" fill-opacity="1" d=" M4.621204766542977e-16,-7.546999931335449 C4.621204766542977e-16,-7.546999931335449 2.2177138328552246,-3.0524210929870605 2.2177138328552246,-3.0524210929870605 C2.2177138328552246,-3.0524210929870605 7.177623748779297,-2.332151174545288 7.177623748779297,-2.332151174545288 C7.177623748779297,-2.332151174545288 3.588336229324341,1.1659210920333862 3.588336229324341,1.1659210920333862 C3.588336229324341,1.1659210920333862 4.4360151290893555,6.105651378631592 4.4360151290893555,6.105651378631592 C4.4360151290893555,6.105651378631592 2.310296127921497e-16,3.7730000019073486 2.310296127921497e-16,3.7730000019073486 C2.310296127921497e-16,3.7730000019073486 -4.4360151290893555,6.105651378631592 -4.4360151290893555,6.105651378631592 C-4.4360151290893555,6.105651378631592 -3.588336229324341,1.1659210920333862 -3.588336229324341,1.1659210920333862 C-3.588336229324341,1.1659210920333862 -7.177623748779297,-2.332151174545288 -7.177623748779297,-2.332151174545288 C-7.177623748779297,-2.332151174545288 -2.2177138328552246,-3.0524210929870605 -2.2177138328552246,-3.0524210929870605 C-2.2177138328552246,-3.0524210929870605 4.621204766542977e-16,-7.546999931335449 4.621204766542977e-16,-7.546999931335449z"></path></g></g><g style="display: none;" transform="matrix(0.5657001733779907,-0.19995833933353424,0.19995833933353424,0.5657001733779907,200.7022705078125,448.25616455078125)" opacity="1"><g opacity="1" transform="matrix(1.4800000190734863,0,0,1.4800000190734863,-209.75,-80.25)"><path fill="rgb(255,255,255)" fill-opacity="1" d=" M4.621204766542977e-16,-7.546999931335449 C4.621204766542977e-16,-7.546999931335449 1.8865000009536743,-3.2675137519836426 1.8865000009536743,-3.2675137519836426 C1.8865000009536743,-3.2675137519836426 6.53589391708374,-3.7734999656677246 6.53589391708374,-3.7734999656677246 C6.53589391708374,-3.7734999656677246 3.7730000019073486,-8.377742948056596e-16 3.7730000019073486,-8.377742948056596e-16 C3.7730000019073486,-8.377742948056596e-16 6.53589391708374,3.7734999656677246 6.53589391708374,3.7734999656677246 C6.53589391708374,3.7734999656677246 1.8865000009536743,3.2675137519836426 1.8865000009536743,3.2675137519836426 C1.8865000009536743,3.2675137519836426 3.813661659959975e-15,7.546999931335449 3.813661659959975e-15,7.546999931335449 C3.813661659959975e-15,7.546999931335449 -1.8865000009536743,3.2675137519836426 -1.8865000009536743,3.2675137519836426 C-1.8865000009536743,3.2675137519836426 -6.53589391708374,3.7734999656677246 -6.53589391708374,3.7734999656677246 C-6.53589391708374,3.7734999656677246 -3.7730000019073486,3.813156404806938e-15 -3.7730000019073486,3.813156404806938e-15 C-3.7730000019073486,3.813156404806938e-15 -6.53589391708374,-3.7734999656677246 -6.53589391708374,-3.7734999656677246 C-6.53589391708374,-3.7734999656677246 -1.8865000009536743,-3.2675137519836426 -1.8865000009536743,-3.2675137519836426 C-1.8865000009536743,-3.2675137519836426 4.621204766542977e-16,-7.546999931335449 4.621204766542977e-16,-7.546999931335449z"></path></g></g><g style="display: none;" transform="matrix(0.5926130414009094,-0.0938606858253479,0.0938606858253479,0.5926130414009094,322.6329040527344,498.46990966796875)" opacity="1"><g opacity="1" transform="matrix(1.4800000190734863,0,0,1.4800000190734863,-209.75,-80.25)"><path fill="rgb(112,255,129)" fill-opacity="1" d=" M4.621204766542977e-16,-7.546999931335449 C4.621204766542977e-16,-7.546999931335449 1.8865000009536743,-3.2675137519836426 1.8865000009536743,-3.2675137519836426 C1.8865000009536743,-3.2675137519836426 6.53589391708374,-3.7734999656677246 6.53589391708374,-3.7734999656677246 C6.53589391708374,-3.7734999656677246 3.7730000019073486,-8.377742948056596e-16 3.7730000019073486,-8.377742948056596e-16 C3.7730000019073486,-8.377742948056596e-16 6.53589391708374,3.7734999656677246 6.53589391708374,3.7734999656677246 C6.53589391708374,3.7734999656677246 1.8865000009536743,3.2675137519836426 1.8865000009536743,3.2675137519836426 C1.8865000009536743,3.2675137519836426 3.813661659959975e-15,7.546999931335449 3.813661659959975e-15,7.546999931335449 C3.813661659959975e-15,7.546999931335449 -1.8865000009536743,3.2675137519836426 -1.8865000009536743,3.2675137519836426 C-1.8865000009536743,3.2675137519836426 -6.53589391708374,3.7734999656677246 -6.53589391708374,3.7734999656677246 C-6.53589391708374,3.7734999656677246 -3.7730000019073486,3.813156404806938e-15 -3.7730000019073486,3.813156404806938e-15 C-3.7730000019073486,3.813156404806938e-15 -6.53589391708374,-3.7734999656677246 -6.53589391708374,-3.7734999656677246 C-6.53589391708374,-3.7734999656677246 -1.8865000009536743,-3.2675137519836426 -1.8865000009536743,-3.2675137519836426 C-1.8865000009536743,-3.2675137519836426 4.621204766542977e-16,-7.546999931335449 4.621204766542977e-16,-7.546999931335449z"></path></g></g><g style="display: none;" transform="matrix(-0.9543691277503967,2.422807216644287,-2.422807216644287,-0.9543691277503967,-76.24050903320312,912.4651489257812)" opacity="1"><g opacity="1" transform="matrix(1.090000033378601,0,0,1.090000033378601,0,0)"><path fill="rgb(255,255,255)" fill-opacity="1" d=" M-209.5,-105.25 C-210.25,-105.375 -210.31300354003906,-103.81199645996094 -210.68800354003906,-103.81199645996094 C-211.06300354003906,-103.81199645996094 -211.68699645996094,-103.18699645996094 -211.375,-102.81199645996094 C-211.06300354003906,-102.43699645996094 -210.25,-102 -209.81199645996094,-102.375 C-209.37399291992188,-102.75 -208.81199645996094,-102.3759994506836 -208.5,-102.93800354003906 C-208.18800354003906,-103.5 -208.75,-103.81300354003906 -208.68800354003906,-104.375 C-208.62600708007812,-104.93699645996094 -208.75,-105.125 -209.5,-105.25z"></path></g></g><g style="display: none;" transform="matrix(2.3788723945617676,-1.0591422319412231,1.0591422319412231,2.3788723945617676,643.7993774414062,341.9195556640625)" opacity="1"><g opacity="1" transform="matrix(1.090000033378601,0,0,1.090000033378601,0,0)"><path fill="rgb(255,255,255)" fill-opacity="1" d=" M-209.5919952392578,-104.57599639892578 C-210.3419952392578,-104.70099639892578 -210.81500244140625,-104.45600128173828 -211.0570068359375,-104.16899871826172 C-211.70799255371094,-103.39700317382812 -211.68699645996094,-103.18699645996094 -211.375,-102.81199645996094 C-211.06300354003906,-102.43699645996094 -210.78399658203125,-102.06600189208984 -210.38099670410156,-102.2300033569336 C-209.97799682617188,-102.39399719238281 -209.2220001220703,-102.177001953125 -208.91000366210938,-102.73899841308594 C-208.59800720214844,-103.3010025024414 -208.89500427246094,-103.36399841308594 -208.83299255371094,-103.9260025024414 C-208.8159942626953,-104.24299621582031 -208.8419952392578,-104.45099639892578 -209.5919952392578,-104.57599639892578z"></path></g></g><g style="display: none;" transform="matrix(0.6000000238418579,0,0,0.6000000238418579,70.74419403076172,503.85919189453125)" opacity="1"><g opacity="1" transform="matrix(1,0,0,1,159.09300231933594,-46.43199920654297)"><path fill="rgb(255,255,255)" fill-opacity="1" d=" M0,-4.550000190734863 C2.5111451148986816,-4.550000190734863 4.550000190734863,-2.5111451148986816 4.550000190734863,0 C4.550000190734863,2.5111451148986816 2.5111451148986816,4.550000190734863 0,4.550000190734863 C-2.5111451148986816,4.550000190734863 -4.550000190734863,2.5111451148986816 -4.550000190734863,0 C-4.550000190734863,-2.5111451148986816 -2.5111451148986816,-4.550000190734863 0,-4.550000190734863z"></path></g></g><g style="display: none;" transform="matrix(0.20521210134029388,0.5638155937194824,-0.5638155937194824,0.20521210134029388,124.24703216552734,595.278564453125)" opacity="1"><g opacity="1" transform="matrix(1,0,0,1,-209.75,-80.25)"><path fill="rgb(112,255,129)" fill-opacity="1" d=" M4.621204766542977e-16,-7.546999931335449 C4.621204766542977e-16,-7.546999931335449 2.2177138328552246,-3.0524210929870605 2.2177138328552246,-3.0524210929870605 C2.2177138328552246,-3.0524210929870605 7.177623748779297,-2.332151174545288 7.177623748779297,-2.332151174545288 C7.177623748779297,-2.332151174545288 3.588336229324341,1.1659210920333862 3.588336229324341,1.1659210920333862 C3.588336229324341,1.1659210920333862 4.4360151290893555,6.105651378631592 4.4360151290893555,6.105651378631592 C4.4360151290893555,6.105651378631592 2.310296127921497e-16,3.7730000019073486 2.310296127921497e-16,3.7730000019073486 C2.310296127921497e-16,3.7730000019073486 -4.4360151290893555,6.105651378631592 -4.4360151290893555,6.105651378631592 C-4.4360151290893555,6.105651378631592 -3.588336229324341,1.1659210920333862 -3.588336229324341,1.1659210920333862 C-3.588336229324341,1.1659210920333862 -7.177623748779297,-2.332151174545288 -7.177623748779297,-2.332151174545288 C-7.177623748779297,-2.332151174545288 -2.2177138328552246,-3.0524210929870605 -2.2177138328552246,-3.0524210929870605 C-2.2177138328552246,-3.0524210929870605 4.621204766542977e-16,-7.546999931335449 4.621204766542977e-16,-7.546999931335449z"></path></g></g><g style="display: none;" transform="matrix(0.43799999356269836,0,0,0.43799999356269836,-310.8002624511719,496.8602294921875)" opacity="1"><g opacity="1" transform="matrix(1,0,0,1,226.0279998779297,-88.72200012207031)"><path fill="rgb(112,255,129)" fill-opacity="1" d=" M0,-9.050000190734863 C4.99469518661499,-9.050000190734863 9.050000190734863,-4.99469518661499 9.050000190734863,0 C9.050000190734863,4.99469518661499 4.99469518661499,9.050000190734863 0,9.050000190734863 C-4.99469518661499,9.050000190734863 -9.050000190734863,4.99469518661499 -9.050000190734863,0 C-9.050000190734863,-4.99469518661499 -4.99469518661499,-9.050000190734863 0,-9.050000190734863z"></path></g></g><g style="display: none;" transform="matrix(-0.5523029565811157,0.2344386875629425,-0.2344386875629425,-0.5523029565811157,-320.0592346191406,443.65118408203125)" opacity="1"><g opacity="1" transform="matrix(1.4800000190734863,0,0,1.4800000190734863,-209.75,-80.25)"><path fill="rgb(112,255,129)" fill-opacity="1" d=" M4.621204766542977e-16,-7.546999931335449 C4.621204766542977e-16,-7.546999931335449 1.8865000009536743,-3.2675137519836426 1.8865000009536743,-3.2675137519836426 C1.8865000009536743,-3.2675137519836426 6.53589391708374,-3.7734999656677246 6.53589391708374,-3.7734999656677246 C6.53589391708374,-3.7734999656677246 3.7730000019073486,-8.377742948056596e-16 3.7730000019073486,-8.377742948056596e-16 C3.7730000019073486,-8.377742948056596e-16 6.53589391708374,3.7734999656677246 6.53589391708374,3.7734999656677246 C6.53589391708374,3.7734999656677246 1.8865000009536743,3.2675137519836426 1.8865000009536743,3.2675137519836426 C1.8865000009536743,3.2675137519836426 3.813661659959975e-15,7.546999931335449 3.813661659959975e-15,7.546999931335449 C3.813661659959975e-15,7.546999931335449 -1.8865000009536743,3.2675137519836426 -1.8865000009536743,3.2675137519836426 C-1.8865000009536743,3.2675137519836426 -6.53589391708374,3.7734999656677246 -6.53589391708374,3.7734999656677246 C-6.53589391708374,3.7734999656677246 -3.7730000019073486,3.813156404806938e-15 -3.7730000019073486,3.813156404806938e-15 C-3.7730000019073486,3.813156404806938e-15 -6.53589391708374,-3.7734999656677246 -6.53589391708374,-3.7734999656677246 C-6.53589391708374,-3.7734999656677246 -1.8865000009536743,-3.2675137519836426 -1.8865000009536743,-3.2675137519836426 C-1.8865000009536743,-3.2675137519836426 4.621204766542977e-16,-7.546999931335449 4.621204766542977e-16,-7.546999931335449z"></path></g></g><g style="display: none;" transform="matrix(-0.15189926326274872,-0.8688214421272278,0.8688214421272278,-0.15189926326274872,-127.81228637695312,566.5838623046875)" opacity="1"><g opacity="1" transform="matrix(1,0,0,1,0,0)"><path fill="rgb(255,255,255)" fill-opacity="1" d=" M102.25,-14.5 C101.25,-15 99.5,-11.75 98.5,-10.5 C97.5,-9.25 96,-3.25 96,0.25 C96,3.75 99.25,3.25 101.5,3.5 C103.75,3.75 104.5,8.5 103.75,11 C103,13.5 107.75,10.75 110,7 C110.9280014038086,5.453999996185303 108.5,3.5 108.75,-3 C108.81999969482422,-4.818999767303467 108.25,-6.25 106,-5.25 C103.75,-4.25 102,-1 102.5,-3.25 C103,-5.5 107,-7 106.25,-9.5 C105.5,-12 103.25,-14 102.25,-14.5z"></path></g></g><g style="display: none;" transform="matrix(-0.4945765435695648,-0.3396970331668854,0.3396970331668854,-0.4945765435695648,413.7699890136719,452.3323059082031)" opacity="1"><g opacity="1" transform="matrix(1,0,0,1,0,0)"><path fill="rgb(255,255,255)" fill-opacity="1" d=" M132,-114 C129.75,-116.25 126,-110.5 124,-107.75 C122,-105 123,-103 120,-95.5 C117,-88 119.25,-86 123,-86.25 C126.75,-86.5 132.25,-92.5 132.5,-96.75 C132.75,-101 134.25,-111.75 132,-114z"></path></g></g><g style="display: none;" transform="matrix(0.8238750100135803,-0.3148873746395111,0.3148873746395111,0.8238750100135803,224.46163940429688,498.7345275878906)" opacity="1"><g opacity="1" transform="matrix(1,0,0,1,0,0)"><path fill="rgb(112,255,129)" fill-opacity="1" d=" M102.25,-14.5 C101.25,-15 99.5,-11.75 98.5,-10.5 C97.5,-9.25 96,-3.25 96,0.25 C96,3.75 99.25,3.25 101.5,3.5 C103.75,3.75 104.5,8.5 103.75,11 C103,13.5 107.75,10.75 110,7 C110.9280014038086,5.453999996185303 108.5,3.5 108.75,-3 C108.81999969482422,-4.818999767303467 108.25,-6.25 106,-5.25 C103.75,-4.25 102,-1 102.5,-3.25 C103,-5.5 107,-7 106.25,-9.5 C105.5,-12 103.25,-14 102.25,-14.5z"></path></g></g><g style="display: none;" transform="matrix(-0.06271708011627197,-0.5967131853103638,0.5967131853103638,-0.06271708011627197,319.7313232421875,258.20635986328125)" opacity="1"><g opacity="1" transform="matrix(1,0,0,1,-209.75,-80.25)"><path fill="rgb(255,255,255)" fill-opacity="1" d=" M4.621204766542977e-16,-7.546999931335449 C4.621204766542977e-16,-7.546999931335449 2.2177138328552246,-3.0524210929870605 2.2177138328552246,-3.0524210929870605 C2.2177138328552246,-3.0524210929870605 7.177623748779297,-2.332151174545288 7.177623748779297,-2.332151174545288 C7.177623748779297,-2.332151174545288 3.588336229324341,1.1659210920333862 3.588336229324341,1.1659210920333862 C3.588336229324341,1.1659210920333862 4.4360151290893555,6.105651378631592 4.4360151290893555,6.105651378631592 C4.4360151290893555,6.105651378631592 2.310296127921497e-16,3.7730000019073486 2.310296127921497e-16,3.7730000019073486 C2.310296127921497e-16,3.7730000019073486 -4.4360151290893555,6.105651378631592 -4.4360151290893555,6.105651378631592 C-4.4360151290893555,6.105651378631592 -3.588336229324341,1.1659210920333862 -3.588336229324341,1.1659210920333862 C-3.588336229324341,1.1659210920333862 -7.177623748779297,-2.332151174545288 -7.177623748779297,-2.332151174545288 C-7.177623748779297,-2.332151174545288 -2.2177138328552246,-3.0524210929870605 -2.2177138328552246,-3.0524210929870605 C-2.2177138328552246,-3.0524210929870605 4.621204766542977e-16,-7.546999931335449 4.621204766542977e-16,-7.546999931335449z"></path></g></g><g style="display: none;" transform="matrix(0.6000000238418579,0,0,0.6000000238418579,-216.05580139160156,427.0592041015625)" opacity="1"><g opacity="1" transform="matrix(1,0,0,1,159.09300231933594,-46.43199920654297)"><path fill="rgb(255,255,255)" fill-opacity="1" d=" M0,-4.550000190734863 C2.5111451148986816,-4.550000190734863 4.550000190734863,-2.5111451148986816 4.550000190734863,0 C4.550000190734863,2.5111451148986816 2.5111451148986816,4.550000190734863 0,4.550000190734863 C-2.5111451148986816,4.550000190734863 -4.550000190734863,2.5111451148986816 -4.550000190734863,0 C-4.550000190734863,-2.5111451148986816 -2.5111451148986816,-4.550000190734863 0,-4.550000190734863z"></path></g></g><g style="display: none;" transform="matrix(0,-0.6000000238418579,0.6000000238418579,0,343.9499816894531,234.94998168945312)" opacity="1"><g opacity="1" transform="matrix(1,0,0,1,-209.75,-80.25)"><path fill="rgb(255,255,255)" fill-opacity="1" d=" M4.621204766542977e-16,-7.546999931335449 C4.621204766542977e-16,-7.546999931335449 2.2177138328552246,-3.0524210929870605 2.2177138328552246,-3.0524210929870605 C2.2177138328552246,-3.0524210929870605 7.177623748779297,-2.332151174545288 7.177623748779297,-2.332151174545288 C7.177623748779297,-2.332151174545288 3.588336229324341,1.1659210920333862 3.588336229324341,1.1659210920333862 C3.588336229324341,1.1659210920333862 4.4360151290893555,6.105651378631592 4.4360151290893555,6.105651378631592 C4.4360151290893555,6.105651378631592 2.310296127921497e-16,3.7730000019073486 2.310296127921497e-16,3.7730000019073486 C2.310296127921497e-16,3.7730000019073486 -4.4360151290893555,6.105651378631592 -4.4360151290893555,6.105651378631592 C-4.4360151290893555,6.105651378631592 -3.588336229324341,1.1659210920333862 -3.588336229324341,1.1659210920333862 C-3.588336229324341,1.1659210920333862 -7.177623748779297,-2.332151174545288 -7.177623748779297,-2.332151174545288 C-7.177623748779297,-2.332151174545288 -2.2177138328552246,-3.0524210929870605 -2.2177138328552246,-3.0524210929870605 C-2.2177138328552246,-3.0524210929870605 4.621204766542977e-16,-7.546999931335449 4.621204766542977e-16,-7.546999931335449z"></path></g></g><g style="display: none;" transform="matrix(0.9109526872634888,0,0,0.9109526872634888,173.27310180664062,45.69475173950195)" opacity="0.03332142857143339"><g opacity="1" transform="matrix(1,0,0,1,-29.5,37.5)"><path fill="rgb(255,255,255)" fill-opacity="1" d=" M0,-23.106000900268555 C-12.76099967956543,-23.106000900268555 -23.106000900268555,-12.76099967956543 -23.106000900268555,0 C-23.106000900268555,12.76099967956543 -12.76099967956543,23.106000900268555 0,23.106000900268555 C12.76099967956543,23.106000900268555 23.106000900268555,12.76099967956543 23.106000900268555,0 C23.106000900268555,-12.76099967956543 12.76099967956543,-23.106000900268555 0,-23.106000900268555z"></path></g></g><g style="display: none;" transform="matrix(1.095923662185669,0,0,1.095923662185669,178.729736328125,38.850826263427734)" opacity="0.02782916666666324"><g opacity="1" transform="matrix(1,0,0,1,-29.5,37.5)"><path stroke-linecap="butt" stroke-linejoin="miter" fill-opacity="0" stroke-miterlimit="4" stroke="rgb(255,255,255)" stroke-opacity="1" stroke-width="4" d=" M0,-23.106000900268555 C-12.76099967956543,-23.106000900268555 -23.106000900268555,-12.76099967956543 -23.106000900268555,0 C-23.106000900268555,12.76099967956543 -12.76099967956543,23.106000900268555 0,23.106000900268555 C12.76099967956543,23.106000900268555 23.106000900268555,12.76099967956543 23.106000900268555,0 C23.106000900268555,-12.76099967956543 12.76099967956543,-23.106000900268555 0,-23.106000900268555z"></path></g></g><g style="display: block;" transform="matrix(0.3008762300014496,-2.586559772491455,2.586559772491455,0.3008762300014496,586.938720703125,-125.56598663330078)" opacity="1"><g opacity="1" transform="matrix(1.090000033378601,0,0,1.090000033378601,0,0)"><path fill="rgb(112,255,129)" fill-opacity="1" d=" M-209.5,-105.25 C-210.25,-105.375 -210.31300354003906,-103.81199645996094 -210.68800354003906,-103.81199645996094 C-211.06300354003906,-103.81199645996094 -211.68699645996094,-103.18699645996094 -211.375,-102.81199645996094 C-211.06300354003906,-102.43699645996094 -210.25,-102 -209.81199645996094,-102.375 C-209.37399291992188,-102.75 -208.81199645996094,-102.3759994506836 -208.5,-102.93800354003906 C-208.18800354003906,-103.5 -208.75,-103.81300354003906 -208.68800354003906,-104.375 C-208.62600708007812,-104.93699645996094 -208.75,-105.125 -209.5,-105.25z"></path></g></g><g style="display: block;" transform="matrix(2.6040000915527344,0,0,2.6040000915527344,961.6829223632812,592.4291381835938)" opacity="1"><g opacity="1" transform="matrix(1.090000033378601,0,0,1.090000033378601,0,0)"><path fill="rgb(112,255,129)" fill-opacity="1" d=" M-209.5919952392578,-104.57599639892578 C-210.3419952392578,-104.70099639892578 -210.81500244140625,-104.45600128173828 -211.0570068359375,-104.16899871826172 C-211.70799255371094,-103.39700317382812 -211.68699645996094,-103.18699645996094 -211.375,-102.81199645996094 C-211.06300354003906,-102.43699645996094 -210.78399658203125,-102.06600189208984 -210.38099670410156,-102.2300033569336 C-209.97799682617188,-102.39399719238281 -209.2220001220703,-102.177001953125 -208.91000366210938,-102.73899841308594 C-208.59800720214844,-103.3010025024414 -208.89500427246094,-103.36399841308594 -208.83299255371094,-103.9260025024414 C-208.8159942626953,-104.24299621582031 -208.8419952392578,-104.45099639892578 -209.5919952392578,-104.57599639892578z"></path></g></g><g style="display: block;" transform="matrix(0.8820000290870667,0,0,0.8820000290870667,89.78707122802734,176.21124267578125)" opacity="1"><g opacity="1" transform="matrix(1,0,0,1,0,0)"><path fill="rgb(255,255,255)" fill-opacity="1" d=" M102.25,-14.5 C101.25,-15 99.5,-11.75 98.5,-10.5 C97.5,-9.25 96,-3.25 96,0.25 C96,3.75 99.25,3.25 101.5,3.5 C103.75,3.75 104.5,8.5 103.75,11 C103,13.5 107.75,10.75 110,7 C110.9280014038086,5.453999996185303 108.5,3.5 108.75,-3 C108.81999969482422,-4.818999767303467 108.25,-6.25 106,-5.25 C103.75,-4.25 102,-1 102.5,-3.25 C103,-5.5 107,-7 106.25,-9.5 C105.5,-12 103.25,-14 102.25,-14.5z"></path></g></g><g style="display: block;" transform="matrix(-0.571531355381012,-0.18262502551078796,0.18262502551078796,-0.571531355381012,360.3389892578125,277.2930603027344)" opacity="1"><g opacity="1" transform="matrix(1,0,0,1,0,0)"><path fill="rgb(255,255,255)" fill-opacity="1" d=" M132,-114 C129.75,-116.25 126,-110.5 124,-107.75 C122,-105 123,-103 120,-95.5 C117,-88 119.25,-86 123,-86.25 C126.75,-86.5 132.25,-92.5 132.5,-96.75 C132.75,-101 134.25,-111.75 132,-114z"></path></g></g><g style="display: block;" transform="matrix(-0.5311451554298401,-0.2790786027908325,0.2790786027908325,-0.5311451554298401,251.08985900878906,298.15673828125)" opacity="1"><g opacity="1" transform="matrix(1,0,0,1,0,0)"><path fill="rgb(112,255,129)" fill-opacity="1" d=" M39,-66.5 C28.351999282836914,-72.23300170898438 31.5,-64.5 32,-61.5 C32.5,-58.5 32.5,-51.5 35.5,-51.5 C38.5,-51.5 45.5,-51.5 47,-53 C48.5,-54.5 45.5,-63 39,-66.5z"></path></g></g><g style="display: block;" transform="matrix(0.09225846827030182,-0.34797757863998413,0.34797757863998413,0.09225846827030182,366.0967712402344,320.0909118652344)" opacity="1"><g opacity="1" transform="matrix(1,0,0,1,0,0)"><path fill="rgb(112,255,129)" fill-opacity="1" d=" M39,-66.5 C28.351999282836914,-72.23300170898438 31.5,-64.5 32,-61.5 C32.5,-58.5 32.5,-51.5 35.5,-51.5 C38.5,-51.5 45.5,-51.5 47,-53 C48.5,-54.5 45.5,-63 39,-66.5z"></path></g></g><g style="display: block;" transform="matrix(0.6000000238418579,0,0,0.6000000238418579,25.491466522216797,324.81439208984375)" opacity="1"><g opacity="1" transform="matrix(1,0,0,1,226.0279998779297,-88.72200012207031)"><path fill="rgb(112,255,129)" fill-opacity="1" d=" M0,-9.050000190734863 C4.99469518661499,-9.050000190734863 9.050000190734863,-4.99469518661499 9.050000190734863,0 C9.050000190734863,4.99469518661499 4.99469518661499,9.050000190734863 0,9.050000190734863 C-4.99469518661499,9.050000190734863 -9.050000190734863,4.99469518661499 -9.050000190734863,0 C-9.050000190734863,-4.99469518661499 -4.99469518661499,-9.050000190734863 0,-9.050000190734863z"></path></g></g><g style="display: block;" transform="matrix(-0.5923279523849487,-0.09564326703548431,0.09564326703548431,-0.5923279523849487,78.7987060546875,206.18792724609375)" opacity="1"><g opacity="1" transform="matrix(1,0,0,1,-209.75,-80.25)"><path fill="rgb(255,255,255)" fill-opacity="1" d=" M4.621204766542977e-16,-7.546999931335449 C4.621204766542977e-16,-7.546999931335449 2.2177138328552246,-3.0524210929870605 2.2177138328552246,-3.0524210929870605 C2.2177138328552246,-3.0524210929870605 7.177623748779297,-2.332151174545288 7.177623748779297,-2.332151174545288 C7.177623748779297,-2.332151174545288 3.588336229324341,1.1659210920333862 3.588336229324341,1.1659210920333862 C3.588336229324341,1.1659210920333862 4.4360151290893555,6.105651378631592 4.4360151290893555,6.105651378631592 C4.4360151290893555,6.105651378631592 2.310296127921497e-16,3.7730000019073486 2.310296127921497e-16,3.7730000019073486 C2.310296127921497e-16,3.7730000019073486 -4.4360151290893555,6.105651378631592 -4.4360151290893555,6.105651378631592 C-4.4360151290893555,6.105651378631592 -3.588336229324341,1.1659210920333862 -3.588336229324341,1.1659210920333862 C-3.588336229324341,1.1659210920333862 -7.177623748779297,-2.332151174545288 -7.177623748779297,-2.332151174545288 C-7.177623748779297,-2.332151174545288 -2.2177138328552246,-3.0524210929870605 -2.2177138328552246,-3.0524210929870605 C-2.2177138328552246,-3.0524210929870605 4.621204766542977e-16,-7.546999931335449 4.621204766542977e-16,-7.546999931335449z"></path></g></g><g style="display: block;" transform="matrix(-0.542655885219574,0.2559777796268463,-0.2559777796268463,-0.542655885219574,188.96792602539062,252.18209838867188)" opacity="1"><g opacity="1" transform="matrix(1,0,0,1,-209.75,-80.25)"><path fill="rgb(112,255,129)" fill-opacity="1" d=" M4.621204766542977e-16,-7.546999931335449 C4.621204766542977e-16,-7.546999931335449 2.2177138328552246,-3.0524210929870605 2.2177138328552246,-3.0524210929870605 C2.2177138328552246,-3.0524210929870605 7.177623748779297,-2.332151174545288 7.177623748779297,-2.332151174545288 C7.177623748779297,-2.332151174545288 3.588336229324341,1.1659210920333862 3.588336229324341,1.1659210920333862 C3.588336229324341,1.1659210920333862 4.4360151290893555,6.105651378631592 4.4360151290893555,6.105651378631592 C4.4360151290893555,6.105651378631592 2.310296127921497e-16,3.7730000019073486 2.310296127921497e-16,3.7730000019073486 C2.310296127921497e-16,3.7730000019073486 -4.4360151290893555,6.105651378631592 -4.4360151290893555,6.105651378631592 C-4.4360151290893555,6.105651378631592 -3.588336229324341,1.1659210920333862 -3.588336229324341,1.1659210920333862 C-3.588336229324341,1.1659210920333862 -7.177623748779297,-2.332151174545288 -7.177623748779297,-2.332151174545288 C-7.177623748779297,-2.332151174545288 -2.2177138328552246,-3.0524210929870605 -2.2177138328552246,-3.0524210929870605 C-2.2177138328552246,-3.0524210929870605 4.621204766542977e-16,-7.546999931335449 4.621204766542977e-16,-7.546999931335449z"></path></g></g><g style="display: block;" transform="matrix(-0.1255069524049759,-0.5867265462875366,0.5867265462875366,-0.1255069524049759,220.2124786376953,114.15033721923828)" opacity="1"><g opacity="1" transform="matrix(1.4800000190734863,0,0,1.4800000190734863,-209.75,-80.25)"><path fill="rgb(255,255,255)" fill-opacity="1" d=" M4.621204766542977e-16,-7.546999931335449 C4.621204766542977e-16,-7.546999931335449 1.8865000009536743,-3.2675137519836426 1.8865000009536743,-3.2675137519836426 C1.8865000009536743,-3.2675137519836426 6.53589391708374,-3.7734999656677246 6.53589391708374,-3.7734999656677246 C6.53589391708374,-3.7734999656677246 3.7730000019073486,-8.377742948056596e-16 3.7730000019073486,-8.377742948056596e-16 C3.7730000019073486,-8.377742948056596e-16 6.53589391708374,3.7734999656677246 6.53589391708374,3.7734999656677246 C6.53589391708374,3.7734999656677246 1.8865000009536743,3.2675137519836426 1.8865000009536743,3.2675137519836426 C1.8865000009536743,3.2675137519836426 3.813661659959975e-15,7.546999931335449 3.813661659959975e-15,7.546999931335449 C3.813661659959975e-15,7.546999931335449 -1.8865000009536743,3.2675137519836426 -1.8865000009536743,3.2675137519836426 C-1.8865000009536743,3.2675137519836426 -6.53589391708374,3.7734999656677246 -6.53589391708374,3.7734999656677246 C-6.53589391708374,3.7734999656677246 -3.7730000019073486,3.813156404806938e-15 -3.7730000019073486,3.813156404806938e-15 C-3.7730000019073486,3.813156404806938e-15 -6.53589391708374,-3.7734999656677246 -6.53589391708374,-3.7734999656677246 C-6.53589391708374,-3.7734999656677246 -1.8865000009536743,-3.2675137519836426 -1.8865000009536743,-3.2675137519836426 C-1.8865000009536743,-3.2675137519836426 4.621204766542977e-16,-7.546999931335449 4.621204766542977e-16,-7.546999931335449z"></path></g></g><g style="display: block;" transform="matrix(0.24848903715610504,-0.5461256504058838,0.5461256504058838,0.24848903715610504,406.0046691894531,184.66183471679688)" opacity="1"><g opacity="1" transform="matrix(1.4800000190734863,0,0,1.4800000190734863,-209.75,-80.25)"><path fill="rgb(112,255,129)" fill-opacity="1" d=" M4.621204766542977e-16,-7.546999931335449 C4.621204766542977e-16,-7.546999931335449 1.8865000009536743,-3.2675137519836426 1.8865000009536743,-3.2675137519836426 C1.8865000009536743,-3.2675137519836426 6.53589391708374,-3.7734999656677246 6.53589391708374,-3.7734999656677246 C6.53589391708374,-3.7734999656677246 3.7730000019073486,-8.377742948056596e-16 3.7730000019073486,-8.377742948056596e-16 C3.7730000019073486,-8.377742948056596e-16 6.53589391708374,3.7734999656677246 6.53589391708374,3.7734999656677246 C6.53589391708374,3.7734999656677246 1.8865000009536743,3.2675137519836426 1.8865000009536743,3.2675137519836426 C1.8865000009536743,3.2675137519836426 3.813661659959975e-15,7.546999931335449 3.813661659959975e-15,7.546999931335449 C3.813661659959975e-15,7.546999931335449 -1.8865000009536743,3.2675137519836426 -1.8865000009536743,3.2675137519836426 C-1.8865000009536743,3.2675137519836426 -6.53589391708374,3.7734999656677246 -6.53589391708374,3.7734999656677246 C-6.53589391708374,3.7734999656677246 -3.7730000019073486,3.813156404806938e-15 -3.7730000019073486,3.813156404806938e-15 C-3.7730000019073486,3.813156404806938e-15 -6.53589391708374,-3.7734999656677246 -6.53589391708374,-3.7734999656677246 C-6.53589391708374,-3.7734999656677246 -1.8865000009536743,-3.2675137519836426 -1.8865000009536743,-3.2675137519836426 C-1.8865000009536743,-3.2675137519836426 4.621204766542977e-16,-7.546999931335449 4.621204766542977e-16,-7.546999931335449z"></path></g></g><g style="display: block;" transform="matrix(-0.9543692469596863,2.4228076934814453,-2.4228076934814453,-0.9543692469596863,24.915708541870117,703.3748168945312)" opacity="1"><g opacity="1" transform="matrix(1.090000033378601,0,0,1.090000033378601,0,0)"><path fill="rgb(255,255,255)" fill-opacity="1" d=" M-209.5,-105.25 C-210.25,-105.375 -210.31300354003906,-103.81199645996094 -210.68800354003906,-103.81199645996094 C-211.06300354003906,-103.81199645996094 -211.68699645996094,-103.18699645996094 -211.375,-102.81199645996094 C-211.06300354003906,-102.43699645996094 -210.25,-102 -209.81199645996094,-102.375 C-209.37399291992188,-102.75 -208.81199645996094,-102.3759994506836 -208.5,-102.93800354003906 C-208.18800354003906,-103.5 -208.75,-103.81300354003906 -208.68800354003906,-104.375 C-208.62600708007812,-104.93699645996094 -208.75,-105.125 -209.5,-105.25z"></path></g></g><g style="display: block;" transform="matrix(2.3788726329803467,-1.0591423511505127,1.0591423511505127,2.3788726329803467,765.7993774414062,298.9195861816406)" opacity="1"><g opacity="1" transform="matrix(1.090000033378601,0,0,1.090000033378601,0,0)"><path fill="rgb(255,255,255)" fill-opacity="1" d=" M-209.5919952392578,-104.57599639892578 C-210.3419952392578,-104.70099639892578 -210.81500244140625,-104.45600128173828 -211.0570068359375,-104.16899871826172 C-211.70799255371094,-103.39700317382812 -211.68699645996094,-103.18699645996094 -211.375,-102.81199645996094 C-211.06300354003906,-102.43699645996094 -210.78399658203125,-102.06600189208984 -210.38099670410156,-102.2300033569336 C-209.97799682617188,-102.39399719238281 -209.2220001220703,-102.177001953125 -208.91000366210938,-102.73899841308594 C-208.59800720214844,-103.3010025024414 -208.89500427246094,-103.36399841308594 -208.83299255371094,-103.9260025024414 C-208.8159942626953,-104.24299621582031 -208.8419952392578,-104.45099639892578 -209.5919952392578,-104.57599639892578z"></path></g></g><g style="display: block;" transform="matrix(0.6000000238418579,0,0,0.6000000238418579,191.69549560546875,296.43408203125)" opacity="1"><g opacity="1" transform="matrix(1,0,0,1,159.09300231933594,-46.43199920654297)"><path fill="rgb(255,255,255)" fill-opacity="1" d=" M0,-4.550000190734863 C2.5111451148986816,-4.550000190734863 4.550000190734863,-2.5111451148986816 4.550000190734863,0 C4.550000190734863,2.5111451148986816 2.5111451148986816,4.550000190734863 0,4.550000190734863 C-2.5111451148986816,4.550000190734863 -4.550000190734863,2.5111451148986816 -4.550000190734863,0 C-4.550000190734863,-2.5111451148986816 -2.5111451148986816,-4.550000190734863 0,-4.550000190734863z"></path></g></g><g style="display: block;" transform="matrix(0.5339008569717407,0.2737698256969452,-0.2737698256969452,0.5339008569717407,341.09716796875,349.6459655761719)" opacity="1"><g opacity="1" transform="matrix(1,0,0,1,-209.75,-80.25)"><path fill="rgb(112,255,129)" fill-opacity="1" d=" M4.621204766542977e-16,-7.546999931335449 C4.621204766542977e-16,-7.546999931335449 2.2177138328552246,-3.0524210929870605 2.2177138328552246,-3.0524210929870605 C2.2177138328552246,-3.0524210929870605 7.177623748779297,-2.332151174545288 7.177623748779297,-2.332151174545288 C7.177623748779297,-2.332151174545288 3.588336229324341,1.1659210920333862 3.588336229324341,1.1659210920333862 C3.588336229324341,1.1659210920333862 4.4360151290893555,6.105651378631592 4.4360151290893555,6.105651378631592 C4.4360151290893555,6.105651378631592 2.310296127921497e-16,3.7730000019073486 2.310296127921497e-16,3.7730000019073486 C2.310296127921497e-16,3.7730000019073486 -4.4360151290893555,6.105651378631592 -4.4360151290893555,6.105651378631592 C-4.4360151290893555,6.105651378631592 -3.588336229324341,1.1659210920333862 -3.588336229324341,1.1659210920333862 C-3.588336229324341,1.1659210920333862 -7.177623748779297,-2.332151174545288 -7.177623748779297,-2.332151174545288 C-7.177623748779297,-2.332151174545288 -2.2177138328552246,-3.0524210929870605 -2.2177138328552246,-3.0524210929870605 C-2.2177138328552246,-3.0524210929870605 4.621204766542977e-16,-7.546999931335449 4.621204766542977e-16,-7.546999931335449z"></path></g></g><g style="display: block;" transform="matrix(0.43800002336502075,0,0,0.43800002336502075,-134.5529327392578,285.1663513183594)" opacity="1"><g opacity="1" transform="matrix(1,0,0,1,226.0279998779297,-88.72200012207031)"><path fill="rgb(112,255,129)" fill-opacity="1" d=" M0,-9.050000190734863 C4.99469518661499,-9.050000190734863 9.050000190734863,-4.99469518661499 9.050000190734863,0 C9.050000190734863,4.99469518661499 4.99469518661499,9.050000190734863 0,9.050000190734863 C-4.99469518661499,9.050000190734863 -9.050000190734863,4.99469518661499 -9.050000190734863,0 C-9.050000190734863,-4.99469518661499 -4.99469518661499,-9.050000190734863 0,-9.050000190734863z"></path></g></g><g style="display: block;" transform="matrix(0.32137924432754517,0.5066708922386169,-0.5066708922386169,0.32137924432754517,35.9365348815918,400.2732849121094)" opacity="1"><g opacity="1" transform="matrix(1.4800000190734863,0,0,1.4800000190734863,-209.75,-80.25)"><path fill="rgb(112,255,129)" fill-opacity="1" d=" M4.621204766542977e-16,-7.546999931335449 C4.621204766542977e-16,-7.546999931335449 1.8865000009536743,-3.2675137519836426 1.8865000009536743,-3.2675137519836426 C1.8865000009536743,-3.2675137519836426 6.53589391708374,-3.7734999656677246 6.53589391708374,-3.7734999656677246 C6.53589391708374,-3.7734999656677246 3.7730000019073486,-8.377742948056596e-16 3.7730000019073486,-8.377742948056596e-16 C3.7730000019073486,-8.377742948056596e-16 6.53589391708374,3.7734999656677246 6.53589391708374,3.7734999656677246 C6.53589391708374,3.7734999656677246 1.8865000009536743,3.2675137519836426 1.8865000009536743,3.2675137519836426 C1.8865000009536743,3.2675137519836426 3.813661659959975e-15,7.546999931335449 3.813661659959975e-15,7.546999931335449 C3.813661659959975e-15,7.546999931335449 -1.8865000009536743,3.2675137519836426 -1.8865000009536743,3.2675137519836426 C-1.8865000009536743,3.2675137519836426 -6.53589391708374,3.7734999656677246 -6.53589391708374,3.7734999656677246 C-6.53589391708374,3.7734999656677246 -3.7730000019073486,3.813156404806938e-15 -3.7730000019073486,3.813156404806938e-15 C-3.7730000019073486,3.813156404806938e-15 -6.53589391708374,-3.7734999656677246 -6.53589391708374,-3.7734999656677246 C-6.53589391708374,-3.7734999656677246 -1.8865000009536743,-3.2675137519836426 -1.8865000009536743,-3.2675137519836426 C-1.8865000009536743,-3.2675137519836426 4.621204766542977e-16,-7.546999931335449 4.621204766542977e-16,-7.546999931335449z"></path></g></g><g style="display: block;" transform="matrix(-0.8147668838500977,-0.33775585889816284,0.33775585889816284,-0.8147668838500977,112.88313293457031,316.3701477050781)" opacity="1"><g opacity="1" transform="matrix(1,0,0,1,0,0)"><path fill="rgb(255,255,255)" fill-opacity="1" d=" M102.25,-14.5 C101.25,-15 99.5,-11.75 98.5,-10.5 C97.5,-9.25 96,-3.25 96,0.25 C96,3.75 99.25,3.25 101.5,3.5 C103.75,3.75 104.5,8.5 103.75,11 C103,13.5 107.75,10.75 110,7 C110.9280014038086,5.453999996185303 108.5,3.5 108.75,-3 C108.81999969482422,-4.818999767303467 108.25,-6.25 106,-5.25 C103.75,-4.25 102,-1 102.5,-3.25 C103,-5.5 107,-7 106.25,-9.5 C105.5,-12 103.25,-14 102.25,-14.5z"></path></g></g><g style="display: block;" transform="matrix(-0.5733324885368347,0.176889568567276,-0.176889568567276,-0.5733324885368347,477.1657409667969,194.495361328125)" opacity="1"><g opacity="1" transform="matrix(1,0,0,1,0,0)"><path fill="rgb(255,255,255)" fill-opacity="1" d=" M132,-114 C129.75,-116.25 126,-110.5 124,-107.75 C122,-105 123,-103 120,-95.5 C117,-88 119.25,-86 123,-86.25 C126.75,-86.5 132.25,-92.5 132.5,-96.75 C132.75,-101 134.25,-111.75 132,-114z"></path></g></g><g style="display: block;" transform="matrix(-0.13611306250095367,-0.8714340925216675,0.8714340925216675,-0.13611306250095367,444.8349304199219,365.02874755859375)" opacity="1"><g opacity="1" transform="matrix(1,0,0,1,0,0)"><path fill="rgb(112,255,129)" fill-opacity="1" d=" M102.25,-14.5 C101.25,-15 99.5,-11.75 98.5,-10.5 C97.5,-9.25 96,-3.25 96,0.25 C96,3.75 99.25,3.25 101.5,3.5 C103.75,3.75 104.5,8.5 103.75,11 C103,13.5 107.75,10.75 110,7 C110.9280014038086,5.453999996185303 108.5,3.5 108.75,-3 C108.81999969482422,-4.818999767303467 108.25,-6.25 106,-5.25 C103.75,-4.25 102,-1 102.5,-3.25 C103,-5.5 107,-7 106.25,-9.5 C105.5,-12 103.25,-14 102.25,-14.5z"></path></g></g><g style="display: block;" transform="matrix(-0.06271708011627197,-0.5967131853103638,0.5967131853103638,-0.06271708011627197,430.4647521972656,119.87811279296875)" opacity="1"><g opacity="1" transform="matrix(1,0,0,1,-209.75,-80.25)"><path fill="rgb(255,255,255)" fill-opacity="1" d=" M4.621204766542977e-16,-7.546999931335449 C4.621204766542977e-16,-7.546999931335449 2.2177138328552246,-3.0524210929870605 2.2177138328552246,-3.0524210929870605 C2.2177138328552246,-3.0524210929870605 7.177623748779297,-2.332151174545288 7.177623748779297,-2.332151174545288 C7.177623748779297,-2.332151174545288 3.588336229324341,1.1659210920333862 3.588336229324341,1.1659210920333862 C3.588336229324341,1.1659210920333862 4.4360151290893555,6.105651378631592 4.4360151290893555,6.105651378631592 C4.4360151290893555,6.105651378631592 2.310296127921497e-16,3.7730000019073486 2.310296127921497e-16,3.7730000019073486 C2.310296127921497e-16,3.7730000019073486 -4.4360151290893555,6.105651378631592 -4.4360151290893555,6.105651378631592 C-4.4360151290893555,6.105651378631592 -3.588336229324341,1.1659210920333862 -3.588336229324341,1.1659210920333862 C-3.588336229324341,1.1659210920333862 -7.177623748779297,-2.332151174545288 -7.177623748779297,-2.332151174545288 C-7.177623748779297,-2.332151174545288 -2.2177138328552246,-3.0524210929870605 -2.2177138328552246,-3.0524210929870605 C-2.2177138328552246,-3.0524210929870605 4.621204766542977e-16,-7.546999931335449 4.621204766542977e-16,-7.546999931335449z"></path></g></g><g style="display: block;" transform="matrix(0.6000000238418579,0,0,0.6000000238418579,-52.35597229003906,238.72946166992188)" opacity="1"><g opacity="1" transform="matrix(1,0,0,1,159.09300231933594,-46.43199920654297)"><path fill="rgb(255,255,255)" fill-opacity="1" d=" M0,-4.550000190734863 C2.5111451148986816,-4.550000190734863 4.550000190734863,-2.5111451148986816 4.550000190734863,0 C4.550000190734863,2.5111451148986816 2.5111451148986816,4.550000190734863 0,4.550000190734863 C-2.5111451148986816,4.550000190734863 -4.550000190734863,2.5111451148986816 -4.550000190734863,0 C-4.550000190734863,-2.5111451148986816 -2.5111451148986816,-4.550000190734863 0,-4.550000190734863z"></path></g></g><g style="display: block;" transform="matrix(0,-0.6000000238418579,0.6000000238418579,0,447.87664794921875,91.37175750732422)" opacity="1"><g opacity="1" transform="matrix(1,0,0,1,-209.75,-80.25)"><path fill="rgb(255,255,255)" fill-opacity="1" d=" M4.621204766542977e-16,-7.546999931335449 C4.621204766542977e-16,-7.546999931335449 2.2177138328552246,-3.0524210929870605 2.2177138328552246,-3.0524210929870605 C2.2177138328552246,-3.0524210929870605 7.177623748779297,-2.332151174545288 7.177623748779297,-2.332151174545288 C7.177623748779297,-2.332151174545288 3.588336229324341,1.1659210920333862 3.588336229324341,1.1659210920333862 C3.588336229324341,1.1659210920333862 4.4360151290893555,6.105651378631592 4.4360151290893555,6.105651378631592 C4.4360151290893555,6.105651378631592 2.310296127921497e-16,3.7730000019073486 2.310296127921497e-16,3.7730000019073486 C2.310296127921497e-16,3.7730000019073486 -4.4360151290893555,6.105651378631592 -4.4360151290893555,6.105651378631592 C-4.4360151290893555,6.105651378631592 -3.588336229324341,1.1659210920333862 -3.588336229324341,1.1659210920333862 C-3.588336229324341,1.1659210920333862 -7.177623748779297,-2.332151174545288 -7.177623748779297,-2.332151174545288 C-7.177623748779297,-2.332151174545288 -2.2177138328552246,-3.0524210929870605 -2.2177138328552246,-3.0524210929870605 C-2.2177138328552246,-3.0524210929870605 4.621204766542977e-16,-7.546999931335449 4.621204766542977e-16,-7.546999931335449z"></path></g></g><g style="display: none;" transform="matrix(0.908354640007019,0,0,0.908354640007019,295.19647216796875,2.7908782958984375)" opacity="0.040664285714335904"><g opacity="1" transform="matrix(1,0,0,1,-29.5,37.5)"><path fill="rgb(255,255,255)" fill-opacity="1" d=" M0,-23.106000900268555 C-12.76099967956543,-23.106000900268555 -23.106000900268555,-12.76099967956543 -23.106000900268555,0 C-23.106000900268555,12.76099967956543 -12.76099967956543,23.106000900268555 0,23.106000900268555 C12.76099967956543,23.106000900268555 23.106000900268555,12.76099967956543 23.106000900268555,0 C23.106000900268555,-12.76099967956543 12.76099967956543,-23.106000900268555 0,-23.106000900268555z"></path></g></g><g style="display: none;" transform="matrix(1.1039904356002808,0,0,1.1039904356002808,300.96771240234375,-4.447647571563721)" opacity="0.003237500000024056"><g opacity="1" transform="matrix(1,0,0,1,-29.5,37.5)"><path stroke-linecap="butt" stroke-linejoin="miter" fill-opacity="0" stroke-miterlimit="4" stroke="rgb(255,255,255)" stroke-opacity="1" stroke-width="4" d=" M0,-23.106000900268555 C-12.76099967956543,-23.106000900268555 -23.106000900268555,-12.76099967956543 -23.106000900268555,0 C-23.106000900268555,12.76099967956543 -12.76099967956543,23.106000900268555 0,23.106000900268555 C12.76099967956543,23.106000900268555 23.106000900268555,12.76099967956543 23.106000900268555,0 C23.106000900268555,-12.76099967956543 12.76099967956543,-23.106000900268555 0,-23.106000900268555z"></path></g></g><g style="display: none;" transform="matrix(2.550814151763916,-0.5236069560050964,0.5236069560050964,2.550814151763916,1137.1815185546875,602.39453125)" opacity="1"><g opacity="1" transform="matrix(1.090000033378601,0,0,1.090000033378601,0,0)"><path fill="rgb(112,255,129)" fill-opacity="1" d=" M-209.5,-105.25 C-210.25,-105.375 -210.31300354003906,-103.81199645996094 -210.68800354003906,-103.81199645996094 C-211.06300354003906,-103.81199645996094 -211.68699645996094,-103.18699645996094 -211.375,-102.81199645996094 C-211.06300354003906,-102.43699645996094 -210.25,-102 -209.81199645996094,-102.375 C-209.37399291992188,-102.75 -208.81199645996094,-102.3759994506836 -208.5,-102.93800354003906 C-208.18800354003906,-103.5 -208.75,-103.81300354003906 -208.68800354003906,-104.375 C-208.62600708007812,-104.93699645996094 -208.75,-105.125 -209.5,-105.25z"></path></g></g><g style="display: none;" transform="matrix(2.6040000915527344,0,0,2.6040000915527344,1241.3603515625,706.5197143554688)" opacity="1"><g opacity="1" transform="matrix(1.090000033378601,0,0,1.090000033378601,0,0)"><path fill="rgb(112,255,129)" fill-opacity="1" d=" M-209.5919952392578,-104.57599639892578 C-210.3419952392578,-104.70099639892578 -210.81500244140625,-104.45600128173828 -211.0570068359375,-104.16899871826172 C-211.70799255371094,-103.39700317382812 -211.68699645996094,-103.18699645996094 -211.375,-102.81199645996094 C-211.06300354003906,-102.43699645996094 -210.78399658203125,-102.06600189208984 -210.38099670410156,-102.2300033569336 C-209.97799682617188,-102.39399719238281 -209.2220001220703,-102.177001953125 -208.91000366210938,-102.73899841308594 C-208.59800720214844,-103.3010025024414 -208.89500427246094,-103.36399841308594 -208.83299255371094,-103.9260025024414 C-208.8159942626953,-104.24299621582031 -208.8419952392578,-104.45099639892578 -209.5919952392578,-104.57599639892578z"></path></g></g><g style="display: none;" transform="matrix(0.8820000290870667,0,0,0.8820000290870667,346.260498046875,371.34307861328125)" opacity="1"><g opacity="1" transform="matrix(1,0,0,1,0,0)"><path fill="rgb(255,255,255)" fill-opacity="1" d=" M102.25,-14.5 C101.25,-15 99.5,-11.75 98.5,-10.5 C97.5,-9.25 96,-3.25 96,0.25 C96,3.75 99.25,3.25 101.5,3.5 C103.75,3.75 104.5,8.5 103.75,11 C103,13.5 107.75,10.75 110,7 C110.9280014038086,5.453999996185303 108.5,3.5 108.75,-3 C108.81999969482422,-4.818999767303467 108.25,-6.25 106,-5.25 C103.75,-4.25 102,-1 102.5,-3.25 C103,-5.5 107,-7 106.25,-9.5 C105.5,-12 103.25,-14 102.25,-14.5z"></path></g></g><g style="display: none;" transform="matrix(-0.08886171132326126,-0.5933831930160522,0.5933831930160522,-0.08886171132326126,607.546875,470.79681396484375)" opacity="1"><g opacity="1" transform="matrix(1,0,0,1,0,0)"><path fill="rgb(255,255,255)" fill-opacity="1" d=" M132,-114 C129.75,-116.25 126,-110.5 124,-107.75 C122,-105 123,-103 120,-95.5 C117,-88 119.25,-86 123,-86.25 C126.75,-86.5 132.25,-92.5 132.5,-96.75 C132.75,-101 134.25,-111.75 132,-114z"></path></g></g><g style="display: none;" transform="matrix(0.10418891161680222,-0.5908846855163574,0.5908846855163574,0.10418891161680222,501.6509094238281,487.8962097167969)" opacity="1"><g opacity="1" transform="matrix(1,0,0,1,0,0)"><path fill="rgb(112,255,129)" fill-opacity="1" d=" M39,-66.5 C28.351999282836914,-72.23300170898438 31.5,-64.5 32,-61.5 C32.5,-58.5 32.5,-51.5 35.5,-51.5 C38.5,-51.5 45.5,-51.5 47,-53 C48.5,-54.5 45.5,-63 39,-66.5z"></path></g></g><g style="display: none;" transform="matrix(0.35731664299964905,-0.04387296736240387,0.04387296736240387,0.35731664299964905,615.6318359375,451.7707824707031)" opacity="1"><g opacity="1" transform="matrix(1,0,0,1,0,0)"><path fill="rgb(112,255,129)" fill-opacity="1" d=" M39,-66.5 C28.351999282836914,-72.23300170898438 31.5,-64.5 32,-61.5 C32.5,-58.5 32.5,-51.5 35.5,-51.5 C38.5,-51.5 45.5,-51.5 47,-53 C48.5,-54.5 45.5,-63 39,-66.5z"></path></g></g><g style="display: none;" transform="matrix(0.6000000238418579,0,0,0.6000000238418579,286.58319091796875,476.23321533203125)" opacity="1"><g opacity="1" transform="matrix(1,0,0,1,226.0279998779297,-88.72200012207031)"><path fill="rgb(112,255,129)" fill-opacity="1" d=" M0,-9.050000190734863 C4.99469518661499,-9.050000190734863 9.050000190734863,-4.99469518661499 9.050000190734863,0 C9.050000190734863,4.99469518661499 4.99469518661499,9.050000190734863 0,9.050000190734863 C-4.99469518661499,9.050000190734863 -9.050000190734863,4.99469518661499 -9.050000190734863,0 C-9.050000190734863,-4.99469518661499 -4.99469518661499,-9.050000190734863 0,-9.050000190734863z"></path></g></g><g style="display: none;" transform="matrix(-0.15529143810272217,-0.5795555114746094,0.5795555114746094,-0.15529143810272217,461.1548156738281,304.4641418457031)" opacity="1"><g opacity="1" transform="matrix(1,0,0,1,-209.75,-80.25)"><path fill="rgb(255,255,255)" fill-opacity="1" d=" M4.621204766542977e-16,-7.546999931335449 C4.621204766542977e-16,-7.546999931335449 2.2177138328552246,-3.0524210929870605 2.2177138328552246,-3.0524210929870605 C2.2177138328552246,-3.0524210929870605 7.177623748779297,-2.332151174545288 7.177623748779297,-2.332151174545288 C7.177623748779297,-2.332151174545288 3.588336229324341,1.1659210920333862 3.588336229324341,1.1659210920333862 C3.588336229324341,1.1659210920333862 4.4360151290893555,6.105651378631592 4.4360151290893555,6.105651378631592 C4.4360151290893555,6.105651378631592 2.310296127921497e-16,3.7730000019073486 2.310296127921497e-16,3.7730000019073486 C2.310296127921497e-16,3.7730000019073486 -4.4360151290893555,6.105651378631592 -4.4360151290893555,6.105651378631592 C-4.4360151290893555,6.105651378631592 -3.588336229324341,1.1659210920333862 -3.588336229324341,1.1659210920333862 C-3.588336229324341,1.1659210920333862 -7.177623748779297,-2.332151174545288 -7.177623748779297,-2.332151174545288 C-7.177623748779297,-2.332151174545288 -2.2177138328552246,-3.0524210929870605 -2.2177138328552246,-3.0524210929870605 C-2.2177138328552246,-3.0524210929870605 4.621204766542977e-16,-7.546999931335449 4.621204766542977e-16,-7.546999931335449z"></path></g></g><g style="display: none;" transform="matrix(-0.28168296813964844,-0.5297685861587524,0.5297685861587524,-0.28168296813964844,585.0309448242188,273.6759948730469)" opacity="1"><g opacity="1" transform="matrix(1,0,0,1,-209.75,-80.25)"><path fill="rgb(112,255,129)" fill-opacity="1" d=" M4.621204766542977e-16,-7.546999931335449 C4.621204766542977e-16,-7.546999931335449 2.2177138328552246,-3.0524210929870605 2.2177138328552246,-3.0524210929870605 C2.2177138328552246,-3.0524210929870605 7.177623748779297,-2.332151174545288 7.177623748779297,-2.332151174545288 C7.177623748779297,-2.332151174545288 3.588336229324341,1.1659210920333862 3.588336229324341,1.1659210920333862 C3.588336229324341,1.1659210920333862 4.4360151290893555,6.105651378631592 4.4360151290893555,6.105651378631592 C4.4360151290893555,6.105651378631592 2.310296127921497e-16,3.7730000019073486 2.310296127921497e-16,3.7730000019073486 C2.310296127921497e-16,3.7730000019073486 -4.4360151290893555,6.105651378631592 -4.4360151290893555,6.105651378631592 C-4.4360151290893555,6.105651378631592 -3.588336229324341,1.1659210920333862 -3.588336229324341,1.1659210920333862 C-3.588336229324341,1.1659210920333862 -7.177623748779297,-2.332151174545288 -7.177623748779297,-2.332151174545288 C-7.177623748779297,-2.332151174545288 -2.2177138328552246,-3.0524210929870605 -2.2177138328552246,-3.0524210929870605 C-2.2177138328552246,-3.0524210929870605 4.621204766542977e-16,-7.546999931335449 4.621204766542977e-16,-7.546999931335449z"></path></g></g><g style="display: none;" transform="matrix(0.5657001733779907,-0.19995833933353424,0.19995833933353424,0.5657001733779907,591.7022705078125,407.2561950683594)" opacity="1"><g opacity="1" transform="matrix(1.4800000190734863,0,0,1.4800000190734863,-209.75,-80.25)"><path fill="rgb(255,255,255)" fill-opacity="1" d=" M4.621204766542977e-16,-7.546999931335449 C4.621204766542977e-16,-7.546999931335449 1.8865000009536743,-3.2675137519836426 1.8865000009536743,-3.2675137519836426 C1.8865000009536743,-3.2675137519836426 6.53589391708374,-3.7734999656677246 6.53589391708374,-3.7734999656677246 C6.53589391708374,-3.7734999656677246 3.7730000019073486,-8.377742948056596e-16 3.7730000019073486,-8.377742948056596e-16 C3.7730000019073486,-8.377742948056596e-16 6.53589391708374,3.7734999656677246 6.53589391708374,3.7734999656677246 C6.53589391708374,3.7734999656677246 1.8865000009536743,3.2675137519836426 1.8865000009536743,3.2675137519836426 C1.8865000009536743,3.2675137519836426 3.813661659959975e-15,7.546999931335449 3.813661659959975e-15,7.546999931335449 C3.813661659959975e-15,7.546999931335449 -1.8865000009536743,3.2675137519836426 -1.8865000009536743,3.2675137519836426 C-1.8865000009536743,3.2675137519836426 -6.53589391708374,3.7734999656677246 -6.53589391708374,3.7734999656677246 C-6.53589391708374,3.7734999656677246 -3.7730000019073486,3.813156404806938e-15 -3.7730000019073486,3.813156404806938e-15 C-3.7730000019073486,3.813156404806938e-15 -6.53589391708374,-3.7734999656677246 -6.53589391708374,-3.7734999656677246 C-6.53589391708374,-3.7734999656677246 -1.8865000009536743,-3.2675137519836426 -1.8865000009536743,-3.2675137519836426 C-1.8865000009536743,-3.2675137519836426 4.621204766542977e-16,-7.546999931335449 4.621204766542977e-16,-7.546999931335449z"></path></g></g><g style="display: none;" transform="matrix(0.5926130414009094,-0.0938606783747673,0.0938606783747673,0.5926130414009094,713.6328735351562,457.46990966796875)" opacity="1"><g opacity="1" transform="matrix(1.4800000190734863,0,0,1.4800000190734863,-209.75,-80.25)"><path fill="rgb(112,255,129)" fill-opacity="1" d=" M4.621204766542977e-16,-7.546999931335449 C4.621204766542977e-16,-7.546999931335449 1.8865000009536743,-3.2675137519836426 1.8865000009536743,-3.2675137519836426 C1.8865000009536743,-3.2675137519836426 6.53589391708374,-3.7734999656677246 6.53589391708374,-3.7734999656677246 C6.53589391708374,-3.7734999656677246 3.7730000019073486,-8.377742948056596e-16 3.7730000019073486,-8.377742948056596e-16 C3.7730000019073486,-8.377742948056596e-16 6.53589391708374,3.7734999656677246 6.53589391708374,3.7734999656677246 C6.53589391708374,3.7734999656677246 1.8865000009536743,3.2675137519836426 1.8865000009536743,3.2675137519836426 C1.8865000009536743,3.2675137519836426 3.813661659959975e-15,7.546999931335449 3.813661659959975e-15,7.546999931335449 C3.813661659959975e-15,7.546999931335449 -1.8865000009536743,3.2675137519836426 -1.8865000009536743,3.2675137519836426 C-1.8865000009536743,3.2675137519836426 -6.53589391708374,3.7734999656677246 -6.53589391708374,3.7734999656677246 C-6.53589391708374,3.7734999656677246 -3.7730000019073486,3.813156404806938e-15 -3.7730000019073486,3.813156404806938e-15 C-3.7730000019073486,3.813156404806938e-15 -6.53589391708374,-3.7734999656677246 -6.53589391708374,-3.7734999656677246 C-6.53589391708374,-3.7734999656677246 -1.8865000009536743,-3.2675137519836426 -1.8865000009536743,-3.2675137519836426 C-1.8865000009536743,-3.2675137519836426 4.621204766542977e-16,-7.546999931335449 4.621204766542977e-16,-7.546999931335449z"></path></g></g><g style="display: none;" transform="matrix(-0.9543692469596863,2.4228076934814453,-2.4228076934814453,-0.9543692469596863,314.75946044921875,871.4651489257812)" opacity="1"><g opacity="1" transform="matrix(1.090000033378601,0,0,1.090000033378601,0,0)"><path fill="rgb(255,255,255)" fill-opacity="1" d=" M-209.5,-105.25 C-210.25,-105.375 -210.31300354003906,-103.81199645996094 -210.68800354003906,-103.81199645996094 C-211.06300354003906,-103.81199645996094 -211.68699645996094,-103.18699645996094 -211.375,-102.81199645996094 C-211.06300354003906,-102.43699645996094 -210.25,-102 -209.81199645996094,-102.375 C-209.37399291992188,-102.75 -208.81199645996094,-102.3759994506836 -208.5,-102.93800354003906 C-208.18800354003906,-103.5 -208.75,-103.81300354003906 -208.68800354003906,-104.375 C-208.62600708007812,-104.93699645996094 -208.75,-105.125 -209.5,-105.25z"></path></g></g><g style="display: none;" transform="matrix(2.3788726329803467,-1.0591423511505127,1.0591423511505127,2.3788726329803467,1034.79931640625,300.9195861816406)" opacity="1"><g opacity="1" transform="matrix(1.090000033378601,0,0,1.090000033378601,0,0)"><path fill="rgb(255,255,255)" fill-opacity="1" d=" M-209.5919952392578,-104.57599639892578 C-210.3419952392578,-104.70099639892578 -210.81500244140625,-104.45600128173828 -211.0570068359375,-104.16899871826172 C-211.70799255371094,-103.39700317382812 -211.68699645996094,-103.18699645996094 -211.375,-102.81199645996094 C-211.06300354003906,-102.43699645996094 -210.78399658203125,-102.06600189208984 -210.38099670410156,-102.2300033569336 C-209.97799682617188,-102.39399719238281 -209.2220001220703,-102.177001953125 -208.91000366210938,-102.73899841308594 C-208.59800720214844,-103.3010025024414 -208.89500427246094,-103.36399841308594 -208.83299255371094,-103.9260025024414 C-208.8159942626953,-104.24299621582031 -208.8419952392578,-104.45099639892578 -209.5919952392578,-104.57599639892578z"></path></g></g><g style="display: none;" transform="matrix(0.6000000238418579,0,0,0.6000000238418579,461.7441711425781,462.8592224121094)" opacity="1"><g opacity="1" transform="matrix(1,0,0,1,159.09300231933594,-46.43199920654297)"><path fill="rgb(255,255,255)" fill-opacity="1" d=" M0,-4.550000190734863 C2.5111451148986816,-4.550000190734863 4.550000190734863,-2.5111451148986816 4.550000190734863,0 C4.550000190734863,2.5111451148986816 2.5111451148986816,4.550000190734863 0,4.550000190734863 C-2.5111451148986816,4.550000190734863 -4.550000190734863,2.5111451148986816 -4.550000190734863,0 C-4.550000190734863,-2.5111451148986816 -2.5111451148986816,-4.550000190734863 0,-4.550000190734863z"></path></g></g><g style="display: none;" transform="matrix(0.20521210134029388,0.5638155937194824,-0.5638155937194824,0.20521210134029388,515.2470092773438,554.278564453125)" opacity="1"><g opacity="1" transform="matrix(1,0,0,1,-209.75,-80.25)"><path fill="rgb(112,255,129)" fill-opacity="1" d=" M4.621204766542977e-16,-7.546999931335449 C4.621204766542977e-16,-7.546999931335449 2.2177138328552246,-3.0524210929870605 2.2177138328552246,-3.0524210929870605 C2.2177138328552246,-3.0524210929870605 7.177623748779297,-2.332151174545288 7.177623748779297,-2.332151174545288 C7.177623748779297,-2.332151174545288 3.588336229324341,1.1659210920333862 3.588336229324341,1.1659210920333862 C3.588336229324341,1.1659210920333862 4.4360151290893555,6.105651378631592 4.4360151290893555,6.105651378631592 C4.4360151290893555,6.105651378631592 2.310296127921497e-16,3.7730000019073486 2.310296127921497e-16,3.7730000019073486 C2.310296127921497e-16,3.7730000019073486 -4.4360151290893555,6.105651378631592 -4.4360151290893555,6.105651378631592 C-4.4360151290893555,6.105651378631592 -3.588336229324341,1.1659210920333862 -3.588336229324341,1.1659210920333862 C-3.588336229324341,1.1659210920333862 -7.177623748779297,-2.332151174545288 -7.177623748779297,-2.332151174545288 C-7.177623748779297,-2.332151174545288 -2.2177138328552246,-3.0524210929870605 -2.2177138328552246,-3.0524210929870605 C-2.2177138328552246,-3.0524210929870605 4.621204766542977e-16,-7.546999931335449 4.621204766542977e-16,-7.546999931335449z"></path></g></g><g style="display: none;" transform="matrix(0.43800002336502075,0,0,0.43800002336502075,80.19972229003906,455.8602600097656)" opacity="1"><g opacity="1" transform="matrix(1,0,0,1,226.0279998779297,-88.72200012207031)"><path fill="rgb(112,255,129)" fill-opacity="1" d=" M0,-9.050000190734863 C4.99469518661499,-9.050000190734863 9.050000190734863,-4.99469518661499 9.050000190734863,0 C9.050000190734863,4.99469518661499 4.99469518661499,9.050000190734863 0,9.050000190734863 C-4.99469518661499,9.050000190734863 -9.050000190734863,4.99469518661499 -9.050000190734863,0 C-9.050000190734863,-4.99469518661499 -4.99469518661499,-9.050000190734863 0,-9.050000190734863z"></path></g></g><g style="display: none;" transform="matrix(-0.5523029565811157,0.2344386875629425,-0.2344386875629425,-0.5523029565811157,70.94073486328125,402.6512145996094)" opacity="1"><g opacity="1" transform="matrix(1.4800000190734863,0,0,1.4800000190734863,-209.75,-80.25)"><path fill="rgb(112,255,129)" fill-opacity="1" d=" M4.621204766542977e-16,-7.546999931335449 C4.621204766542977e-16,-7.546999931335449 1.8865000009536743,-3.2675137519836426 1.8865000009536743,-3.2675137519836426 C1.8865000009536743,-3.2675137519836426 6.53589391708374,-3.7734999656677246 6.53589391708374,-3.7734999656677246 C6.53589391708374,-3.7734999656677246 3.7730000019073486,-8.377742948056596e-16 3.7730000019073486,-8.377742948056596e-16 C3.7730000019073486,-8.377742948056596e-16 6.53589391708374,3.7734999656677246 6.53589391708374,3.7734999656677246 C6.53589391708374,3.7734999656677246 1.8865000009536743,3.2675137519836426 1.8865000009536743,3.2675137519836426 C1.8865000009536743,3.2675137519836426 3.813661659959975e-15,7.546999931335449 3.813661659959975e-15,7.546999931335449 C3.813661659959975e-15,7.546999931335449 -1.8865000009536743,3.2675137519836426 -1.8865000009536743,3.2675137519836426 C-1.8865000009536743,3.2675137519836426 -6.53589391708374,3.7734999656677246 -6.53589391708374,3.7734999656677246 C-6.53589391708374,3.7734999656677246 -3.7730000019073486,3.813156404806938e-15 -3.7730000019073486,3.813156404806938e-15 C-3.7730000019073486,3.813156404806938e-15 -6.53589391708374,-3.7734999656677246 -6.53589391708374,-3.7734999656677246 C-6.53589391708374,-3.7734999656677246 -1.8865000009536743,-3.2675137519836426 -1.8865000009536743,-3.2675137519836426 C-1.8865000009536743,-3.2675137519836426 4.621204766542977e-16,-7.546999931335449 4.621204766542977e-16,-7.546999931335449z"></path></g></g><g style="display: none;" transform="matrix(-0.15189926326274872,-0.8688214421272278,0.8688214421272278,-0.15189926326274872,263.1877136230469,525.5838623046875)" opacity="1"><g opacity="1" transform="matrix(1,0,0,1,0,0)"><path fill="rgb(255,255,255)" fill-opacity="1" d=" M102.25,-14.5 C101.25,-15 99.5,-11.75 98.5,-10.5 C97.5,-9.25 96,-3.25 96,0.25 C96,3.75 99.25,3.25 101.5,3.5 C103.75,3.75 104.5,8.5 103.75,11 C103,13.5 107.75,10.75 110,7 C110.9280014038086,5.453999996185303 108.5,3.5 108.75,-3 C108.81999969482422,-4.818999767303467 108.25,-6.25 106,-5.25 C103.75,-4.25 102,-1 102.5,-3.25 C103,-5.5 107,-7 106.25,-9.5 C105.5,-12 103.25,-14 102.25,-14.5z"></path></g></g><g style="display: none;" transform="matrix(-0.4945765435695648,-0.3396970331668854,0.3396970331668854,-0.4945765435695648,804.77001953125,411.3323059082031)" opacity="1"><g opacity="1" transform="matrix(1,0,0,1,0,0)"><path fill="rgb(255,255,255)" fill-opacity="1" d=" M132,-114 C129.75,-116.25 126,-110.5 124,-107.75 C122,-105 123,-103 120,-95.5 C117,-88 119.25,-86 123,-86.25 C126.75,-86.5 132.25,-92.5 132.5,-96.75 C132.75,-101 134.25,-111.75 132,-114z"></path></g></g><g style="display: none;" transform="matrix(0.8238750100135803,-0.3148873746395111,0.3148873746395111,0.8238750100135803,615.461669921875,457.7345275878906)" opacity="1"><g opacity="1" transform="matrix(1,0,0,1,0,0)"><path fill="rgb(112,255,129)" fill-opacity="1" d=" M102.25,-14.5 C101.25,-15 99.5,-11.75 98.5,-10.5 C97.5,-9.25 96,-3.25 96,0.25 C96,3.75 99.25,3.25 101.5,3.5 C103.75,3.75 104.5,8.5 103.75,11 C103,13.5 107.75,10.75 110,7 C110.9280014038086,5.453999996185303 108.5,3.5 108.75,-3 C108.81999969482422,-4.818999767303467 108.25,-6.25 106,-5.25 C103.75,-4.25 102,-1 102.5,-3.25 C103,-5.5 107,-7 106.25,-9.5 C105.5,-12 103.25,-14 102.25,-14.5z"></path></g></g><g style="display: none;" transform="matrix(-0.06271708011627197,-0.5967131853103638,0.5967131853103638,-0.06271708011627197,710.7313232421875,217.2063751220703)" opacity="1"><g opacity="1" transform="matrix(1,0,0,1,-209.75,-80.25)"><path fill="rgb(255,255,255)" fill-opacity="1" d=" M4.621204766542977e-16,-7.546999931335449 C4.621204766542977e-16,-7.546999931335449 2.2177138328552246,-3.0524210929870605 2.2177138328552246,-3.0524210929870605 C2.2177138328552246,-3.0524210929870605 7.177623748779297,-2.332151174545288 7.177623748779297,-2.332151174545288 C7.177623748779297,-2.332151174545288 3.588336229324341,1.1659210920333862 3.588336229324341,1.1659210920333862 C3.588336229324341,1.1659210920333862 4.4360151290893555,6.105651378631592 4.4360151290893555,6.105651378631592 C4.4360151290893555,6.105651378631592 2.310296127921497e-16,3.7730000019073486 2.310296127921497e-16,3.7730000019073486 C2.310296127921497e-16,3.7730000019073486 -4.4360151290893555,6.105651378631592 -4.4360151290893555,6.105651378631592 C-4.4360151290893555,6.105651378631592 -3.588336229324341,1.1659210920333862 -3.588336229324341,1.1659210920333862 C-3.588336229324341,1.1659210920333862 -7.177623748779297,-2.332151174545288 -7.177623748779297,-2.332151174545288 C-7.177623748779297,-2.332151174545288 -2.2177138328552246,-3.0524210929870605 -2.2177138328552246,-3.0524210929870605 C-2.2177138328552246,-3.0524210929870605 4.621204766542977e-16,-7.546999931335449 4.621204766542977e-16,-7.546999931335449z"></path></g></g><g style="display: none;" transform="matrix(0.6000000238418579,0,0,0.6000000238418579,174.9441680908203,386.0592041015625)" opacity="1"><g opacity="1" transform="matrix(1,0,0,1,159.09300231933594,-46.43199920654297)"><path fill="rgb(255,255,255)" fill-opacity="1" d=" M0,-4.550000190734863 C2.5111451148986816,-4.550000190734863 4.550000190734863,-2.5111451148986816 4.550000190734863,0 C4.550000190734863,2.5111451148986816 2.5111451148986816,4.550000190734863 0,4.550000190734863 C-2.5111451148986816,4.550000190734863 -4.550000190734863,2.5111451148986816 -4.550000190734863,0 C-4.550000190734863,-2.5111451148986816 -2.5111451148986816,-4.550000190734863 0,-4.550000190734863z"></path></g></g><g style="display: none;" transform="matrix(0,-0.6000000238418579,0.6000000238418579,0,734.9500122070312,193.9499969482422)" opacity="1"><g opacity="1" transform="matrix(1,0,0,1,-209.75,-80.25)"><path fill="rgb(255,255,255)" fill-opacity="1" d=" M4.621204766542977e-16,-7.546999931335449 C4.621204766542977e-16,-7.546999931335449 2.2177138328552246,-3.0524210929870605 2.2177138328552246,-3.0524210929870605 C2.2177138328552246,-3.0524210929870605 7.177623748779297,-2.332151174545288 7.177623748779297,-2.332151174545288 C7.177623748779297,-2.332151174545288 3.588336229324341,1.1659210920333862 3.588336229324341,1.1659210920333862 C3.588336229324341,1.1659210920333862 4.4360151290893555,6.105651378631592 4.4360151290893555,6.105651378631592 C4.4360151290893555,6.105651378631592 2.310296127921497e-16,3.7730000019073486 2.310296127921497e-16,3.7730000019073486 C2.310296127921497e-16,3.7730000019073486 -4.4360151290893555,6.105651378631592 -4.4360151290893555,6.105651378631592 C-4.4360151290893555,6.105651378631592 -3.588336229324341,1.1659210920333862 -3.588336229324341,1.1659210920333862 C-3.588336229324341,1.1659210920333862 -7.177623748779297,-2.332151174545288 -7.177623748779297,-2.332151174545288 C-7.177623748779297,-2.332151174545288 -2.2177138328552246,-3.0524210929870605 -2.2177138328552246,-3.0524210929870605 C-2.2177138328552246,-3.0524210929870605 4.621204766542977e-16,-7.546999931335449 4.621204766542977e-16,-7.546999931335449z"></path></g></g><g style="display: none;" transform="matrix(0.9057387709617615,0,0,0.9057387709617615,564.1192626953125,4.887667655944824)" opacity="0.04800714285716524"><g opacity="1" transform="matrix(1,0,0,1,-29.5,37.5)"><path fill="rgb(255,255,255)" fill-opacity="1" d=" M0,-23.106000900268555 C-12.76099967956543,-23.106000900268555 -23.106000900268555,-12.76099967956543 -23.106000900268555,0 C-23.106000900268555,12.76099967956543 -12.76099967956543,23.106000900268555 0,23.106000900268555 C12.76099967956543,23.106000900268555 23.106000900268555,12.76099967956543 23.106000900268555,0 C23.106000900268555,-12.76099967956543 12.76099967956543,-23.106000900268555 0,-23.106000900268555z"></path></g></g><g style="display: none;" transform="matrix(1.1027758121490479,0,0,1.1027758121490479,569.931884765625,-2.4027132987976074)" opacity="0.006995833333336919"><g opacity="1" transform="matrix(1,0,0,1,-29.5,37.5)"><path stroke-linecap="butt" stroke-linejoin="miter" fill-opacity="0" stroke-miterlimit="4" stroke="rgb(255,255,255)" stroke-opacity="1" stroke-width="4" d=" M0,-23.106000900268555 C-12.76099967956543,-23.106000900268555 -23.106000900268555,-12.76099967956543 -23.106000900268555,0 C-23.106000900268555,12.76099967956543 -12.76099967956543,23.106000900268555 0,23.106000900268555 C12.76099967956543,23.106000900268555 23.106000900268555,12.76099967956543 23.106000900268555,0 C23.106000900268555,-12.76099967956543 12.76099967956543,-23.106000900268555 0,-23.106000900268555z"></path></g></g><g style="display: none;" transform="matrix(2.550814151763916,-0.5236069560050964,0.5236069560050964,2.550814151763916,955.1814575195312,777.39453125)" opacity="1"><g opacity="1" transform="matrix(1.090000033378601,0,0,1.090000033378601,0,0)"><path fill="rgb(112,255,129)" fill-opacity="1" d=" M-209.5,-105.25 C-210.25,-105.375 -210.31300354003906,-103.81199645996094 -210.68800354003906,-103.81199645996094 C-211.06300354003906,-103.81199645996094 -211.68699645996094,-103.18699645996094 -211.375,-102.81199645996094 C-211.06300354003906,-102.43699645996094 -210.25,-102 -209.81199645996094,-102.375 C-209.37399291992188,-102.75 -208.81199645996094,-102.3759994506836 -208.5,-102.93800354003906 C-208.18800354003906,-103.5 -208.75,-103.81300354003906 -208.68800354003906,-104.375 C-208.62600708007812,-104.93699645996094 -208.75,-105.125 -209.5,-105.25z"></path></g></g><g style="display: none;" transform="matrix(2.6040000915527344,0,0,2.6040000915527344,1059.3603515625,881.5197143554688)" opacity="1"><g opacity="1" transform="matrix(1.090000033378601,0,0,1.090000033378601,0,0)"><path fill="rgb(112,255,129)" fill-opacity="1" d=" M-209.5919952392578,-104.57599639892578 C-210.3419952392578,-104.70099639892578 -210.81500244140625,-104.45600128173828 -211.0570068359375,-104.16899871826172 C-211.70799255371094,-103.39700317382812 -211.68699645996094,-103.18699645996094 -211.375,-102.81199645996094 C-211.06300354003906,-102.43699645996094 -210.78399658203125,-102.06600189208984 -210.38099670410156,-102.2300033569336 C-209.97799682617188,-102.39399719238281 -209.2220001220703,-102.177001953125 -208.91000366210938,-102.73899841308594 C-208.59800720214844,-103.3010025024414 -208.89500427246094,-103.36399841308594 -208.83299255371094,-103.9260025024414 C-208.8159942626953,-104.24299621582031 -208.8419952392578,-104.45099639892578 -209.5919952392578,-104.57599639892578z"></path></g></g><g style="display: none;" transform="matrix(0.8820000290870667,0,0,0.8820000290870667,164.260498046875,546.3430786132812)" opacity="1"><g opacity="1" transform="matrix(1,0,0,1,0,0)"><path fill="rgb(255,255,255)" fill-opacity="1" d=" M102.25,-14.5 C101.25,-15 99.5,-11.75 98.5,-10.5 C97.5,-9.25 96,-3.25 96,0.25 C96,3.75 99.25,3.25 101.5,3.5 C103.75,3.75 104.5,8.5 103.75,11 C103,13.5 107.75,10.75 110,7 C110.9280014038086,5.453999996185303 108.5,3.5 108.75,-3 C108.81999969482422,-4.818999767303467 108.25,-6.25 106,-5.25 C103.75,-4.25 102,-1 102.5,-3.25 C103,-5.5 107,-7 106.25,-9.5 C105.5,-12 103.25,-14 102.25,-14.5z"></path></g></g><g style="display: none;" transform="matrix(-0.08886171132326126,-0.5933831930160522,0.5933831930160522,-0.08886171132326126,425.5469055175781,645.7968139648438)" opacity="1"><g opacity="1" transform="matrix(1,0,0,1,0,0)"><path fill="rgb(255,255,255)" fill-opacity="1" d=" M132,-114 C129.75,-116.25 126,-110.5 124,-107.75 C122,-105 123,-103 120,-95.5 C117,-88 119.25,-86 123,-86.25 C126.75,-86.5 132.25,-92.5 132.5,-96.75 C132.75,-101 134.25,-111.75 132,-114z"></path></g></g><g style="display: none;" transform="matrix(0.10418891161680222,-0.5908846855163574,0.5908846855163574,0.10418891161680222,319.6509094238281,662.896240234375)" opacity="1"><g opacity="1" transform="matrix(1,0,0,1,0,0)"><path fill="rgb(112,255,129)" fill-opacity="1" d=" M39,-66.5 C28.351999282836914,-72.23300170898438 31.5,-64.5 32,-61.5 C32.5,-58.5 32.5,-51.5 35.5,-51.5 C38.5,-51.5 45.5,-51.5 47,-53 C48.5,-54.5 45.5,-63 39,-66.5z"></path></g></g><g style="display: none;" transform="matrix(0.35731664299964905,-0.04387296736240387,0.04387296736240387,0.35731664299964905,433.6318054199219,626.7708129882812)" opacity="1"><g opacity="1" transform="matrix(1,0,0,1,0,0)"><path fill="rgb(112,255,129)" fill-opacity="1" d=" M39,-66.5 C28.351999282836914,-72.23300170898438 31.5,-64.5 32,-61.5 C32.5,-58.5 32.5,-51.5 35.5,-51.5 C38.5,-51.5 45.5,-51.5 47,-53 C48.5,-54.5 45.5,-63 39,-66.5z"></path></g></g><g style="display: none;" transform="matrix(0.6000000238418579,0,0,0.6000000238418579,104.58317565917969,651.2332153320312)" opacity="1"><g opacity="1" transform="matrix(1,0,0,1,226.0279998779297,-88.72200012207031)"><path fill="rgb(112,255,129)" fill-opacity="1" d=" M0,-9.050000190734863 C4.99469518661499,-9.050000190734863 9.050000190734863,-4.99469518661499 9.050000190734863,0 C9.050000190734863,4.99469518661499 4.99469518661499,9.050000190734863 0,9.050000190734863 C-4.99469518661499,9.050000190734863 -9.050000190734863,4.99469518661499 -9.050000190734863,0 C-9.050000190734863,-4.99469518661499 -4.99469518661499,-9.050000190734863 0,-9.050000190734863z"></path></g></g><g style="display: none;" transform="matrix(-0.15529143810272217,-0.5795555114746094,0.5795555114746094,-0.15529143810272217,279.1548156738281,479.4641418457031)" opacity="1"><g opacity="1" transform="matrix(1,0,0,1,-209.75,-80.25)"><path fill="rgb(255,255,255)" fill-opacity="1" d=" M4.621204766542977e-16,-7.546999931335449 C4.621204766542977e-16,-7.546999931335449 2.2177138328552246,-3.0524210929870605 2.2177138328552246,-3.0524210929870605 C2.2177138328552246,-3.0524210929870605 7.177623748779297,-2.332151174545288 7.177623748779297,-2.332151174545288 C7.177623748779297,-2.332151174545288 3.588336229324341,1.1659210920333862 3.588336229324341,1.1659210920333862 C3.588336229324341,1.1659210920333862 4.4360151290893555,6.105651378631592 4.4360151290893555,6.105651378631592 C4.4360151290893555,6.105651378631592 2.310296127921497e-16,3.7730000019073486 2.310296127921497e-16,3.7730000019073486 C2.310296127921497e-16,3.7730000019073486 -4.4360151290893555,6.105651378631592 -4.4360151290893555,6.105651378631592 C-4.4360151290893555,6.105651378631592 -3.588336229324341,1.1659210920333862 -3.588336229324341,1.1659210920333862 C-3.588336229324341,1.1659210920333862 -7.177623748779297,-2.332151174545288 -7.177623748779297,-2.332151174545288 C-7.177623748779297,-2.332151174545288 -2.2177138328552246,-3.0524210929870605 -2.2177138328552246,-3.0524210929870605 C-2.2177138328552246,-3.0524210929870605 4.621204766542977e-16,-7.546999931335449 4.621204766542977e-16,-7.546999931335449z"></path></g></g><g style="display: none;" transform="matrix(-0.28168296813964844,-0.5297685861587524,0.5297685861587524,-0.28168296813964844,403.03094482421875,448.6759948730469)" opacity="1"><g opacity="1" transform="matrix(1,0,0,1,-209.75,-80.25)"><path fill="rgb(112,255,129)" fill-opacity="1" d=" M4.621204766542977e-16,-7.546999931335449 C4.621204766542977e-16,-7.546999931335449 2.2177138328552246,-3.0524210929870605 2.2177138328552246,-3.0524210929870605 C2.2177138328552246,-3.0524210929870605 7.177623748779297,-2.332151174545288 7.177623748779297,-2.332151174545288 C7.177623748779297,-2.332151174545288 3.588336229324341,1.1659210920333862 3.588336229324341,1.1659210920333862 C3.588336229324341,1.1659210920333862 4.4360151290893555,6.105651378631592 4.4360151290893555,6.105651378631592 C4.4360151290893555,6.105651378631592 2.310296127921497e-16,3.7730000019073486 2.310296127921497e-16,3.7730000019073486 C2.310296127921497e-16,3.7730000019073486 -4.4360151290893555,6.105651378631592 -4.4360151290893555,6.105651378631592 C-4.4360151290893555,6.105651378631592 -3.588336229324341,1.1659210920333862 -3.588336229324341,1.1659210920333862 C-3.588336229324341,1.1659210920333862 -7.177623748779297,-2.332151174545288 -7.177623748779297,-2.332151174545288 C-7.177623748779297,-2.332151174545288 -2.2177138328552246,-3.0524210929870605 -2.2177138328552246,-3.0524210929870605 C-2.2177138328552246,-3.0524210929870605 4.621204766542977e-16,-7.546999931335449 4.621204766542977e-16,-7.546999931335449z"></path></g></g><g style="display: none;" transform="matrix(0.5657001733779907,-0.19995833933353424,0.19995833933353424,0.5657001733779907,409.7022705078125,582.2562255859375)" opacity="1"><g opacity="1" transform="matrix(1.4800000190734863,0,0,1.4800000190734863,-209.75,-80.25)"><path fill="rgb(255,255,255)" fill-opacity="1" d=" M4.621204766542977e-16,-7.546999931335449 C4.621204766542977e-16,-7.546999931335449 1.8865000009536743,-3.2675137519836426 1.8865000009536743,-3.2675137519836426 C1.8865000009536743,-3.2675137519836426 6.53589391708374,-3.7734999656677246 6.53589391708374,-3.7734999656677246 C6.53589391708374,-3.7734999656677246 3.7730000019073486,-8.377742948056596e-16 3.7730000019073486,-8.377742948056596e-16 C3.7730000019073486,-8.377742948056596e-16 6.53589391708374,3.7734999656677246 6.53589391708374,3.7734999656677246 C6.53589391708374,3.7734999656677246 1.8865000009536743,3.2675137519836426 1.8865000009536743,3.2675137519836426 C1.8865000009536743,3.2675137519836426 3.813661659959975e-15,7.546999931335449 3.813661659959975e-15,7.546999931335449 C3.813661659959975e-15,7.546999931335449 -1.8865000009536743,3.2675137519836426 -1.8865000009536743,3.2675137519836426 C-1.8865000009536743,3.2675137519836426 -6.53589391708374,3.7734999656677246 -6.53589391708374,3.7734999656677246 C-6.53589391708374,3.7734999656677246 -3.7730000019073486,3.813156404806938e-15 -3.7730000019073486,3.813156404806938e-15 C-3.7730000019073486,3.813156404806938e-15 -6.53589391708374,-3.7734999656677246 -6.53589391708374,-3.7734999656677246 C-6.53589391708374,-3.7734999656677246 -1.8865000009536743,-3.2675137519836426 -1.8865000009536743,-3.2675137519836426 C-1.8865000009536743,-3.2675137519836426 4.621204766542977e-16,-7.546999931335449 4.621204766542977e-16,-7.546999931335449z"></path></g></g><g style="display: none;" transform="matrix(0.5926130414009094,-0.0938606783747673,0.0938606783747673,0.5926130414009094,531.6328735351562,632.4699096679688)" opacity="1"><g opacity="1" transform="matrix(1.4800000190734863,0,0,1.4800000190734863,-209.75,-80.25)"><path fill="rgb(112,255,129)" fill-opacity="1" d=" M4.621204766542977e-16,-7.546999931335449 C4.621204766542977e-16,-7.546999931335449 1.8865000009536743,-3.2675137519836426 1.8865000009536743,-3.2675137519836426 C1.8865000009536743,-3.2675137519836426 6.53589391708374,-3.7734999656677246 6.53589391708374,-3.7734999656677246 C6.53589391708374,-3.7734999656677246 3.7730000019073486,-8.377742948056596e-16 3.7730000019073486,-8.377742948056596e-16 C3.7730000019073486,-8.377742948056596e-16 6.53589391708374,3.7734999656677246 6.53589391708374,3.7734999656677246 C6.53589391708374,3.7734999656677246 1.8865000009536743,3.2675137519836426 1.8865000009536743,3.2675137519836426 C1.8865000009536743,3.2675137519836426 3.813661659959975e-15,7.546999931335449 3.813661659959975e-15,7.546999931335449 C3.813661659959975e-15,7.546999931335449 -1.8865000009536743,3.2675137519836426 -1.8865000009536743,3.2675137519836426 C-1.8865000009536743,3.2675137519836426 -6.53589391708374,3.7734999656677246 -6.53589391708374,3.7734999656677246 C-6.53589391708374,3.7734999656677246 -3.7730000019073486,3.813156404806938e-15 -3.7730000019073486,3.813156404806938e-15 C-3.7730000019073486,3.813156404806938e-15 -6.53589391708374,-3.7734999656677246 -6.53589391708374,-3.7734999656677246 C-6.53589391708374,-3.7734999656677246 -1.8865000009536743,-3.2675137519836426 -1.8865000009536743,-3.2675137519836426 C-1.8865000009536743,-3.2675137519836426 4.621204766542977e-16,-7.546999931335449 4.621204766542977e-16,-7.546999931335449z"></path></g></g><g style="display: none;" transform="matrix(-0.9543692469596863,2.4228076934814453,-2.4228076934814453,-0.9543692469596863,132.7594451904297,1046.4652099609375)" opacity="1"><g opacity="1" transform="matrix(1.090000033378601,0,0,1.090000033378601,0,0)"><path fill="rgb(255,255,255)" fill-opacity="1" d=" M-209.5,-105.25 C-210.25,-105.375 -210.31300354003906,-103.81199645996094 -210.68800354003906,-103.81199645996094 C-211.06300354003906,-103.81199645996094 -211.68699645996094,-103.18699645996094 -211.375,-102.81199645996094 C-211.06300354003906,-102.43699645996094 -210.25,-102 -209.81199645996094,-102.375 C-209.37399291992188,-102.75 -208.81199645996094,-102.3759994506836 -208.5,-102.93800354003906 C-208.18800354003906,-103.5 -208.75,-103.81300354003906 -208.68800354003906,-104.375 C-208.62600708007812,-104.93699645996094 -208.75,-105.125 -209.5,-105.25z"></path></g></g><g style="display: none;" transform="matrix(2.3788726329803467,-1.0591423511505127,1.0591423511505127,2.3788726329803467,852.7993774414062,475.9195861816406)" opacity="1"><g opacity="1" transform="matrix(1.090000033378601,0,0,1.090000033378601,0,0)"><path fill="rgb(255,255,255)" fill-opacity="1" d=" M-209.5919952392578,-104.57599639892578 C-210.3419952392578,-104.70099639892578 -210.81500244140625,-104.45600128173828 -211.0570068359375,-104.16899871826172 C-211.70799255371094,-103.39700317382812 -211.68699645996094,-103.18699645996094 -211.375,-102.81199645996094 C-211.06300354003906,-102.43699645996094 -210.78399658203125,-102.06600189208984 -210.38099670410156,-102.2300033569336 C-209.97799682617188,-102.39399719238281 -209.2220001220703,-102.177001953125 -208.91000366210938,-102.73899841308594 C-208.59800720214844,-103.3010025024414 -208.89500427246094,-103.36399841308594 -208.83299255371094,-103.9260025024414 C-208.8159942626953,-104.24299621582031 -208.8419952392578,-104.45099639892578 -209.5919952392578,-104.57599639892578z"></path></g></g><g style="display: none;" transform="matrix(0.6000000238418579,0,0,0.6000000238418579,279.7441711425781,637.8591918945312)" opacity="1"><g opacity="1" transform="matrix(1,0,0,1,159.09300231933594,-46.43199920654297)"><path fill="rgb(255,255,255)" fill-opacity="1" d=" M0,-4.550000190734863 C2.5111451148986816,-4.550000190734863 4.550000190734863,-2.5111451148986816 4.550000190734863,0 C4.550000190734863,2.5111451148986816 2.5111451148986816,4.550000190734863 0,4.550000190734863 C-2.5111451148986816,4.550000190734863 -4.550000190734863,2.5111451148986816 -4.550000190734863,0 C-4.550000190734863,-2.5111451148986816 -2.5111451148986816,-4.550000190734863 0,-4.550000190734863z"></path></g></g><g style="display: none;" transform="matrix(0.20521210134029388,0.5638155937194824,-0.5638155937194824,0.20521210134029388,333.2470397949219,729.278564453125)" opacity="1"><g opacity="1" transform="matrix(1,0,0,1,-209.75,-80.25)"><path fill="rgb(112,255,129)" fill-opacity="1" d=" M4.621204766542977e-16,-7.546999931335449 C4.621204766542977e-16,-7.546999931335449 2.2177138328552246,-3.0524210929870605 2.2177138328552246,-3.0524210929870605 C2.2177138328552246,-3.0524210929870605 7.177623748779297,-2.332151174545288 7.177623748779297,-2.332151174545288 C7.177623748779297,-2.332151174545288 3.588336229324341,1.1659210920333862 3.588336229324341,1.1659210920333862 C3.588336229324341,1.1659210920333862 4.4360151290893555,6.105651378631592 4.4360151290893555,6.105651378631592 C4.4360151290893555,6.105651378631592 2.310296127921497e-16,3.7730000019073486 2.310296127921497e-16,3.7730000019073486 C2.310296127921497e-16,3.7730000019073486 -4.4360151290893555,6.105651378631592 -4.4360151290893555,6.105651378631592 C-4.4360151290893555,6.105651378631592 -3.588336229324341,1.1659210920333862 -3.588336229324341,1.1659210920333862 C-3.588336229324341,1.1659210920333862 -7.177623748779297,-2.332151174545288 -7.177623748779297,-2.332151174545288 C-7.177623748779297,-2.332151174545288 -2.2177138328552246,-3.0524210929870605 -2.2177138328552246,-3.0524210929870605 C-2.2177138328552246,-3.0524210929870605 4.621204766542977e-16,-7.546999931335449 4.621204766542977e-16,-7.546999931335449z"></path></g></g><g style="display: none;" transform="matrix(0.43800002336502075,0,0,0.43800002336502075,-101.80027770996094,630.8602905273438)" opacity="1"><g opacity="1" transform="matrix(1,0,0,1,226.0279998779297,-88.72200012207031)"><path fill="rgb(112,255,129)" fill-opacity="1" d=" M0,-9.050000190734863 C4.99469518661499,-9.050000190734863 9.050000190734863,-4.99469518661499 9.050000190734863,0 C9.050000190734863,4.99469518661499 4.99469518661499,9.050000190734863 0,9.050000190734863 C-4.99469518661499,9.050000190734863 -9.050000190734863,4.99469518661499 -9.050000190734863,0 C-9.050000190734863,-4.99469518661499 -4.99469518661499,-9.050000190734863 0,-9.050000190734863z"></path></g></g><g style="display: none;" transform="matrix(-0.5523029565811157,0.2344386875629425,-0.2344386875629425,-0.5523029565811157,-111.05926513671875,577.6511840820312)" opacity="1"><g opacity="1" transform="matrix(1.4800000190734863,0,0,1.4800000190734863,-209.75,-80.25)"><path fill="rgb(112,255,129)" fill-opacity="1" d=" M4.621204766542977e-16,-7.546999931335449 C4.621204766542977e-16,-7.546999931335449 1.8865000009536743,-3.2675137519836426 1.8865000009536743,-3.2675137519836426 C1.8865000009536743,-3.2675137519836426 6.53589391708374,-3.7734999656677246 6.53589391708374,-3.7734999656677246 C6.53589391708374,-3.7734999656677246 3.7730000019073486,-8.377742948056596e-16 3.7730000019073486,-8.377742948056596e-16 C3.7730000019073486,-8.377742948056596e-16 6.53589391708374,3.7734999656677246 6.53589391708374,3.7734999656677246 C6.53589391708374,3.7734999656677246 1.8865000009536743,3.2675137519836426 1.8865000009536743,3.2675137519836426 C1.8865000009536743,3.2675137519836426 3.813661659959975e-15,7.546999931335449 3.813661659959975e-15,7.546999931335449 C3.813661659959975e-15,7.546999931335449 -1.8865000009536743,3.2675137519836426 -1.8865000009536743,3.2675137519836426 C-1.8865000009536743,3.2675137519836426 -6.53589391708374,3.7734999656677246 -6.53589391708374,3.7734999656677246 C-6.53589391708374,3.7734999656677246 -3.7730000019073486,3.813156404806938e-15 -3.7730000019073486,3.813156404806938e-15 C-3.7730000019073486,3.813156404806938e-15 -6.53589391708374,-3.7734999656677246 -6.53589391708374,-3.7734999656677246 C-6.53589391708374,-3.7734999656677246 -1.8865000009536743,-3.2675137519836426 -1.8865000009536743,-3.2675137519836426 C-1.8865000009536743,-3.2675137519836426 4.621204766542977e-16,-7.546999931335449 4.621204766542977e-16,-7.546999931335449z"></path></g></g><g style="display: none;" transform="matrix(-0.15189926326274872,-0.8688214421272278,0.8688214421272278,-0.15189926326274872,81.18771362304688,700.5838623046875)" opacity="1"><g opacity="1" transform="matrix(1,0,0,1,0,0)"><path fill="rgb(255,255,255)" fill-opacity="1" d=" M102.25,-14.5 C101.25,-15 99.5,-11.75 98.5,-10.5 C97.5,-9.25 96,-3.25 96,0.25 C96,3.75 99.25,3.25 101.5,3.5 C103.75,3.75 104.5,8.5 103.75,11 C103,13.5 107.75,10.75 110,7 C110.9280014038086,5.453999996185303 108.5,3.5 108.75,-3 C108.81999969482422,-4.818999767303467 108.25,-6.25 106,-5.25 C103.75,-4.25 102,-1 102.5,-3.25 C103,-5.5 107,-7 106.25,-9.5 C105.5,-12 103.25,-14 102.25,-14.5z"></path></g></g><g style="display: none;" transform="matrix(-0.4945765435695648,-0.3396970331668854,0.3396970331668854,-0.4945765435695648,622.77001953125,586.3323364257812)" opacity="1"><g opacity="1" transform="matrix(1,0,0,1,0,0)"><path fill="rgb(255,255,255)" fill-opacity="1" d=" M132,-114 C129.75,-116.25 126,-110.5 124,-107.75 C122,-105 123,-103 120,-95.5 C117,-88 119.25,-86 123,-86.25 C126.75,-86.5 132.25,-92.5 132.5,-96.75 C132.75,-101 134.25,-111.75 132,-114z"></path></g></g><g style="display: none;" transform="matrix(0.8238750100135803,-0.3148873746395111,0.3148873746395111,0.8238750100135803,433.4616394042969,632.7345581054688)" opacity="1"><g opacity="1" transform="matrix(1,0,0,1,0,0)"><path fill="rgb(112,255,129)" fill-opacity="1" d=" M102.25,-14.5 C101.25,-15 99.5,-11.75 98.5,-10.5 C97.5,-9.25 96,-3.25 96,0.25 C96,3.75 99.25,3.25 101.5,3.5 C103.75,3.75 104.5,8.5 103.75,11 C103,13.5 107.75,10.75 110,7 C110.9280014038086,5.453999996185303 108.5,3.5 108.75,-3 C108.81999969482422,-4.818999767303467 108.25,-6.25 106,-5.25 C103.75,-4.25 102,-1 102.5,-3.25 C103,-5.5 107,-7 106.25,-9.5 C105.5,-12 103.25,-14 102.25,-14.5z"></path></g></g><g style="display: none;" transform="matrix(-0.06271708011627197,-0.5967131853103638,0.5967131853103638,-0.06271708011627197,528.7313232421875,392.2063903808594)" opacity="1"><g opacity="1" transform="matrix(1,0,0,1,-209.75,-80.25)"><path fill="rgb(255,255,255)" fill-opacity="1" d=" M4.621204766542977e-16,-7.546999931335449 C4.621204766542977e-16,-7.546999931335449 2.2177138328552246,-3.0524210929870605 2.2177138328552246,-3.0524210929870605 C2.2177138328552246,-3.0524210929870605 7.177623748779297,-2.332151174545288 7.177623748779297,-2.332151174545288 C7.177623748779297,-2.332151174545288 3.588336229324341,1.1659210920333862 3.588336229324341,1.1659210920333862 C3.588336229324341,1.1659210920333862 4.4360151290893555,6.105651378631592 4.4360151290893555,6.105651378631592 C4.4360151290893555,6.105651378631592 2.310296127921497e-16,3.7730000019073486 2.310296127921497e-16,3.7730000019073486 C2.310296127921497e-16,3.7730000019073486 -4.4360151290893555,6.105651378631592 -4.4360151290893555,6.105651378631592 C-4.4360151290893555,6.105651378631592 -3.588336229324341,1.1659210920333862 -3.588336229324341,1.1659210920333862 C-3.588336229324341,1.1659210920333862 -7.177623748779297,-2.332151174545288 -7.177623748779297,-2.332151174545288 C-7.177623748779297,-2.332151174545288 -2.2177138328552246,-3.0524210929870605 -2.2177138328552246,-3.0524210929870605 C-2.2177138328552246,-3.0524210929870605 4.621204766542977e-16,-7.546999931335449 4.621204766542977e-16,-7.546999931335449z"></path></g></g><g style="display: none;" transform="matrix(0.6000000238418579,0,0,0.6000000238418579,-7.055829048156738,561.0592041015625)" opacity="1"><g opacity="1" transform="matrix(1,0,0,1,159.09300231933594,-46.43199920654297)"><path fill="rgb(255,255,255)" fill-opacity="1" d=" M0,-4.550000190734863 C2.5111451148986816,-4.550000190734863 4.550000190734863,-2.5111451148986816 4.550000190734863,0 C4.550000190734863,2.5111451148986816 2.5111451148986816,4.550000190734863 0,4.550000190734863 C-2.5111451148986816,4.550000190734863 -4.550000190734863,2.5111451148986816 -4.550000190734863,0 C-4.550000190734863,-2.5111451148986816 -2.5111451148986816,-4.550000190734863 0,-4.550000190734863z"></path></g></g><g style="display: none;" transform="matrix(0,-0.6000000238418579,0.6000000238418579,0,552.9500122070312,368.95001220703125)" opacity="1"><g opacity="1" transform="matrix(1,0,0,1,-209.75,-80.25)"><path fill="rgb(255,255,255)" fill-opacity="1" d=" M4.621204766542977e-16,-7.546999931335449 C4.621204766542977e-16,-7.546999931335449 2.2177138328552246,-3.0524210929870605 2.2177138328552246,-3.0524210929870605 C2.2177138328552246,-3.0524210929870605 7.177623748779297,-2.332151174545288 7.177623748779297,-2.332151174545288 C7.177623748779297,-2.332151174545288 3.588336229324341,1.1659210920333862 3.588336229324341,1.1659210920333862 C3.588336229324341,1.1659210920333862 4.4360151290893555,6.105651378631592 4.4360151290893555,6.105651378631592 C4.4360151290893555,6.105651378631592 2.310296127921497e-16,3.7730000019073486 2.310296127921497e-16,3.7730000019073486 C2.310296127921497e-16,3.7730000019073486 -4.4360151290893555,6.105651378631592 -4.4360151290893555,6.105651378631592 C-4.4360151290893555,6.105651378631592 -3.588336229324341,1.1659210920333862 -3.588336229324341,1.1659210920333862 C-3.588336229324341,1.1659210920333862 -7.177623748779297,-2.332151174545288 -7.177623748779297,-2.332151174545288 C-7.177623748779297,-2.332151174545288 -2.2177138328552246,-3.0524210929870605 -2.2177138328552246,-3.0524210929870605 C-2.2177138328552246,-3.0524210929870605 4.621204766542977e-16,-7.546999931335449 4.621204766542977e-16,-7.546999931335449z"></path></g></g><g style="display: none;" transform="matrix(0.9158174395561218,0,0,0.9158174395561218,382.4165954589844,179.51475524902344)" opacity="0.01943571428573222"><g opacity="1" transform="matrix(1,0,0,1,-29.5,37.5)"><path fill="rgb(255,255,255)" fill-opacity="1" d=" M0,-23.106000900268555 C-12.76099967956543,-23.106000900268555 -23.106000900268555,-12.76099967956543 -23.106000900268555,0 C-23.106000900268555,12.76099967956543 -12.76099967956543,23.106000900268555 0,23.106000900268555 C12.76099967956543,23.106000900268555 23.106000900268555,12.76099967956543 23.106000900268555,0 C23.106000900268555,-12.76099967956543 12.76099967956543,-23.106000900268555 0,-23.106000900268555z"></path></g></g><g style="display: none;" transform="matrix(1.0986119508743286,0,0,1.0986119508743286,387.8090515136719,172.75135803222656)" opacity="0.019729166666673733"><g opacity="1" transform="matrix(1,0,0,1,-29.5,37.5)"><path stroke-linecap="butt" stroke-linejoin="miter" fill-opacity="0" stroke-miterlimit="4" stroke="rgb(255,255,255)" stroke-opacity="1" stroke-width="4" d=" M0,-23.106000900268555 C-12.76099967956543,-23.106000900268555 -23.106000900268555,-12.76099967956543 -23.106000900268555,0 C-23.106000900268555,12.76099967956543 -12.76099967956543,23.106000900268555 0,23.106000900268555 C12.76099967956543,23.106000900268555 23.106000900268555,12.76099967956543 23.106000900268555,0 C23.106000900268555,-12.76099967956543 12.76099967956543,-23.106000900268555 0,-23.106000900268555z"></path></g></g></g></svg>