<svg xmlns="http://www.w3.org/2000/svg" xmlns:xlink="http://www.w3.org/1999/xlink" viewBox="0 0 500 500" preserveAspectRatio="xMidYMid meet"><defs><clipPath id="__lottie_element_131"><rect width="500" height="500" x="0" y="0"></rect></clipPath></defs><g clip-path="url(#__lottie_element_131)"><g style="display: block;" transform="matrix(1,0,0,1,250,250)" opacity="1"><g opacity="1" transform="matrix(1,0,0,1,0,0)"><path stroke-linecap="square" stroke-linejoin="miter" fill-opacity="0" stroke-miterlimit="4" stroke="rgb(0,47,105)" stroke-opacity="1" stroke-width="31" d=" M-147,72 C-147,72 -45,-29.5 -45,-29.5 C-45,-29.5 -29.75,-29.5 -29.75,-29.5 C-29.75,-29.5 27,33.5 27,33.5 C27,33.5 40.25,33.5 40.25,33.5 C40.25,33.5 120.39399719238281,-47.279998779296875 133.07000732421875,-60.05699920654297"></path></g></g><g style="display: block;" transform="matrix(0.9205048680305481,-0.3907311260700226,0.3907311260700226,0.9205048680305481,389.557373046875,175.29052734375)" opacity="1"><g opacity="1" transform="matrix(1,0,0,1,0,0)"><path stroke-linecap="butt" stroke-linejoin="miter" fill-opacity="0" stroke-miterlimit="4" stroke="rgb(0,47,105)" stroke-opacity="1" stroke-width="31" d=" M-90.2319564819336,-55.094322204589844 C-90.2319564819336,-55.094322204589844 -9.25,4.5 -9.25,4.5 C-9.25,4.5 -5.5,15 -5.5,15 C-5.5,15 -25.506847381591797,115.51991271972656 -25.506847381591797,115.51991271972656"></path></g></g></g></svg>