<svg xmlns="http://www.w3.org/2000/svg" xmlns:xlink="http://www.w3.org/1999/xlink" viewBox="0 0 500 500" preserveAspectRatio="xMidYMid meet"><defs><clipPath id="__lottie_element_123"><rect width="500" height="500" x="0" y="0"></rect></clipPath></defs><g clip-path="url(#__lottie_element_123)"><g style="display: block;" transform="matrix(1,0,0,1,250,250)" opacity="1"><g opacity="1" transform="matrix(1,0,0,1,0,0)"><path stroke-linecap="butt" stroke-linejoin="miter" fill-opacity="0" stroke-miterlimit="4" stroke="rgb(0,47,105)" stroke-opacity="1" stroke-width="31" d=" M-156,77.5 C-156,77.5 -60.75,11.5 -60.75,11.5 C-60.75,11.5 -51.5,8.5 -51.5,8.5 C-51.5,8.5 53.5,8.5 53.5,8.5 C53.5,8.5 60.5,4.5 60.5,4.5 C60.5,4.5 131.79800415039062,-57.263999938964844 144.5570068359375,-68.31700134277344"></path></g></g><g style="display: block;" transform="matrix(0.9455185532569885,-0.32556816935539246,0.32556816935539246,0.9455185532569885,406.30023193359375,164.3677215576172)" opacity="1"><g opacity="1" transform="matrix(1,0,0,1,0,0)"><path stroke-linecap="butt" stroke-linejoin="miter" fill-opacity="0" stroke-miterlimit="4" stroke="rgb(0,47,105)" stroke-opacity="1" stroke-width="31" d=" M-101.21648406982422,-64.20356750488281 C-101.21648406982422,-64.20356750488281 -9.25,4.5 -9.25,4.5 C-9.25,4.5 -5.5,15 -5.5,15 C-5.5,15 -9.752903938293457,119.58525085449219 -9.752903938293457,119.58525085449219"></path></g></g></g></svg>