<svg xmlns="http://www.w3.org/2000/svg" xmlns:xlink="http://www.w3.org/1999/xlink" viewBox="0 0 1080 1080" preserveAspectRatio="xMidYMid meet"><defs><clipPath id="__lottie_element_139"><rect width="1080" height="1080" x="0" y="0"></rect></clipPath><image xlink:href="/lottie/home/images/img_sec.png"></image></defs><g clip-path="url(#__lottie_element_139)"><g class="png" style="display: block;" transform="matrix(1,0,0,1,0,0)" opacity="1"><image width="1080px" height="1080px" preserveAspectRatio="xMidYMid slice" xlink:href="/lottie/home/images/img_sec.png"></image></g><g style="display: block;" transform="matrix(1,0,0,1,332.718994140625,350.2099609375)" opacity="1"><g opacity="1" transform="matrix(1,0,0,1,207.281005859375,203.69900512695312)"><path fill="rgb(0,102,243)" fill-opacity="1" d=" M204.87399291992188,-129.80299377441406 C204.87399291992188,-129.80299377441406 0,-203.44900512695312 0,-203.44900512695312 C0,-203.44900512695312 -204.87399291992188,-129.80299377441406 -204.87399291992188,-129.80299377441406 C-204.87399291992188,-129.80299377441406 -207.031005859375,144.21099853515625 0,203.4499969482422 C207.031005859375,144.21099853515625 204.87399291992188,-129.80299377441406 204.87399291992188,-129.80299377441406z"></path></g></g><g style="display: block;" transform="matrix(0.7799999713897705,0,0,0.7799999713897705,378.32080078125,395.02398681640625)" opacity="1"><g opacity="1" transform="matrix(0.8999999761581421,0,0,0.8999999761581421,207.281005859375,203.69900512695312)"><path fill="rgb(8,60,131)" fill-opacity="1" d=" M204.87399291992188,-129.80299377441406 C204.87399291992188,-129.80299377441406 0,-203.44900512695312 0,-203.44900512695312 C0,-203.44900512695312 -204.87399291992188,-129.80299377441406 -204.87399291992188,-129.80299377441406 C-204.87399291992188,-129.80299377441406 -207.031005859375,144.21099853515625 0,203.4499969482422 C207.031005859375,144.21099853515625 204.87399291992188,-129.80299377441406 204.87399291992188,-129.80299377441406z"></path></g></g><g style="display: block;" transform="matrix(0.38999998569488525,0,0,0.38999998569488525,459.160400390625,474.46697998046875)" opacity="1"><g opacity="1" transform="matrix(1,0,0,1,207.281005859375,203.69900512695312)"><path fill="rgb(65,166,250)" fill-opacity="1" d=" M204.87399291992188,-129.80299377441406 C204.87399291992188,-129.80299377441406 0,-203.44900512695312 0,-203.44900512695312 C0,-203.44900512695312 -204.87399291992188,-129.80299377441406 -204.87399291992188,-129.80299377441406 C-204.87399291992188,-129.80299377441406 -207.031005859375,144.21099853515625 0,203.4499969482422 C207.031005859375,144.21099853515625 204.87399291992188,-129.80299377441406 204.87399291992188,-129.80299377441406z"></path></g></g><g style="display: block;" transform="matrix(0.7466002106666565,-0.6652729511260986,0.6652729511260986,0.7466002106666565,-31.53533935546875,526.9100341796875)" opacity="1"><g opacity="1" transform="matrix(1,0,0,1,94.7229995727539,223.26199340820312)"><path fill="rgb(255,255,255)" fill-opacity="1" d=" M-17.768999099731445,-9.37399959564209 C-20.275999069213867,-4.590000152587891 -20.976999282836914,0.515999972820282 -17.03700065612793,2.5799999237060547 C-6.9730000495910645,7.854000091552734 0.9010000228881836,-26.860000610351562 21.66200065612793,-15.982000350952148 C32.71099853515625,-10.192999839782715 33.33700180053711,1.7949999570846558 26.920000076293945,14.041000366210938 C21.944000244140625,23.541000366210938 13.442000389099121,29.493000030517578 3.884000062942505,29.417999267578125 C3.884000062942505,29.417999267578125 1.9930000305175781,18.64900016784668 1.9930000305175781,18.64900016784668 C8.64900016784668,18.10099983215332 14.418999671936035,13.59000015258789 16.926000595092773,8.805000305175781 C19.766000747680664,3.385999917984009 21.2549991607666,-2.0230000019073486 16.187999725341797,-4.677999973297119 C5.492000102996826,-10.282999992370605 -1.9600000381469727,24.650999069213867 -23.073999404907227,13.59000015258789 C-32.85599899291992,8.46399974822998 -33.33700180053711,-3.628999948501587 -27.990999221801758,-13.833000183105469 C-23.78700065612793,-21.856000900268555 -16.107999801635742,-29.493000030517578 -7.260000228881836,-29.43199920654297 C-7.260000228881836,-29.43199920654297 -5.581999778747559,-18.59600067138672 -5.581999778747559,-18.59600067138672 C-11.21500015258789,-17.60300064086914 -15.482999801635742,-13.737000465393066 -17.768999099731445,-9.37399959564209z"></path></g><g opacity="1" transform="matrix(1,0,0,1,134.41000366210938,162.87399291992188)"><path fill="rgb(255,255,255)" fill-opacity="1" d=" M-0.6909999847412109,-28.25200080871582 C-0.6909999847412109,-28.25200080871582 -20.95599937438965,-3.453000068664551 -20.95599937438965,-3.453000068664551 C-20.95599937438965,-3.453000068664551 -11.109000205993652,4.591000080108643 -11.109000205993652,4.591000080108643 C-11.109000205993652,4.591000080108643 8.348999977111816,-19.222999572753906 8.348999977111816,-19.222999572753906 C8.348999977111816,-19.222999572753906 17.025999069213867,-12.133000373840332 17.025999069213867,-12.133000373840332 C17.025999069213867,-12.133000373840332 -2.431999921798706,11.682000160217285 -2.431999921798706,11.682000160217285 C-2.431999921798706,11.682000160217285 7.228000164031982,19.575000762939453 7.228000164031982,19.575000762939453 C7.228000164031982,19.575000762939453 28.04400062561035,-5.89900016784668 28.04400062561035,-5.89900016784668 C28.04400062561035,-5.89900016784668 36.720001220703125,1.1890000104904175 36.720001220703125,1.1890000104904175 C36.720001220703125,1.1890000104904175 8.8149995803833,35.34199905395508 8.8149995803833,35.34199905395508 C8.8149995803833,35.34199905395508 -36.720001220703125,-1.8669999837875366 -36.720001220703125,-1.8669999837875366 C-36.720001220703125,-1.8669999837875366 -9.366999626159668,-35.34199905395508 -9.366999626159668,-35.34199905395508 C-9.366999626159668,-35.34199905395508 -0.6909999847412109,-28.25200080871582 -0.6909999847412109,-28.25200080871582z"></path></g><g opacity="1" transform="matrix(1,0,0,1,187.15899658203125,110.3280029296875)"><path fill="rgb(255,255,255)" fill-opacity="1" d=" M18.000999450683594,-4.682000160217285 C18.000999450683594,-4.682000160217285 30.152999877929688,-5.859000205993652 30.152999877929688,-5.859000205993652 C32.29899978637695,4.585999965667725 28.851999282836914,15.583000183105469 20.281999588012695,22.55299949645996 C7.705999851226807,32.78300094604492 -11.09000015258789,30.452999114990234 -21.66900062561035,17.445999145507812 C-32.29899978637695,4.376999855041504 -30.75200080871582,-14.49899959564209 -18.177000045776367,-24.72800064086914 C-9.670000076293945,-31.648000717163086 1.8009999990463257,-32.78300094604492 11.550999641418457,-28.729000091552734 C11.550999641418457,-28.729000091552734 8.234000205993652,-16.81399917602539 8.234000205993652,-16.81399917602539 C2.1659998893737793,-19.868000030517578 -5.064000129699707,-19.312000274658203 -10.303999900817871,-15.048999786376953 C-17.70199966430664,-9.031999588012695 -18.43199920654297,1.906999945640564 -12.11400032043457,9.673999786376953 C-5.8460001945495605,17.3799991607666 5.013000011444092,18.891000747680664 12.40999984741211,12.875 C17.64900016784668,8.61299991607666 19.65399932861328,1.7580000162124634 18.000999450683594,-4.682000160217285z"></path></g><g opacity="1" transform="matrix(1,0,0,1,241.01300048828125,79.86799621582031)"><path fill="rgb(255,255,255)" fill-opacity="1" d=" M8.36299991607666,-10.572999954223633 C8.36299991607666,-10.572999954223633 13.401000022888184,-1.4639999866485596 13.401000022888184,-1.4639999866485596 C13.401000022888184,-1.4639999866485596 -8.36299991607666,10.572999954223633 -8.36299991607666,10.572999954223633 C-8.36299991607666,10.572999954223633 -13.401000022888184,1.465999960899353 -13.401000022888184,1.465999960899353 C-13.401000022888184,1.465999960899353 8.36299991607666,-10.572999954223633 8.36299991607666,-10.572999954223633z"></path></g><g opacity="1" transform="matrix(1,0,0,1,294.8710021972656,55.111000061035156)"><path fill="rgb(255,255,255)" fill-opacity="1" d=" M29.207000732421875,16.17799949645996 C29.207000732421875,16.17799949645996 -9.701000213623047,29.858999252319336 -9.701000213623047,29.858999252319336 C-9.701000213623047,29.858999252319336 -29.20599937438965,-25.615999221801758 -29.20599937438965,-25.615999221801758 C-29.20599937438965,-25.615999221801758 -17.13800048828125,-29.858999252319336 -17.13800048828125,-29.858999252319336 C-17.13800048828125,-29.858999252319336 -1.3209999799728394,15.119999885559082 -1.3209999799728394,15.119999885559082 C-1.3209999799728394,15.119999885559082 25.516000747680664,5.683000087738037 25.516000747680664,5.683000087738037 C25.516000747680664,5.683000087738037 29.207000732421875,16.17799949645996 29.207000732421875,16.17799949645996z"></path></g><g opacity="1" transform="matrix(1,0,0,1,349.4209899902344,36.24599838256836)"><path fill="rgb(255,255,255)" fill-opacity="1" d=" M7.193999767303467,-31.135000228881836 C7.193999767303467,-31.135000228881836 8.664999961853027,-22.840999603271484 8.664999961853027,-22.840999603271484 C8.664999961853027,-22.840999603271484 2.638000011444092,-21.773000717163086 2.638000011444092,-21.773000717163086 C2.638000011444092,-21.773000717163086 9.958999633789062,19.54199981689453 9.958999633789062,19.54199981689453 C9.958999633789062,19.54199981689453 15.984000205993652,18.474000930786133 15.984000205993652,18.474000930786133 C15.984000205993652,18.474000930786133 17.452999114990234,26.76799964904785 17.452999114990234,26.76799964904785 C17.452999114990234,26.76799964904785 -7.195000171661377,31.135000228881836 -7.195000171661377,31.135000228881836 C-7.195000171661377,31.135000228881836 -8.663999557495117,22.840999603271484 -8.663999557495117,22.840999603271484 C-8.663999557495117,22.840999603271484 -2.640000104904175,21.77400016784668 -2.640000104904175,21.77400016784668 C-2.640000104904175,21.77400016784668 -9.958999633789062,-19.54199981689453 -9.958999633789062,-19.54199981689453 C-9.958999633789062,-19.54199981689453 -15.984999656677246,-18.474000930786133 -15.984999656677246,-18.474000930786133 C-15.984999656677246,-18.474000930786133 -17.452999114990234,-26.76799964904785 -17.452999114990234,-26.76799964904785 C-17.452999114990234,-26.76799964904785 7.193999767303467,-31.135000228881836 7.193999767303467,-31.135000228881836z"></path></g><g opacity="1" transform="matrix(1,0,0,1,411.8909912109375,30.761999130249023)"><path fill="rgb(255,255,255)" fill-opacity="1" d=" M17.309999465942383,7.8520002365112305 C17.309999465942383,7.8520002365112305 27.5,14.574000358581543 27.5,14.574000358581543 C22.604000091552734,24.042999267578125 13.008999824523926,30.43000030517578 1.9639999866485596,30.46299934387207 C-14.244000434875488,30.511999130249023 -27.395999908447266,16.88599967956543 -27.447999954223633,0.12200000137090683 C-27.5,-16.722999572753906 -14.430000305175781,-30.42799949645996 1.7790000438690186,-30.479000091552734 C12.744000434875488,-30.511999130249023 22.37700080871582,-24.184999465942383 27.410999298095703,-14.904000282287598 C27.410999298095703,-14.904000282287598 17.340999603271484,-7.7230000495910645 17.340999603271484,-7.7230000495910645 C14.541000366210938,-13.91100025177002 8.571000099182129,-18.024999618530273 1.8170000314712524,-18.0049991607666 C-7.7179999351501465,-17.974000930786133 -15.163000106811523,-9.927000045776367 -15.130999565124512,0.08399999886751175 C-15.10099983215332,10.015999794006348 -7.607999801635742,18.01799964904785 1.9270000457763672,17.98900032043457 C8.680000305175781,17.966999053955078 14.54699993133545,13.89799976348877 17.309999465942383,7.8520002365112305z"></path></g><g opacity="1" transform="matrix(1,0,0,1,485.6610107421875,38.358001708984375)"><path fill="rgb(255,255,255)" fill-opacity="1" d=" M24.888999938964844,-13.465999603271484 C24.888999938964844,-13.465999603271484 -6.453999996185303,-20.035999298095703 -6.453999996185303,-20.035999298095703 C-6.453999996185303,-20.035999298095703 -9.064000129699707,-7.5929999351501465 -9.064000129699707,-7.5929999351501465 C-9.064000129699707,-7.5929999351501465 21.03499984741211,-1.281000018119812 21.03499984741211,-1.281000018119812 C21.03499984741211,-1.281000018119812 18.738000869750977,9.682999610900879 18.738000869750977,9.682999610900879 C18.738000869750977,9.682999610900879 -11.36299991607666,3.375 -11.36299991607666,3.375 C-11.36299991607666,3.375 -13.92300033569336,15.586000442504883 -13.92300033569336,15.586000442504883 C-13.92300033569336,15.586000442504883 18.277000427246094,22.336000442504883 18.277000427246094,22.336000442504883 C18.277000427246094,22.336000442504883 15.977999687194824,33.301998138427734 15.977999687194824,33.301998138427734 C15.977999687194824,33.301998138427734 -27.18899917602539,24.253000259399414 -27.18899917602539,24.253000259399414 C-27.18899917602539,24.253000259399414 -15.121000289916992,-33.301998138427734 -15.121000289916992,-33.301998138427734 C-15.121000289916992,-33.301998138427734 27.18899917602539,-24.43199920654297 27.18899917602539,-24.43199920654297 C27.18899917602539,-24.43199920654297 24.888999938964844,-13.465999603271484 24.888999938964844,-13.465999603271484z"></path></g><g opacity="1" transform="matrix(1,0,0,1,559.3079833984375,62.196998596191406)"><path fill="rgb(255,255,255)" fill-opacity="1" d=" M-12.024999618530273,-37.65399932861328 C-12.024999618530273,-37.65399932861328 -0.28700000047683716,-32.37200164794922 -0.28700000047683716,-32.37200164794922 C-0.28700000047683716,-32.37200164794922 8.668999671936035,13.748000144958496 8.668999671936035,13.748000144958496 C8.668999671936035,13.748000144958496 24.42099952697754,-21.25 24.42099952697754,-21.25 C24.42099952697754,-21.25 36.1609992980957,-15.965999603271484 36.1609992980957,-15.965999603271484 C36.1609992980957,-15.965999603271484 12.026000022888184,37.65399932861328 12.026000022888184,37.65399932861328 C12.026000022888184,37.65399932861328 0.2879999876022339,32.369998931884766 0.2879999876022339,32.369998931884766 C0.2879999876022339,32.369998931884766 -8.668999671936035,-13.75 -8.668999671936035,-13.75 C-8.668999671936035,-13.75 -24.42099952697754,21.24799919128418 -24.42099952697754,21.24799919128418 C-24.42099952697754,21.24799919128418 -36.15999984741211,15.965999603271484 -36.15999984741211,15.965999603271484 C-36.15999984741211,15.965999603271484 -12.024999618530273,-37.65399932861328 -12.024999618530273,-37.65399932861328z"></path></g><g opacity="1" transform="matrix(1,0,0,1,625.5399780273438,101.46600341796875)"><path fill="rgb(255,255,255)" fill-opacity="1" d=" M11.809000015258789,-16.16699981689453 C7.468999862670898,-19.38599967956543 2.5339999198913574,-20.868999481201172 -0.11699999868869781,-17.29599952697754 C-6.885000228881836,-8.170000076293945 26.194000244140625,4.988999843597412 12.227999687194824,23.81800079345703 C4.796000003814697,33.8380012512207 -7.145999908447266,32.5989990234375 -18.250999450683594,24.36199951171875 C-26.868000030517578,17.97100067138672 -31.43000030517578,8.64900016784668 -29.875999450683594,-0.7829999923706055 C-29.875999450683594,-0.7829999923706055 -18.941999435424805,-0.984000027179718 -18.941999435424805,-0.984000027179718 C-19.43199920654297,5.677999973297119 -15.869000434875488,12.079999923706055 -11.529000282287598,15.298999786376953 C-6.614999771118164,18.94300079345703 -1.5010000467300415,21.25200080871582 1.9079999923706055,16.6560001373291 C9.102999687194824,6.954999923706055 -24.26099967956543,-5.817999839782715 -10.059000015258789,-24.965999603271484 C-3.4790000915527344,-33.83700180053711 8.543000221252441,-32.43899917602539 17.79800033569336,-25.576000213623047 C25.073999404907227,-20.17799949645996 31.43000030517578,-11.407999992370605 29.99799919128418,-2.674999952316284 C29.99799919128418,-2.674999952316284 19.033000946044922,-2.694999933242798 19.033000946044922,-2.694999933242798 C18.92300033569336,-8.416999816894531 15.765999794006348,-13.232000350952148 11.809000015258789,-16.16699981689453z"></path></g><g opacity="1" transform="matrix(1,0,0,1,678.916015625,149.92100524902344)"><path fill="rgb(255,255,255)" fill-opacity="1" d=" M27.98200035095215,3.5920000076293945 C27.98200035095215,3.5920000076293945 6.579999923706055,-20.229999542236328 6.579999923706055,-20.229999542236328 C6.579999923706055,-20.229999542236328 -2.878000020980835,-11.732999801635742 -2.878000020980835,-11.732999801635742 C-2.878000020980835,-11.732999801635742 17.673999786376953,11.142999649047852 17.673999786376953,11.142999649047852 C17.673999786376953,11.142999649047852 9.33899974822998,18.6299991607666 9.33899974822998,18.6299991607666 C9.33899974822998,18.6299991607666 -11.211999893188477,-4.24399995803833 -11.211999893188477,-4.24399995803833 C-11.211999893188477,-4.24399995803833 -20.493000030517578,4.093999862670898 -20.493000030517578,4.093999862670898 C-20.493000030517578,4.093999862670898 1.49399995803833,28.565000534057617 1.49399995803833,28.565000534057617 C1.49399995803833,28.565000534057617 -6.841000080108643,36.053001403808594 -6.841000080108643,36.053001403808594 C-6.841000080108643,36.053001403808594 -36.316001892089844,3.246999979019165 -36.316001892089844,3.246999979019165 C-36.316001892089844,3.246999979019165 7.423999786376953,-36.053001403808594 7.423999786376953,-36.053001403808594 C7.423999786376953,-36.053001403808594 36.31700134277344,-3.8970000743865967 36.31700134277344,-3.8970000743865967 C36.31700134277344,-3.8970000743865967 27.98200035095215,3.5920000076293945 27.98200035095215,3.5920000076293945z"></path></g><g opacity="1" transform="matrix(1,0,0,1,726.3560180664062,216.19200134277344)"><path fill="rgb(255,255,255)" fill-opacity="1" d=" M10.281999588012695,-41.34400177001953 C10.281999588012695,-41.34400177001953 26.097000122070312,-13.58899974822998 26.097000122070312,-13.58899974822998 C40.810001373291016,12.234000205993652 -10.282999992370605,41.34400177001953 -24.9950008392334,15.522000312805176 C-24.9950008392334,15.522000312805176 -40.810001373291016,-12.234000205993652 -40.810001373291016,-12.234000205993652 C-40.810001373291016,-12.234000205993652 10.281999588012695,-41.34400177001953 10.281999588012695,-41.34400177001953z M-17.41699981689453,8.277000427246094 C-8.802000045776367,23.398000717163086 24.684999465942383,4.317999839782715 16.069000244140625,-10.802000045776367 C16.069000244140625,-10.802000045776367 7.926000118255615,-25.093000411987305 7.926000118255615,-25.093000411987305 C7.926000118255615,-25.093000411987305 -25.559999465942383,-6.014999866485596 -25.559999465942383,-6.014999866485596 C-25.559999465942383,-6.014999866485596 -17.41699981689453,8.277000427246094 -17.41699981689453,8.277000427246094z"></path></g><g opacity="1" transform="matrix(1,0,0,1,89.72699737548828,541.3829956054688)"><path fill="rgb(255,255,255)" fill-opacity="1" d=" M25.586000442504883,16.8439998626709 C25.586000442504883,16.8439998626709 12.022000312805176,-10.756999969482422 12.022000312805176,-10.756999969482422 C12.022000312805176,-10.756999969482422 0.609000027179718,-5.1479997634887695 0.609000027179718,-5.1479997634887695 C0.609000027179718,-5.1479997634887695 13.369000434875488,20.812000274658203 13.369000434875488,20.812000274658203 C13.369000434875488,20.812000274658203 3.312999963760376,25.753999710083008 3.312999963760376,25.753999710083008 C3.312999963760376,25.753999710083008 -9.446999549865723,-0.2070000022649765 -9.446999549865723,-0.2070000022649765 C-9.446999549865723,-0.2070000022649765 -30.700000762939453,10.23900032043457 -30.700000762939453,10.23900032043457 C-30.700000762939453,10.23900032043457 -35.641998291015625,0.18199999630451202 -35.641998291015625,0.18199999630451202 C-35.641998291015625,0.18199999630451202 17.13599967956543,-25.7549991607666 17.13599967956543,-25.7549991607666 C17.13599967956543,-25.7549991607666 35.641998291015625,11.902999877929688 35.641998291015625,11.902999877929688 C35.641998291015625,11.902999877929688 25.586000442504883,16.8439998626709 25.586000442504883,16.8439998626709z"></path></g><g opacity="1" transform="matrix(1,0,0,1,127.36000061035156,604.7680053710938)"><path fill="rgb(255,255,255)" fill-opacity="1" d=" M-24.68199920654297,21.017000198364258 C-37.54800033569336,4.145999908447266 -30.687000274658203,-6.382999897003174 -22.599000930786133,-12.550999641418457 C-22.599000930786133,-12.550999641418457 7.479000091552734,-35.487998962402344 7.479000091552734,-35.487998962402344 C7.479000091552734,-35.487998962402344 15.28499984741211,-25.25200080871582 15.28499984741211,-25.25200080871582 C15.28499984741211,-25.25200080871582 -14.791999816894531,-2.315000057220459 -14.791999816894531,-2.315000057220459 C-19.90999984741211,1.5880000591278076 -20.01300048828125,6.564000129699707 -15.145999908447266,12.946000099182129 C-10.37600040435791,19.20199966430664 -5.502999782562256,20.481000900268555 -0.38499999046325684,16.57900047302246 C-0.38499999046325684,16.57900047302246 29.691999435424805,-6.359000205993652 29.691999435424805,-6.359000205993652 C29.691999435424805,-6.359000205993652 37.54800033569336,3.940999984741211 37.54800033569336,3.940999984741211 C37.54800033569336,3.940999984741211 7.468999862670898,26.87700080871582 7.468999862670898,26.87700080871582 C-0.6190000176429749,33.04499816894531 -13.647000312805176,35.48699951171875 -24.68199920654297,21.017000198364258z"></path></g><g opacity="1" transform="matrix(1,0,0,1,180.531005859375,663.6480102539062)"><path fill="rgb(255,255,255)" fill-opacity="1" d=" M-1.1970000267028809,-39.5099983215332 C-1.1970000267028809,-39.5099983215332 8.633999824523926,-31.200000762939453 8.633999824523926,-31.200000762939453 C8.633999824523926,-31.200000762939453 4.548999786376953,15.602999687194824 4.548999786376953,15.602999687194824 C4.548999786376953,15.602999687194824 29.32699966430664,-13.706999778747559 29.32699966430664,-13.706999778747559 C29.32699966430664,-13.706999778747559 39.159000396728516,-5.396999835968018 39.159000396728516,-5.396999835968018 C39.159000396728516,-5.396999835968018 1.1970000267028809,39.5099983215332 1.1970000267028809,39.5099983215332 C1.1970000267028809,39.5099983215332 -8.633999824523926,31.198999404907227 -8.633999824523926,31.198999404907227 C-8.633999824523926,31.198999404907227 -4.551000118255615,-15.604000091552734 -4.551000118255615,-15.604000091552734 C-4.551000118255615,-15.604000091552734 -29.327999114990234,13.706000328063965 -29.327999114990234,13.706000328063965 C-29.327999114990234,13.706000328063965 -39.159000396728516,5.395999908447266 -39.159000396728516,5.395999908447266 C-39.159000396728516,5.395999908447266 -1.1970000267028809,-39.5099983215332 -1.1970000267028809,-39.5099983215332z"></path></g><g opacity="1" transform="matrix(1,0,0,1,251.1020050048828,710.344970703125)"><path fill="rgb(255,255,255)" fill-opacity="1" d=" M-13.756999969482422,-40.31700134277344 C-13.756999969482422,-40.31700134277344 14.569999694824219,-25.55699920654297 14.569999694824219,-25.55699920654297 C40.92399978637695,-11.82699966430664 13.756999969482422,40.316001892089844 -12.597000122070312,26.584999084472656 C-12.597000122070312,26.584999084472656 -40.92399978637695,11.82800006866455 -40.92399978637695,11.82800006866455 C-40.92399978637695,11.82800006866455 -13.756999969482422,-40.31700134277344 -13.756999969482422,-40.31700134277344z M-10.152999877929688,16.391000747680664 C5.2789998054504395,24.430999755859375 23.084999084472656,-9.744999885559082 7.6529998779296875,-17.78499984741211 C7.6529998779296875,-17.78499984741211 -6.933000087738037,-25.382999420166016 -6.933000087738037,-25.382999420166016 C-6.933000087738037,-25.382999420166016 -24.73900032043457,8.791999816894531 -24.73900032043457,8.791999816894531 C-24.73900032043457,8.791999816894531 -10.152999877929688,16.391000747680664 -10.152999877929688,16.391000747680664z"></path></g><g opacity="1" transform="matrix(1,0,0,1,363.0299987792969,745.0440063476562)"><path fill="rgb(255,255,255)" fill-opacity="1" d=" M-28.131999969482422,-33.52199935913086 C-28.131999969482422,-33.52199935913086 -15.378999710083008,-31.777000427246094 -15.378999710083008,-31.777000427246094 C-15.378999710083008,-31.777000427246094 -0.28999999165534973,2.125 -0.28999999165534973,2.125 C-0.28999999165534973,2.125 23.351999282836914,-26.47599983215332 23.351999282836914,-26.47599983215332 C23.351999282836914,-26.47599983215332 36.104000091552734,-24.731000900268555 36.104000091552734,-24.731000900268555 C36.104000091552734,-24.731000900268555 28.132999420166016,33.52199935913086 28.132999420166016,33.52199935913086 C28.132999420166016,33.52199935913086 15.380000114440918,31.777000427246094 15.380000114440918,31.777000427246094 C15.380000114440918,31.777000427246094 20.79800033569336,-7.820000171661377 20.79800033569336,-7.820000171661377 C20.79800033569336,-7.820000171661377 3.0269999504089355,15.972000122070312 3.0269999504089355,15.972000122070312 C3.0269999504089355,15.972000122070312 -7.206999778747559,14.571999549865723 -7.206999778747559,14.571999549865723 C-7.206999778747559,14.571999549865723 -17.93199920654297,-13.119999885559082 -17.93199920654297,-13.119999885559082 C-17.93199920654297,-13.119999885559082 -23.350000381469727,26.47599983215332 -23.350000381469727,26.47599983215332 C-23.350000381469727,26.47599983215332 -36.104000091552734,24.731000900268555 -36.104000091552734,24.731000900268555 C-36.104000091552734,24.731000900268555 -28.131999969482422,-33.52199935913086 -28.131999969482422,-33.52199935913086z"></path></g><g opacity="1" transform="matrix(1,0,0,1,450.0119934082031,747.7630004882812)"><path fill="rgb(255,255,255)" fill-opacity="1" d=" M10.944000244140625,14.218999862670898 C10.944000244140625,14.218999862670898 -13.414999961853027,16.56800079345703 -13.414999961853027,16.56800079345703 C-13.414999961853027,16.56800079345703 -16.607999801635742,29.808000564575195 -16.607999801635742,29.808000564575195 C-16.607999801635742,29.808000564575195 -29.656999588012695,31.06599998474121 -29.656999588012695,31.06599998474121 C-29.656999588012695,31.06599998474121 -13.395999908447266,-29.56999969482422 -13.395999908447266,-29.56999969482422 C-13.395999908447266,-29.56999969482422 2.1050000190734863,-31.06599998474121 2.1050000190734863,-31.06599998474121 C2.1050000190734863,-31.06599998474121 29.656999588012695,25.344999313354492 29.656999588012695,25.344999313354492 C29.656999588012695,25.344999313354492 16.608999252319336,26.60300064086914 16.608999252319336,26.60300064086914 C16.608999252319336,26.60300064086914 10.944000244140625,14.218999862670898 10.944000244140625,14.218999862670898z M6.172999858856201,3.6630001068115234 C6.172999858856201,3.6630001068115234 -4.645999908447266,-19.95800018310547 -4.645999908447266,-19.95800018310547 C-4.645999908447266,-19.95800018310547 -10.75100040435791,5.296000003814697 -10.75100040435791,5.296000003814697 C-10.75100040435791,5.296000003814697 6.172999858856201,3.6630001068115234 6.172999858856201,3.6630001068115234z"></path></g><g opacity="1" transform="matrix(1,0,0,1,523.6170043945312,730.7769775390625)"><path fill="rgb(255,255,255)" fill-opacity="1" d=" M-34.231998443603516,-19.76300048828125 C-34.231998443603516,-19.76300048828125 -21.993999481201172,-23.753000259399414 -21.993999481201172,-23.753000259399414 C-21.993999481201172,-23.753000259399414 15.663999557495117,4.3379998207092285 15.663999557495117,4.3379998207092285 C15.663999557495117,4.3379998207092285 3.7679998874664307,-32.1510009765625 3.7679998874664307,-32.1510009765625 C3.7679998874664307,-32.1510009765625 16.006000518798828,-36.14099884033203 16.006000518798828,-36.14099884033203 C16.006000518798828,-36.14099884033203 34.231998443603516,19.76300048828125 34.231998443603516,19.76300048828125 C34.231998443603516,19.76300048828125 21.993000030517578,23.753999710083008 21.993000030517578,23.753999710083008 C21.993000030517578,23.753999710083008 -15.663999557495117,-4.336999893188477 -15.663999557495117,-4.336999893188477 C-15.663999557495117,-4.336999893188477 -3.7679998874664307,32.1510009765625 -3.7679998874664307,32.1510009765625 C-3.7679998874664307,32.1510009765625 -16.006999969482422,36.14099884033203 -16.006999969482422,36.14099884033203 C-16.006999969482422,36.14099884033203 -34.231998443603516,-19.76300048828125 -34.231998443603516,-19.76300048828125z"></path></g><g opacity="1" transform="matrix(1,0,0,1,604.2249755859375,704.2059936523438)"><path fill="rgb(255,255,255)" fill-opacity="1" d=" M9.473999977111816,2.3929998874664307 C9.473999977111816,2.3929998874664307 -11.590999603271484,14.85200023651123 -11.590999603271484,14.85200023651123 C-11.590999603271484,14.85200023651123 -8.866999626159668,28.19700050354004 -8.866999626159668,28.19700050354004 C-8.866999626159668,28.19700050354004 -20.150999069213867,34.87099838256836 -20.150999069213867,34.87099838256836 C-20.150999069213867,34.87099838256836 -31.141000747680664,-26.94300079345703 -31.141000747680664,-26.94300079345703 C-31.141000747680664,-26.94300079345703 -17.73699951171875,-34.87099838256836 -17.73699951171875,-34.87099838256836 C-17.73699951171875,-34.87099838256836 31.141000747680664,4.5329999923706055 31.141000747680664,4.5329999923706055 C31.141000747680664,4.5329999923706055 19.85700035095215,11.208000183105469 19.85700035095215,11.208000183105469 C19.85700035095215,11.208000183105469 9.473999977111816,2.3929998874664307 9.473999977111816,2.3929998874664307z M0.6769999861717224,-5.14300012588501 C0.6769999861717224,-5.14300012588501 -19.139999389648438,-21.947999954223633 -19.139999389648438,-21.947999954223633 C-19.139999389648438,-21.947999954223633 -13.958999633789062,3.513000011444092 -13.958999633789062,3.513000011444092 C-13.958999633789062,3.513000011444092 0.6769999861717224,-5.14300012588501 0.6769999861717224,-5.14300012588501z"></path></g><g opacity="1" transform="matrix(1,0,0,1,655.4879760742188,653.5960083007812)"><path fill="rgb(255,255,255)" fill-opacity="1" d=" M-21.63800048828125,19.63599967956543 C-33.02299880981445,7.327000141143799 -32.323001861572266,-12.045000076293945 -19.898000717163086,-23.53700065612793 C-12.48900032043457,-30.388999938964844 -2.6110000610351562,-32.814998626708984 6.598999977111816,-31.051000595092773 C6.598999977111816,-31.051000595092773 4.09499979019165,-18.777999877929688 4.09499979019165,-18.777999877929688 C-1.3760000467300415,-19.777999877929688 -7.169000148773193,-18.316999435424805 -11.543999671936035,-14.270000457763672 C-18.836000442504883,-7.526000022888184 -19.340999603271484,3.9820001125335693 -12.595999717712402,11.27299976348877 C-5.797999858856201,18.62299919128418 5.072999954223633,19.610000610351562 14.114999771118164,11.246000289916992 C17.555999755859375,8.062999725341797 20.525999069213867,1.093999981880188 19.632999420166016,-3.384000062942505 C19.632999420166016,-3.384000062942505 15.369999885559082,-7.992000102996826 15.369999885559082,-7.992000102996826 C15.369999885559082,-7.992000102996826 6.0370001792907715,0.640999972820282 6.0370001792907715,0.640999972820282 C6.0370001792907715,0.640999972820282 -0.921999990940094,-6.883999824523926 -0.921999990940094,-6.883999824523926 C-0.921999990940094,-6.883999824523926 16.69300079345703,-23.17799949645996 16.69300079345703,-23.17799949645996 C16.69300079345703,-23.17799949645996 30.559999465942383,-8.185999870300293 30.559999465942383,-8.185999870300293 C33.02199935913086,2.1989998817443848 29.93600082397461,13.607000350952148 21.5939998626709,21.322999954223633 C9.168999671936035,32.814998626708984 -10.145999908447266,32.06100082397461 -21.63800048828125,19.63599967956543z"></path></g><g opacity="1" transform="matrix(1,0,0,1,705.8389892578125,596.4530029296875)"><path fill="rgb(255,255,255)" fill-opacity="1" d=" M-2.6540000438690186,-28.14900016784668 C-2.6540000438690186,-28.14900016784668 -21.1200008392334,-1.9900000095367432 -21.1200008392334,-1.9900000095367432 C-21.1200008392334,-1.9900000095367432 -10.734000205993652,5.341000080108643 -10.734000205993652,5.341000080108643 C-10.734000205993652,5.341000080108643 7,-19.77899932861328 7,-19.77899932861328 C7,-19.77899932861328 16.152000427246094,-13.317999839782715 16.152000427246094,-13.317999839782715 C16.152000427246094,-13.317999839782715 -1.5809999704360962,11.802000045776367 -1.5809999704360962,11.802000045776367 C-1.5809999704360962,11.802000045776367 8.609000205993652,18.996999740600586 8.609000205993652,18.996999740600586 C8.609000205993652,18.996999740600586 27.57900047302246,-7.876999855041504 27.57900047302246,-7.876999855041504 C27.57900047302246,-7.876999855041504 36.731998443603516,-1.4160000085830688 36.731998443603516,-1.4160000085830688 C36.731998443603516,-1.4160000085830688 11.302000045776367,34.61000061035156 11.302000045776367,34.61000061035156 C11.302000045776367,34.61000061035156 -36.731998443603516,0.7020000219345093 -36.731998443603516,0.7020000219345093 C-36.731998443603516,0.7020000219345093 -11.805000305175781,-34.61000061035156 -11.805000305175781,-34.61000061035156 C-11.805000305175781,-34.61000061035156 -2.6540000438690186,-28.14900016784668 -2.6540000438690186,-28.14900016784668z"></path></g><g opacity="1" transform="matrix(1,0,0,1,741.5360107421875,532.5889892578125)"><path fill="rgb(255,255,255)" fill-opacity="1" d=" M-36.685001373291016,10.71399974822998 C-36.685001373291016,10.71399974822998 -25.788000106811523,-14.267000198364258 -25.788000106811523,-14.267000198364258 C-17.08300018310547,-34.22200012207031 13.82699966430664,-22.21299934387207 10.093999862670898,-3.121999979019165 C10.093999862670898,-3.121999979019165 36.685001373291016,-10.42199993133545 36.685001373291016,-10.42199993133545 C36.685001373291016,-10.42199993133545 30.871000289916992,2.9059998989105225 30.871000289916992,2.9059998989105225 C30.871000289916992,2.9059998989105225 4.835999965667725,9.928000450134277 4.835999965667725,9.928000450134277 C4.835999965667725,9.928000450134277 3.055999994277954,14.005999565124512 3.055999994277954,14.005999565124512 C3.055999994277954,14.005999565124512 22.35700035095215,22.424999237060547 22.35700035095215,22.424999237060547 C22.35700035095215,22.424999237060547 17.211000442504883,34.222999572753906 17.211000442504883,34.222999572753906 C17.211000442504883,34.222999572753906 -36.685001373291016,10.71399974822998 -36.685001373291016,10.71399974822998z M-1.8930000066757202,-1.6759999990463257 C1.9830000400543213,-10.562000274658203 -12.800999641418457,-17.01099967956543 -16.677000045776367,-8.125 C-16.677000045776367,-8.125 -21.663999557495117,3.309000015258789 -21.663999557495117,3.309000015258789 C-21.663999557495117,3.309000015258789 -6.880000114440918,9.758000373840332 -6.880000114440918,9.758000373840332 C-6.880000114440918,9.758000373840332 -1.8930000066757202,-1.6759999990463257 -1.8930000066757202,-1.6759999990463257z"></path></g><g opacity="1" transform="matrix(1,0,0,1,770.2219848632812,377.3110046386719)"><path fill="rgb(255,255,255)" fill-opacity="1" d=" M0,-61.78200149536133 C0,-61.78200149536133 15.335000038146973,-14.585000038146973 15.335000038146973,-14.585000038146973 C15.335000038146973,-14.585000038146973 64.96099853515625,-14.585000038146973 64.96099853515625,-14.585000038146973 C64.96099853515625,-14.585000038146973 24.812999725341797,14.583999633789062 24.812999725341797,14.583999633789062 C24.812999725341797,14.583999633789062 40.14799880981445,61.78200149536133 40.14799880981445,61.78200149536133 C40.14799880981445,61.78200149536133 0,32.61199951171875 0,32.61199951171875 C0,32.61199951171875 -40.14799880981445,61.78200149536133 -40.14799880981445,61.78200149536133 C-40.14799880981445,61.78200149536133 -24.812999725341797,14.583999633789062 -24.812999725341797,14.583999633789062 C-24.812999725341797,14.583999633789062 -64.96099853515625,-14.585000038146973 -64.96099853515625,-14.585000038146973 C-64.96099853515625,-14.585000038146973 -15.335000038146973,-14.585000038146973 -15.335000038146973,-14.585000038146973 C-15.335000038146973,-14.585000038146973 0,-61.78200149536133 0,-61.78200149536133z"></path></g><g opacity="1" transform="matrix(1,0,0,1,65.21099853515625,377.3110046386719)"><path fill="rgb(255,255,255)" fill-opacity="1" d=" M0,-61.78200149536133 C0,-61.78200149536133 15.335000038146973,-14.585000038146973 15.335000038146973,-14.585000038146973 C15.335000038146973,-14.585000038146973 64.96099853515625,-14.585000038146973 64.96099853515625,-14.585000038146973 C64.96099853515625,-14.585000038146973 24.812999725341797,14.583999633789062 24.812999725341797,14.583999633789062 C24.812999725341797,14.583999633789062 40.14799880981445,61.78200149536133 40.14799880981445,61.78200149536133 C40.14799880981445,61.78200149536133 0,32.61199951171875 0,32.61199951171875 C0,32.61199951171875 -40.14799880981445,61.78200149536133 -40.14799880981445,61.78200149536133 C-40.14799880981445,61.78200149536133 -24.812999725341797,14.583999633789062 -24.812999725341797,14.583999633789062 C-24.812999725341797,14.583999633789062 -64.96099853515625,-14.585000038146973 -64.96099853515625,-14.585000038146973 C-64.96099853515625,-14.585000038146973 -15.335000038146973,-14.585000038146973 -15.335000038146973,-14.585000038146973 C-15.335000038146973,-14.585000038146973 0,-61.78200149536133 0,-61.78200149536133z"></path></g></g></g></svg>