<svg xmlns="http://www.w3.org/2000/svg" xmlns:xlink="http://www.w3.org/1999/xlink" viewBox="0 0 1920 1080" preserveAspectRatio="xMidYMid meet"><defs><clipPath id="__lottie_element_2"><rect width="1920" height="1080" x="0" y="0"></rect></clipPath><image xlink:href="/lottie/home/images/img_0.png"></image><image xlink:href="/lottie/home/images/img_1.png"></image><image xlink:href="/lottie/home/images/img_2.png"></image><image xlink:href="/lottie/home/images/img_3.png"></image><image xlink:href="/lottie/home/images/img_4.png"></image><image xlink:href="/lottie/home/images/img_5.png"></image><image xlink:href="/lottie/home/images/img_6.png"></image><image xlink:href="/lottie/home/images/img_7.png"></image><image xlink:href="/lottie/home/images/img_8.png"></image><image xlink:href="/lottie/home/images/img_9.png"></image><image xlink:href="/lottie/home/images/img_10.png"></image><image xlink:href="/lottie/home/images/img_11.png"></image><image xlink:href="/lottie/home/images/img_12.png"></image><image xlink:href="/lottie/home/images/img_13.png"></image><image xlink:href="/lottie/home/images/img_14.png"></image><image xlink:href="/lottie/home/images/img_15.png"></image><image xlink:href="/lottie/home/images/img_16.png"></image><g id="__lottie_element_18"><g style="display: block;" transform="matrix(1,0,0,1,-148.9359893798828,362.71600341796875)" opacity="1"><g opacity="1" transform="matrix(1,0,0,1,370.5419921875,304.875)"><path fill="rgb(244,244,244)" fill-opacity="1" d=" M45.37799835205078,-205.71499633789062 C45.37799835205078,-205.71499633789062 45.270999908447266,-149.41400146484375 45.270999908447266,-149.41400146484375 C45.270999908447266,-149.41400146484375 3.565999984741211,-117.73100280761719 3.565999984741211,-117.73100280761719 C3.565999984741211,-117.73100280761719 3.4590001106262207,-57.81700134277344 3.4590001106262207,-57.81700134277344 C3.4590001106262207,-57.81700134277344 -43.51599884033203,-25.392000198364258 -43.51599884033203,-25.392000198364258 C-43.51599884033203,-25.392000198364258 -43.625,30.40399932861328 -43.625,30.40399932861328 C-43.625,30.40399932861328 -90.12699890136719,65.33399963378906 -90.12699890136719,65.33399963378906 C-90.12699890136719,65.33399963378906 -90.23400115966797,125.7770004272461 -90.23400115966797,125.7770004272461 C-90.23400115966797,125.7770004272461 -132.89500427246094,159.66299438476562 -132.89500427246094,159.66299438476562 C-132.89500427246094,159.66299438476562 -133.0030059814453,215.96600341796875 -133.0030059814453,215.96600341796875 C-133.0030059814453,215.96600341796875 -179.4949951171875,247.80499267578125 -179.4949951171875,247.80499267578125 C-179.4949951171875,247.80499267578125 -179.6020050048828,304.625 -179.6020050048828,304.625 C-179.6020050048828,304.625 178.9770050048828,31.23200035095215 178.9770050048828,31.23200035095215 C178.9770050048828,31.23200035095215 179.6020050048828,-304.625 179.6020050048828,-304.625 C179.6020050048828,-304.625 45.37799835205078,-205.71499633789062 45.37799835205078,-205.71499633789062z"></path></g></g></g><mask id="__lottie_element_18_1" mask-type="alpha"><use xlink:href="#__lottie_element_18"></use></mask><g id="__lottie_element_24"><g style="display: block;" transform="matrix(1,0,0,1,-149.0419921875,357.8769836425781)" opacity="1"><g opacity="1" transform="matrix(1,0,0,1,95.7020034790039,534.0570068359375)"><path fill="rgb(229,229,229)" fill-opacity="1" d=" M95.34500122070312,80.28299713134766 C95.34500122070312,80.28299713134766 -95.4520034790039,-23.457000732421875 -95.4520034790039,-23.457000732421875 C-95.4520034790039,-23.457000732421875 -95.34400177001953,-80.28399658203125 -95.34400177001953,-80.28399658203125 C-95.34400177001953,-80.28399658203125 95.4520034790039,23.464000701904297 95.4520034790039,23.464000701904297 C95.4520034790039,23.464000701904297 95.34500122070312,80.28299713134766 95.34500122070312,80.28299713134766z"></path></g><g opacity="1" transform="matrix(1,0,0,1,142.302001953125,445.65399169921875)"><path fill="rgb(229,229,229)" fill-opacity="1" d=" M95.34400177001953,80.0260009765625 C95.34400177001953,80.0260009765625 -95.4520034790039,-23.725000381469727 -95.4520034790039,-23.725000381469727 C-95.4520034790039,-23.725000381469727 -95.34500122070312,-80.0260009765625 -95.34500122070312,-80.0260009765625 C-95.34500122070312,-80.0260009765625 95.4520034790039,23.724000930786133 95.4520034790039,23.724000930786133 C95.4520034790039,23.724000930786133 95.34400177001953,80.0260009765625 95.34400177001953,80.0260009765625z"></path></g><g opacity="1" transform="matrix(1,0,0,1,185.06900024414062,353.3999938964844)"><path fill="rgb(229,229,229)" fill-opacity="1" d=" M95.34500122070312,82.08999633789062 C95.34500122070312,82.08999633789062 -95.4520034790039,-21.64900016784668 -95.4520034790039,-21.64900016784668 C-95.4520034790039,-21.64900016784668 -95.34400177001953,-82.08999633789062 -95.34400177001953,-82.08999633789062 C-95.34400177001953,-82.08999633789062 95.4520034790039,21.64900016784668 95.4520034790039,21.64900016784668 C95.4520034790039,21.64900016784668 95.34500122070312,82.08999633789062 95.34500122070312,82.08999633789062z"></path></g><g opacity="1" transform="matrix(1,0,0,1,231.6790008544922,260.34600830078125)"><path fill="rgb(229,229,229)" fill-opacity="1" d=" M95.34400177001953,79.77200317382812 C95.34400177001953,79.77200317382812 -95.4520034790039,-23.97800064086914 -95.4520034790039,-23.97800064086914 C-95.4520034790039,-23.97800064086914 -95.34500122070312,-79.77300262451172 -95.34500122070312,-79.77300262451172 C-95.34500122070312,-79.77300262451172 95.4520034790039,23.97800064086914 95.4520034790039,23.97800064086914 C95.4520034790039,23.97800064086914 95.34400177001953,79.77200317382812 95.34400177001953,79.77200317382812z"></path></g><g opacity="1" transform="matrix(1,0,0,1,278.76300048828125,170.0659942626953)"><path fill="rgb(229,229,229)" fill-opacity="1" d=" M95.34400177001953,81.83200073242188 C95.34400177001953,81.83200073242188 -95.4520034790039,-21.906999588012695 -95.4520034790039,-21.906999588012695 C-95.4520034790039,-21.906999588012695 -95.34500122070312,-81.83200073242188 -95.34500122070312,-81.83200073242188 C-95.34500122070312,-81.83200073242188 95.4520034790039,21.917999267578125 95.4520034790039,21.917999267578125 C95.4520034790039,21.917999267578125 95.34400177001953,81.83200073242188 95.34400177001953,81.83200073242188z"></path></g><g opacity="1" transform="matrix(1,0,0,1,320.572998046875,80.2750015258789)"><path fill="rgb(229,229,229)" fill-opacity="1" d=" M95.34500122070312,80.0260009765625 C95.34500122070312,80.0260009765625 -95.4520034790039,-23.724000930786133 -95.4520034790039,-23.724000930786133 C-95.4520034790039,-23.724000930786133 -95.34400177001953,-80.0260009765625 -95.34400177001953,-80.0260009765625 C-95.34400177001953,-80.0260009765625 95.4520034790039,23.724000930786133 95.4520034790039,23.724000930786133 C95.4520034790039,23.724000930786133 95.34500122070312,80.0260009765625 95.34500122070312,80.0260009765625z"></path></g></g></g><mask id="__lottie_element_24_1" mask-type="alpha"><use xlink:href="#__lottie_element_24"></use></mask><g id="__lottie_element_30"><g style="display: block;" transform="matrix(1,0,0,1,959.9990234375,529.301025390625)" opacity="1"><g opacity="1" transform="matrix(1,0,0,1,0,0)"><path fill="rgb(244,244,244)" fill-opacity="1" d=" M-839,-203 C-839,-203 -884.25,-170.875 -884.25,-170.875 C-884.25,-170.875 -692.5,-67.25 -692.5,-67.25 C-692.5,-67.25 -652.5,-97.25 -652.5,-97.25 C-652.5,-97.25 -839,-203 -839,-203z"></path></g></g></g><mask id="__lottie_element_30_1" mask-type="alpha"><use xlink:href="#__lottie_element_30"></use></mask><g id="__lottie_element_49"><g style="display: block;" transform="matrix(1,0,0,1,1580.1409912109375,524.0830078125)" opacity="1"><g opacity="1" transform="matrix(1,0,0,1,243.68499755859375,361.7799987792969)"><path fill="rgb(229,229,229)" fill-opacity="1" d=" M-134.3249969482422,43.417999267578125 C-134.3249969482422,43.417999267578125 74.50499725341797,-77.96700286865234 74.50499725341797,-77.96700286865234 C74.50499725341797,-77.96700286865234 134.3249969482422,-43.42300033569336 134.3249969482422,-43.42300033569336 C134.3249969482422,-43.42300033569336 -74.50499725341797,77.96700286865234 -74.50499725341797,77.96700286865234 C-74.50499725341797,77.96700286865234 -134.3249969482422,43.417999267578125 -134.3249969482422,43.417999267578125z"></path></g><g opacity="1" transform="matrix(1,0,0,1,321.4049987792969,493.62200927734375)"><path fill="rgb(229,229,229)" fill-opacity="1" d=" M-152.46499633789062,32.94499969482422 C-152.46499633789062,32.94499969482422 56.35499954223633,-88.44499969482422 56.35499954223633,-88.44499969482422 C56.35499954223633,-88.44499969482422 152.46499633789062,-32.94499969482422 152.46499633789062,-32.94499969482422 C152.46499633789062,-32.94499969482422 -56.3650016784668,88.44499969482422 -56.3650016784668,88.44499969482422 C-56.3650016784668,88.44499969482422 -152.46499633789062,32.94499969482422 -152.46499633789062,32.94499969482422z"></path></g><g opacity="1" transform="matrix(1,0,0,1,183.60499572753906,205.78900146484375)"><path fill="rgb(229,229,229)" fill-opacity="1" d=" M-134.9250030517578,43.08000183105469 C-134.9250030517578,43.08000183105469 73.8949966430664,-78.3219985961914 73.8949966430664,-78.3219985961914 C73.8949966430664,-78.3219985961914 134.9250030517578,-43.06800079345703 134.9250030517578,-43.06800079345703 C134.9250030517578,-43.06800079345703 -73.8949966430664,78.3219985961914 -73.8949966430664,78.3219985961914 C-73.8949966430664,78.3219985961914 -134.9250030517578,43.08000183105469 -134.9250030517578,43.08000183105469z"></path></g><g opacity="1" transform="matrix(1,0,0,1,129.01499938964844,75.01000213623047)"><path fill="rgb(229,229,229)" fill-opacity="1" d=" M-128.76499938964844,46.62900161743164 C-128.76499938964844,46.62900161743164 80.05500030517578,-74.76000213623047 80.05500030517578,-74.76000213623047 C80.05500030517578,-74.76000213623047 128.76499938964844,-46.62900161743164 128.76499938964844,-46.62900161743164 C128.76499938964844,-46.62900161743164 -80.05500030517578,74.76000213623047 -80.05500030517578,74.76000213623047 C-80.05500030517578,74.76000213623047 -128.76499938964844,46.62900161743164 -128.76499938964844,46.62900161743164z"></path></g></g></g><g id="__lottie_element_48"><g style="display: block;" transform="matrix(1,0,0,1,960,539.9990234375)" opacity="1"><g opacity="1" transform="matrix(1,0,0,1,0,0)"><path fill="rgb(229,229,229)" fill-opacity="1" d=" M779.125,-134.5 C779.125,-134.5 606,-34 606,-34 C606,-34 508.625,-91.25 508.625,-91.25 C508.625,-91.25 470.5,-69 470.5,-69 C470.5,-69 620,14 620,14 C620,14 828,-107 828,-107 C828,-107 779.125,-134.5 779.125,-134.5z"></path></g></g></g><mask id="__lottie_element_48_1" mask-type="alpha"><use xlink:href="#__lottie_element_48"></use></mask><mask id="__lottie_element_49_1" mask-type="alpha"><use xlink:href="#__lottie_element_49"></use></mask><g id="__lottie_element_63"><g style="display: block;" transform="matrix(1,0,0,1,1429.501953125,433.5889892578125)" opacity="1"><g opacity="1" transform="matrix(1,0,0,1,207.3350067138672,403.8450012207031)"><path fill="rgb(244,244,244)" fill-opacity="1" d=" M-207.0850067138672,128.77699279785156 C-207.0850067138672,128.77699279785156 206.802001953125,367.80499267578125 206.802001953125,367.80499267578125 C206.802001953125,367.80499267578125 206.80499267578125,367.80499267578125 206.80499267578125,367.80499267578125 C206.80499267578125,367.80499267578125 207.0850067138672,268.71600341796875 207.0850067138672,268.71600341796875 C207.0850067138672,268.71600341796875 110.98500061035156,213.2169952392578 110.98500061035156,213.2169952392578 C110.98500061035156,213.2169952392578 111.2249984741211,126.39600372314453 111.2249984741211,126.39600372314453 C111.2249984741211,126.39600372314453 51.404998779296875,91.84700012207031 51.404998779296875,91.84700012207031 C51.404998779296875,91.84700012207031 51.755001068115234,-29.23900032043457 51.755001068115234,-29.23900032043457 C51.755001068115234,-29.23900032043457 -9.265000343322754,-64.48100280761719 -9.265000343322754,-64.48100280761719 C-9.265000343322754,-64.48100280761719 -8.994999885559082,-163.58099365234375 -8.994999885559082,-163.58099365234375 C-8.994999885559082,-163.58099365234375 -57.70500183105469,-191.71099853515625 -57.70500183105469,-191.71099853515625 C-57.70500183105469,-191.71099853515625 -57.44499969482422,-282.2049865722656 -57.44499969482422,-282.2049865722656 C-57.44499969482422,-282.2049865722656 -205.6750030517578,-367.80499267578125 -205.6750030517578,-367.80499267578125 C-205.6750030517578,-367.80499267578125 -207.0850067138672,128.77699279785156 -207.0850067138672,128.77699279785156z"></path></g></g></g><mask id="__lottie_element_63_1" mask-type="alpha"><use xlink:href="#__lottie_element_63"></use></mask><g id="__lottie_element_78"><g style="display: block;" transform="matrix(1,0,0,1,75.93700408935547,258.9670104980469)" opacity="1"><g opacity="1" transform="matrix(1,0,0,1,162.75999450683594,101.58000183105469)"><path fill="rgb(244,244,244)" fill-opacity="1" d=" M28.285999298095703,101.33000183105469 C28.285999298095703,101.33000183105469 -162.50999450683594,-2.4200000762939453 -162.50999450683594,-2.4200000762939453 C-162.50999450683594,-2.4200000762939453 -28.28700065612793,-101.33000183105469 -28.28700065612793,-101.33000183105469 C-28.28700065612793,-101.33000183105469 162.50999450683594,2.4200000762939453 162.50999450683594,2.4200000762939453 C162.50999450683594,2.4200000762939453 28.285999298095703,101.33000183105469 28.285999298095703,101.33000183105469z"></path></g></g></g><mask id="__lottie_element_78_1" mask-type="alpha"><use xlink:href="#__lottie_element_78"></use></mask><g id="__lottie_element_84"><g style="display: block;" transform="matrix(1,0,0,1,1432.1710205078125,347.9889831542969)" opacity="1"><g opacity="1" transform="matrix(1,0,0,1,178.77499389648438,103.74500274658203)"><path fill="rgb(229,229,229)" fill-opacity="1" d=" M-178.52499389648438,17.895000457763672 C-178.52499389648438,17.895000457763672 30.295000076293945,-103.49500274658203 30.295000076293945,-103.49500274658203 C30.295000076293945,-103.49500274658203 178.52499389648438,-17.895000457763672 178.52499389648438,-17.895000457763672 C178.52499389648438,-17.895000457763672 -30.295000076293945,103.49500274658203 -30.295000076293945,103.49500274658203 C-30.295000076293945,103.49500274658203 -178.52499389648438,17.895000457763672 -178.52499389648438,17.895000457763672z"></path></g></g></g><mask id="__lottie_element_84_1" mask-type="alpha"><use xlink:href="#__lottie_element_84"></use></mask><g id="__lottie_element_90"><g style="display: block;" transform="matrix(1,0,0,1,731.3819580078125,642.7109985351562)" opacity="1"><g opacity="1" transform="matrix(1,0,0,1,60.025001525878906,77.05500030517578)"><path fill="rgb(205,242,252)" fill-opacity="1" d=" M-0.014999999664723873,-68.58899688720703 C-0.014999999664723873,-68.58899688720703 1.8650000095367432,-69.28500366210938 1.8650000095367432,-69.28500366210938 C2.5950000286102295,-70.01699829101562 3.325000047683716,-70.39900207519531 4.054999828338623,-70.74700164794922 C4.054999828338623,-70.74700164794922 5.554999828338623,-71.16400146484375 5.554999828338623,-71.16400146484375 C6.324999809265137,-71.86100006103516 7.054999828338623,-72.17400360107422 7.784999847412109,-72.48799896240234 C7.784999847412109,-72.48799896240234 9.28499984741211,-72.76699829101562 9.28499984741211,-72.76699829101562 C10.055000305175781,-73.39399719238281 10.78499984741211,-73.6719970703125 11.475000381469727,-73.95099639892578 C11.475000381469727,-73.95099639892578 12.944999694824219,-74.125 12.944999694824219,-74.125 C13.704999923706055,-74.71700286865234 14.444999694824219,-74.88999938964844 15.135000228881836,-75.0989990234375 C15.135000228881836,-75.0989990234375 16.53499984741211,-75.0989990234375 16.53499984741211,-75.0989990234375 C17.334999084472656,-75.65599822998047 18.03499984741211,-75.7959976196289 18.725000381469727,-75.97000122070312 C18.725000381469727,-75.97000122070312 20.084999084472656,-75.86599731445312 20.084999084472656,-75.86599731445312 C20.885000228881836,-76.35299682617188 21.584999084472656,-76.45700073242188 22.2450008392334,-76.5260009765625 C22.2450008392334,-76.5260009765625 23.575000762939453,-76.31800079345703 23.575000762939453,-76.31800079345703 C24.334999084472656,-76.73600006103516 25.03499984741211,-76.80599975585938 25.69499969482422,-76.80599975585938 C25.69499969482422,-76.80599975585938 26.954999923706055,-76.45700073242188 26.954999923706055,-76.45700073242188 C27.71500015258789,-76.80500030517578 28.375,-76.80599975585938 29.0049991607666,-76.77100372314453 C29.0049991607666,-76.77100372314453 30.225000381469727,-76.28399658203125 30.225000381469727,-76.28399658203125 C30.9950008392334,-76.56199645996094 31.625,-76.49199676513672 32.244998931884766,-76.38800048828125 C32.244998931884766,-76.38800048828125 33.39500045776367,-75.7959976196289 33.39500045776367,-75.7959976196289 C34.165000915527344,-76.04000091552734 34.755001068115234,-75.9000015258789 35.345001220703125,-75.7249984741211 C35.345001220703125,-75.7249984741211 36.42499923706055,-75.02999877929688 36.42499923706055,-75.02999877929688 C37.165000915527344,-75.2040023803711 37.755001068115234,-75.02899932861328 38.314998626708984,-74.78500366210938 C38.314998626708984,-74.78500366210938 39.28499984741211,-73.95099639892578 39.28499984741211,-73.95099639892578 C40.01499938964844,-74.05500030517578 40.57500076293945,-73.81199645996094 41.095001220703125,-73.53299713134766 C41.095001220703125,-73.53299713134766 42.005001068115234,-72.59200286865234 42.005001068115234,-72.59200286865234 C42.70500183105469,-72.66200256347656 43.224998474121094,-72.31300354003906 43.71500015258789,-72 C43.71500015258789,-72 44.54499816894531,-70.9219970703125 44.54499816894531,-70.9219970703125 C45.244998931884766,-70.9219970703125 45.69499969482422,-70.53800201416016 46.185001373291016,-70.15499877929688 C46.185001373291016,-70.15499877929688 46.95500183105469,-68.97100067138672 46.95500183105469,-68.97100067138672 C47.6150016784668,-68.9010009765625 48.064998626708984,-68.48400115966797 48.48500061035156,-68.03099822998047 C48.48500061035156,-68.03099822998047 49.14500045776367,-66.74299621582031 49.14500045776367,-66.74299621582031 C49.80500030517578,-66.60399627685547 50.19499969482422,-66.1520004272461 50.57500076293945,-65.66400146484375 C50.57500076293945,-65.66400146484375 51.165000915527344,-64.27200317382812 51.165000915527344,-64.27200317382812 C51.79499816894531,-64.0979995727539 52.14500045776367,-63.57400131225586 52.494998931884766,-63.016998291015625 C52.494998931884766,-63.016998291015625 52.98500061035156,-61.555999755859375 52.98500061035156,-61.555999755859375 C53.57500076293945,-61.3120002746582 53.8849983215332,-60.720001220703125 54.19499969482422,-60.12900161743164 C54.19499969482422,-60.12900161743164 54.54499816894531,-58.56100082397461 54.54499816894531,-58.56100082397461 C55.10499954223633,-58.24800109863281 55.3849983215332,-57.65700149536133 55.665000915527344,-56.994998931884766 C55.665000915527344,-56.994998931884766 55.94499969482422,-55.358001708984375 55.94499969482422,-55.358001708984375 C56.46500015258789,-55.0099983215332 56.70500183105469,-54.3129997253418 56.915000915527344,-53.652000427246094 C56.915000915527344,-53.652000427246094 57.095001220703125,-51.946998596191406 57.095001220703125,-51.946998596191406 C57.57500076293945,-51.52899932861328 57.755001068115234,-50.797000885009766 57.92499923706055,-50.099998474121094 C57.92499923706055,-50.099998474121094 58.03499984741211,-48.361000061035156 58.03499984741211,-48.361000061035156 C58.48500061035156,-47.8380012512207 58.625,-47.106998443603516 58.76499938964844,-46.340999603271484 C58.76499938964844,-46.340999603271484 58.76499938964844,-44.529998779296875 58.76499938964844,-44.529998779296875 C59.14500045776367,-44.007999420166016 59.255001068115234,-43.207000732421875 59.35499954223633,-42.441001892089844 C59.35499954223633,-42.441001892089844 59.21500015258789,-40.56100082397461 59.21500015258789,-40.56100082397461 C59.564998626708984,-39.933998107910156 59.6349983215332,-39.132999420166016 59.67499923706055,-38.29800033569336 C59.67499923706055,-38.29800033569336 59.46500015258789,-36.382999420166016 59.46500015258789,-36.382999420166016 C59.744998931884766,-35.82600021362305 59.775001525878906,-35.130001068115234 59.775001525878906,-34.433998107910156 C59.775001525878906,-34.433998107910156 59.46500015258789,-32.099998474121094 59.46500015258789,-32.099998474121094 C59.70500183105469,-31.40399932861328 59.70500183105469,-30.534000396728516 59.6349983215332,-29.663000106811523 C59.6349983215332,-29.663000106811523 59.255001068115234,-27.68000030517578 59.255001068115234,-27.68000030517578 C59.46500015258789,-26.947999954223633 59.39500045776367,-26.04199981689453 59.28499984741211,-25.172000885009766 C59.28499984741211,-25.172000885009766 58.76499938964844,-23.152000427246094 58.76499938964844,-23.152000427246094 C58.935001373291016,-22.38599967956543 58.79499816894531,-21.48200035095215 58.69499969482422,-20.57699966430664 C58.69499969482422,-20.57699966430664 58.10499954223633,-18.55699920654297 58.10499954223633,-18.55699920654297 C58.20500183105469,-17.68600082397461 58.064998626708984,-16.7810001373291 57.85499954223633,-15.87600040435791 C57.85499954223633,-15.87600040435791 57.165000915527344,-13.855999946594238 57.165000915527344,-13.855999946594238 C57.23500061035156,-12.986000061035156 57.025001525878906,-12.081999778747559 56.775001525878906,-11.142000198364258 C56.775001525878906,-11.142000198364258 56.01499938964844,-9.121000289916992 56.01499938964844,-9.121000289916992 C56.01499938964844,-8.215999603271484 55.80500030517578,-7.310999870300293 55.525001525878906,-6.335999965667725 C55.525001525878906,-6.335999965667725 54.654998779296875,-4.316999912261963 54.654998779296875,-4.316999912261963 C54.654998779296875,-3.377000093460083 54.334999084472656,-2.437000036239624 54.025001525878906,-1.496000051498413 C54.025001525878906,-1.496000051498413 53.084999084472656,0.4880000054836273 53.084999084472656,0.4880000054836273 C53.01499938964844,1.4279999732971191 52.665000915527344,2.4030001163482666 52.314998626708984,3.308000087738037 C52.314998626708984,3.308000087738037 51.30500030517578,5.291999816894531 51.30500030517578,5.291999816894531 C51.165000915527344,6.267000198364258 50.78499984741211,7.206999778747559 50.404998779296875,8.147000312805176 C50.404998779296875,8.147000312805176 49.32500076293945,10.062000274658203 49.32500076293945,10.062000274658203 C49.14500045776367,11.071000099182129 48.724998474121094,11.97700023651123 48.275001525878906,12.916999816894531 C48.275001525878906,12.916999816894531 47.125,14.79800033569336 47.125,14.79800033569336 C46.915000915527344,15.807000160217285 46.42499923706055,16.71299934387207 45.974998474121094,17.652999877929688 C45.974998474121094,17.652999877929688 44.755001068115234,19.49799919128418 44.755001068115234,19.49799919128418 C44.474998474121094,20.507999420166016 43.994998931884766,21.413000106811523 43.505001068115234,22.283000946044922 C43.505001068115234,22.283000946044922 42.21500015258789,24.05900001525879 42.21500015258789,24.05900001525879 C41.8650016784668,25.034000396728516 41.345001220703125,25.93899917602539 40.814998626708984,26.80900001525879 C40.814998626708984,26.80900001525879 39.494998931884766,28.549999237060547 39.494998931884766,28.549999237060547 C39.14500045776367,29.559999465942383 38.584999084472656,30.395999908447266 37.994998931884766,31.266000747680664 C37.994998931884766,31.266000747680664 36.60499954223633,32.93600082397461 36.60499954223633,32.93600082397461 C36.185001373291016,33.94599914550781 35.595001220703125,34.78200149536133 35.005001068115234,35.61800003051758 C35.005001068115234,35.61800003051758 33.57500076293945,37.21900177001953 33.57500076293945,37.21900177001953 C33.1150016784668,38.22800064086914 32.494998931884766,39.029998779296875 31.895000457763672,39.86600112915039 C31.895000457763672,39.86600112915039 30.434999465942383,41.362998962402344 30.434999465942383,41.362998962402344 C29.94499969482422,42.37200164794922 29.325000762939453,43.13800048828125 28.69499969482422,43.90399932861328 C28.69499969482422,43.90399932861328 27.19499969482422,45.297000885009766 27.19499969482422,45.297000885009766 C26.674999237060547,46.27199935913086 26.0049991607666,47.0369987487793 25.344999313354492,47.768001556396484 C25.344999313354492,47.768001556396484 23.815000534057617,49.05699920654297 23.815000534057617,49.05699920654297 C23.2549991607666,50.03200149536133 22.565000534057617,50.76300048828125 21.895000457763672,51.42499923706055 C21.895000457763672,51.42499923706055 20.334999084472656,52.643001556396484 20.334999084472656,52.643001556396484 C19.735000610351562,53.61800003051758 19.045000076293945,54.24399948120117 18.344999313354492,54.939998626708984 C18.344999313354492,54.939998626708984 16.774999618530273,56.020999908447266 16.774999618530273,56.020999908447266 C16.145000457763672,56.92599868774414 15.454999923706055,57.58700180053711 14.725000381469727,58.2140007019043 C14.725000381469727,58.2140007019043 13.154999732971191,59.18899917602539 13.154999732971191,59.18899917602539 C12.524999618530273,60.058998107910156 11.795000076293945,60.6510009765625 11.0649995803833,61.24300003051758 C11.0649995803833,61.24300003051758 9.494999885559082,62.112998962402344 9.494999885559082,62.112998962402344 C8.835000038146973,62.94900131225586 8.095000267028809,63.50600051879883 7.364999771118164,64.02799987792969 C7.364999771118164,64.02799987792969 5.795000076293945,64.75900268554688 5.795000076293945,64.75900268554688 C5.105000019073486,65.59500122070312 4.375,66.08300018310547 3.6050000190734863,66.56999969482422 C3.6050000190734863,66.56999969482422 2.0350000858306885,67.1969985961914 2.0350000858306885,67.1969985961914 C1.4049999713897705,67.89299774169922 0.7850000262260437,68.2760009765625 0.1550000011920929,68.6240005493164 C0.1550000011920929,68.6240005493164 -1.725000023841858,69.3550033569336 -1.725000023841858,69.3550033569336 C-2.494999885559082,70.08599853515625 -3.2249999046325684,70.46900177001953 -3.924999952316284,70.81800079345703 C-3.924999952316284,70.81800079345703 -5.454999923706055,71.20099639892578 -5.454999923706055,71.20099639892578 C-6.224999904632568,71.89700317382812 -6.954999923706055,72.24500274658203 -7.684999942779541,72.52400207519531 C-7.684999942779541,72.52400207519531 -9.1850004196167,72.802001953125 -9.1850004196167,72.802001953125 C-9.954999923706055,73.42900085449219 -10.6850004196167,73.70700073242188 -11.375,73.98600006103516 C-11.375,73.98600006103516 -12.845000267028809,74.16000366210938 -12.845000267028809,74.16000366210938 C-13.604999542236328,74.75199890136719 -14.345000267028809,74.96099853515625 -15.03499984741211,75.16999816894531 C-15.03499984741211,75.16999816894531 -16.434999465942383,75.16999816894531 -16.434999465942383,75.16999816894531 C-17.19499969482422,75.72699737548828 -17.924999237060547,75.86599731445312 -18.625,76.00499725341797 C-18.625,76.00499725341797 -20.024999618530273,75.86599731445312 -20.024999618530273,75.86599731445312 C-20.825000762939453,76.38800048828125 -21.485000610351562,76.45800018310547 -22.184999465942383,76.56199645996094 C-22.184999465942383,76.56199645996094 -23.5049991607666,76.31800079345703 -23.5049991607666,76.31800079345703 C-24.30500030517578,76.7699966430664 -24.96500015258789,76.77100372314453 -25.635000228881836,76.80599975585938 C-25.635000228881836,76.80599975585938 -26.885000228881836,76.4229965209961 -26.885000228881836,76.4229965209961 C-27.655000686645508,76.80599975585938 -28.344999313354492,76.77100372314453 -28.94499969482422,76.73600006103516 C-28.94499969482422,76.73600006103516 -30.165000915527344,76.2490005493164 -30.165000915527344,76.2490005493164 C-30.924999237060547,76.56199645996094 -31.584999084472656,76.49299621582031 -32.185001373291016,76.35299682617188 C-32.185001373291016,76.35299682617188 -33.334999084472656,75.76200103759766 -33.334999084472656,75.76200103759766 C-34.095001220703125,76.00499725341797 -34.724998474121094,75.86599731445312 -35.28499984741211,75.72699737548828 C-35.28499984741211,75.72699737548828 -36.3650016784668,74.99600219726562 -36.3650016784668,74.99600219726562 C-37.125,75.16999816894531 -37.685001373291016,74.99600219726562 -38.244998931884766,74.75199890136719 C-38.244998931884766,74.75199890136719 -39.255001068115234,73.91600036621094 -39.255001068115234,73.91600036621094 C-39.98500061035156,74.02100372314453 -40.505001068115234,73.7770004272461 -41.064998626708984,73.49800109863281 C-41.064998626708984,73.49800109863281 -41.974998474121094,72.55799865722656 -41.974998474121094,72.55799865722656 C-42.665000915527344,72.62799835205078 -43.19499969482422,72.27999877929688 -43.71500015258789,71.96700286865234 C-43.71500015258789,71.96700286865234 -44.55500030517578,70.9219970703125 -44.55500030517578,70.9219970703125 C-45.244998931884766,70.9219970703125 -45.73500061035156,70.53900146484375 -46.185001373291016,70.15599822998047 C-46.185001373291016,70.15599822998047 -46.92499923706055,69.00700378417969 -46.92499923706055,69.00700378417969 C-47.6150016784668,68.93699645996094 -48.03499984741211,68.48500061035156 -48.48500061035156,68.06700134277344 C-48.48500061035156,68.06700134277344 -49.154998779296875,66.81400299072266 -49.154998779296875,66.81400299072266 C-49.814998626708984,66.67400360107422 -50.19499969482422,66.18699645996094 -50.6150016784668,65.69999694824219 C-50.6150016784668,65.69999694824219 -51.17499923706055,64.34200286865234 -51.17499923706055,64.34200286865234 C-51.79499816894531,64.16799926757812 -52.185001373291016,63.64500045776367 -52.494998931884766,63.0880012512207 C-52.494998931884766,63.0880012512207 -52.98500061035156,61.625999450683594 -52.98500061035156,61.625999450683594 C-53.57500076293945,61.38199996948242 -53.89500045776367,60.78900146484375 -54.20500183105469,60.196998596191406 C-54.20500183105469,60.196998596191406 -54.584999084472656,58.66699981689453 -54.584999084472656,58.66699981689453 C-55.14500045776367,58.35300064086914 -55.42499923706055,57.76100158691406 -55.70500183105469,57.099998474121094 C-55.70500183105469,57.099998474121094 -55.98500061035156,55.4630012512207 -55.98500061035156,55.4630012512207 C-56.505001068115234,55.08000183105469 -56.744998931884766,54.41899871826172 -56.95500183105469,53.75699996948242 C-56.95500183105469,53.75699996948242 -57.1349983215332,52.05099868774414 -57.1349983215332,52.05099868774414 C-57.584999084472656,51.5989990234375 -57.79499816894531,50.902000427246094 -57.96500015258789,50.20600128173828 C-57.96500015258789,50.20600128173828 -58.03499984741211,48.43000030517578 -58.03499984741211,48.43000030517578 C-58.48500061035156,47.94300079345703 -58.625,47.21200180053711 -58.76499938964844,46.44599914550781 C-58.76499938964844,46.44599914550781 -58.76499938964844,44.6349983215332 -58.76499938964844,44.6349983215332 C-59.154998779296875,44.077999114990234 -59.255001068115234,43.27799987792969 -59.32500076293945,42.47700119018555 C-59.32500076293945,42.47700119018555 -59.224998474121094,40.63199996948242 -59.224998474121094,40.63199996948242 C-59.564998626708984,40.005001068115234 -59.6349983215332,39.20399856567383 -59.67499923706055,38.36899948120117 C-59.67499923706055,38.36899948120117 -59.46500015258789,36.45399856567383 -59.46500015258789,36.45399856567383 C-59.775001525878906,35.930999755859375 -59.775001525878906,35.20000076293945 -59.775001525878906,34.50400161743164 C-59.775001525878906,34.50400161743164 -59.46500015258789,32.17100143432617 -59.46500015258789,32.17100143432617 C-59.744998931884766,31.475000381469727 -59.70500183105469,30.60300064086914 -59.6349983215332,29.732999801635742 C-59.6349983215332,29.732999801635742 -59.224998474121094,27.71500015258789 -59.224998474121094,27.71500015258789 C-59.435001373291016,26.982999801635742 -59.3650016784668,26.077999114990234 -59.255001068115234,25.20800018310547 C-59.255001068115234,25.20800018310547 -58.73500061035156,23.187999725341797 -58.73500061035156,23.187999725341797 C-58.904998779296875,22.38800048828125 -58.76499938964844,21.517000198364258 -58.665000915527344,20.57699966430664 C-58.665000915527344,20.57699966430664 -58.07500076293945,18.558000564575195 -58.07500076293945,18.558000564575195 C-58.21500015258789,17.756999969482422 -58.03499984741211,16.7810001373291 -57.82500076293945,15.87600040435791 C-57.82500076293945,15.87600040435791 -57.1349983215332,13.857000350952148 -57.1349983215332,13.857000350952148 C-57.23500061035156,13.020999908447266 -56.994998931884766,12.081999778747559 -56.744998931884766,11.142000198364258 C-56.744998931884766,11.142000198364258 -55.98500061035156,9.121999740600586 -55.98500061035156,9.121999740600586 C-56.01499938964844,8.25100040435791 -55.775001525878906,7.311999797821045 -55.494998931884766,6.372000217437744 C-55.494998931884766,6.372000217437744 -54.625,4.353000164031982 -54.625,4.353000164031982 C-54.625,3.447000026702881 -54.30500030517578,2.4730000495910645 -53.994998931884766,1.5670000314712524 C-53.994998931884766,1.5670000314712524 -53.05500030517578,-0.453000009059906 -53.05500030517578,-0.453000009059906 C-52.98500061035156,-1.3930000066757202 -52.6349983215332,-2.367000102996826 -52.28499984741211,-3.2720000743865967 C-52.28499984741211,-3.2720000743865967 -51.275001525878906,-5.257999897003174 -51.275001525878906,-5.257999897003174 C-51.1349983215332,-6.232999801635742 -50.755001068115234,-7.171999931335449 -50.375,-8.112000465393066 C-50.375,-8.112000465393066 -49.29499816894531,-10.027000427246094 -49.29499816894531,-10.027000427246094 C-49.1150016784668,-11.03600025177002 -48.69499969482422,-11.940999984741211 -48.244998931884766,-12.881999969482422 C-48.244998931884766,-12.881999969482422 -47.095001220703125,-14.76200008392334 -47.095001220703125,-14.76200008392334 C-46.8849983215332,-15.770999908447266 -46.39500045776367,-16.677000045776367 -45.94499969482422,-17.617000579833984 C-45.94499969482422,-17.617000579833984 -44.724998474121094,-19.461999893188477 -44.724998474121094,-19.461999893188477 C-44.44499969482422,-20.472000122070312 -43.95500183105469,-21.341999053955078 -43.474998474121094,-22.246999740600586 C-43.474998474121094,-22.246999740600586 -42.185001373291016,-24.023000717163086 -42.185001373291016,-24.023000717163086 C-41.8650016784668,-25.031999588012695 -41.345001220703125,-25.902999877929688 -40.82500076293945,-26.808000564575195 C-40.82500076293945,-26.808000564575195 -39.494998931884766,-28.513999938964844 -39.494998931884766,-28.513999938964844 C-39.154998779296875,-29.52400016784668 -38.55500030517578,-30.393999099731445 -38.005001068115234,-31.264999389648438 C-38.005001068115234,-31.264999389648438 -36.60499954223633,-32.9010009765625 -36.60499954223633,-32.9010009765625 C-36.224998474121094,-33.9109992980957 -35.6349983215332,-34.74599838256836 -35.03499984741211,-35.617000579833984 C-35.03499984741211,-35.617000579833984 -33.6150016784668,-37.183998107910156 -33.6150016784668,-37.183998107910156 C-33.154998779296875,-38.194000244140625 -32.525001525878906,-38.994998931884766 -31.934999465942383,-39.83100128173828 C-31.934999465942383,-39.83100128173828 -30.475000381469727,-41.327999114990234 -30.475000381469727,-41.327999114990234 C-29.985000610351562,-42.33700180053711 -29.354999542236328,-43.10300064086914 -28.69499969482422,-43.90399932861328 C-28.69499969482422,-43.90399932861328 -27.19499969482422,-45.297000885009766 -27.19499969482422,-45.297000885009766 C-26.674999237060547,-46.27199935913086 -26.045000076293945,-47.00199890136719 -25.354999542236328,-47.768001556396484 C-25.354999542236328,-47.768001556396484 -23.815000534057617,-49.090999603271484 -23.815000534057617,-49.090999603271484 C-23.295000076293945,-50.03099822998047 -22.594999313354492,-50.762001037597656 -21.905000686645508,-51.45800018310547 C-21.905000686645508,-51.45800018310547 -20.334999084472656,-52.641998291015625 -20.334999084472656,-52.641998291015625 C-19.7450008392334,-53.582000732421875 -19.075000762939453,-54.27799987792969 -18.344999313354492,-54.939998626708984 C-18.344999313354492,-54.939998626708984 -16.774999618530273,-56.02000045776367 -16.774999618530273,-56.02000045776367 C-16.155000686645508,-56.92499923706055 -15.454999923706055,-57.58700180053711 -14.725000381469727,-58.2140007019043 C-14.725000381469727,-58.2140007019043 -13.154999732971191,-59.18899917602539 -13.154999732971191,-59.18899917602539 C-12.524999618530273,-60.058998107910156 -11.795000076293945,-60.650001525878906 -11.0649995803833,-61.242000579833984 C-11.0649995803833,-61.242000579833984 -9.494999885559082,-62.11199951171875 -9.494999885559082,-62.11199951171875 C-8.835000038146973,-62.948001861572266 -8.104999542236328,-63.470001220703125 -7.375,-63.992000579833984 C-7.375,-63.992000579833984 -5.804999828338623,-64.79299926757812 -5.804999828338623,-64.79299926757812 C-5.105000019073486,-65.55899810791016 -4.375,-66.08200073242188 -3.6449999809265137,-66.53500366210938 C-3.6449999809265137,-66.53500366210938 -2.075000047683716,-67.16100311279297 -2.075000047683716,-67.16100311279297 C-1.4450000524520874,-67.89199829101562 -0.824999988079071,-68.24099731445312 -0.19499999284744263,-68.58899688720703 C-0.19499999284744263,-68.58899688720703 -0.014999999664723873,-68.58899688720703 -0.014999999664723873,-68.58899688720703z"></path></g></g></g><mask id="__lottie_element_90_1" mask-type="alpha"><use xlink:href="#__lottie_element_90"></use></mask></defs><g clip-path="url(#__lottie_element_2)"><g style="display: block;" transform="matrix(1,0,0,1,796.0120239257812,856.468994140625)" opacity="1"><image width="184px" height="109px" preserveAspectRatio="xMidYMid slice" xlink:href="/lottie/home/images/img_16.png"></image></g><g style="display: block;" transform="matrix(1,0,0,1,762.5120239257812,770.9660034179688)" opacity="1"><image width="184px" height="109px" preserveAspectRatio="xMidYMid slice" xlink:href="/lottie/home/images/img_15.png"></image></g><g style="display: block;" transform="matrix(1,0,0,1,604.5679931640625,630.97900390625)" opacity="1"><image width="277px" height="165px" preserveAspectRatio="xMidYMid slice" xlink:href="/lottie/home/images/img_14.png"></image></g><g style="display: block;" transform="matrix(1,0,0,1,711.9320068359375,631.3209838867188)" opacity="1"><image width="140px" height="166px" preserveAspectRatio="xMidYMid slice" xlink:href="/lottie/home/images/img_13.png"></image></g><g style="display: block;" transform="matrix(1,0,0,1,731.3819580078125,642.7109985351562)" opacity="0.16"><g opacity="1" transform="matrix(1,0,0,1,60.025001525878906,77.05500030517578)"><path fill="rgb(205,242,252)" fill-opacity="1" d=" M-0.014999999664723873,-68.58899688720703 C-0.014999999664723873,-68.58899688720703 1.8650000095367432,-69.28500366210938 1.8650000095367432,-69.28500366210938 C2.5950000286102295,-70.01699829101562 3.325000047683716,-70.39900207519531 4.054999828338623,-70.74700164794922 C4.054999828338623,-70.74700164794922 5.554999828338623,-71.16400146484375 5.554999828338623,-71.16400146484375 C6.324999809265137,-71.86100006103516 7.054999828338623,-72.17400360107422 7.784999847412109,-72.48799896240234 C7.784999847412109,-72.48799896240234 9.28499984741211,-72.76699829101562 9.28499984741211,-72.76699829101562 C10.055000305175781,-73.39399719238281 10.78499984741211,-73.6719970703125 11.475000381469727,-73.95099639892578 C11.475000381469727,-73.95099639892578 12.944999694824219,-74.125 12.944999694824219,-74.125 C13.704999923706055,-74.71700286865234 14.444999694824219,-74.88999938964844 15.135000228881836,-75.0989990234375 C15.135000228881836,-75.0989990234375 16.53499984741211,-75.0989990234375 16.53499984741211,-75.0989990234375 C17.334999084472656,-75.65599822998047 18.03499984741211,-75.7959976196289 18.725000381469727,-75.97000122070312 C18.725000381469727,-75.97000122070312 20.084999084472656,-75.86599731445312 20.084999084472656,-75.86599731445312 C20.885000228881836,-76.35299682617188 21.584999084472656,-76.45700073242188 22.2450008392334,-76.5260009765625 C22.2450008392334,-76.5260009765625 23.575000762939453,-76.31800079345703 23.575000762939453,-76.31800079345703 C24.334999084472656,-76.73600006103516 25.03499984741211,-76.80599975585938 25.69499969482422,-76.80599975585938 C25.69499969482422,-76.80599975585938 26.954999923706055,-76.45700073242188 26.954999923706055,-76.45700073242188 C27.71500015258789,-76.80500030517578 28.375,-76.80599975585938 29.0049991607666,-76.77100372314453 C29.0049991607666,-76.77100372314453 30.225000381469727,-76.28399658203125 30.225000381469727,-76.28399658203125 C30.9950008392334,-76.56199645996094 31.625,-76.49199676513672 32.244998931884766,-76.38800048828125 C32.244998931884766,-76.38800048828125 33.39500045776367,-75.7959976196289 33.39500045776367,-75.7959976196289 C34.165000915527344,-76.04000091552734 34.755001068115234,-75.9000015258789 35.345001220703125,-75.7249984741211 C35.345001220703125,-75.7249984741211 36.42499923706055,-75.02999877929688 36.42499923706055,-75.02999877929688 C37.165000915527344,-75.2040023803711 37.755001068115234,-75.02899932861328 38.314998626708984,-74.78500366210938 C38.314998626708984,-74.78500366210938 39.28499984741211,-73.95099639892578 39.28499984741211,-73.95099639892578 C40.01499938964844,-74.05500030517578 40.57500076293945,-73.81199645996094 41.095001220703125,-73.53299713134766 C41.095001220703125,-73.53299713134766 42.005001068115234,-72.59200286865234 42.005001068115234,-72.59200286865234 C42.70500183105469,-72.66200256347656 43.224998474121094,-72.31300354003906 43.71500015258789,-72 C43.71500015258789,-72 44.54499816894531,-70.9219970703125 44.54499816894531,-70.9219970703125 C45.244998931884766,-70.9219970703125 45.69499969482422,-70.53800201416016 46.185001373291016,-70.15499877929688 C46.185001373291016,-70.15499877929688 46.95500183105469,-68.97100067138672 46.95500183105469,-68.97100067138672 C47.6150016784668,-68.9010009765625 48.064998626708984,-68.48400115966797 48.48500061035156,-68.03099822998047 C48.48500061035156,-68.03099822998047 49.14500045776367,-66.74299621582031 49.14500045776367,-66.74299621582031 C49.80500030517578,-66.60399627685547 50.19499969482422,-66.1520004272461 50.57500076293945,-65.66400146484375 C50.57500076293945,-65.66400146484375 51.165000915527344,-64.27200317382812 51.165000915527344,-64.27200317382812 C51.79499816894531,-64.0979995727539 52.14500045776367,-63.57400131225586 52.494998931884766,-63.016998291015625 C52.494998931884766,-63.016998291015625 52.98500061035156,-61.555999755859375 52.98500061035156,-61.555999755859375 C53.57500076293945,-61.3120002746582 53.8849983215332,-60.720001220703125 54.19499969482422,-60.12900161743164 C54.19499969482422,-60.12900161743164 54.54499816894531,-58.56100082397461 54.54499816894531,-58.56100082397461 C55.10499954223633,-58.24800109863281 55.3849983215332,-57.65700149536133 55.665000915527344,-56.994998931884766 C55.665000915527344,-56.994998931884766 55.94499969482422,-55.358001708984375 55.94499969482422,-55.358001708984375 C56.46500015258789,-55.0099983215332 56.70500183105469,-54.3129997253418 56.915000915527344,-53.652000427246094 C56.915000915527344,-53.652000427246094 57.095001220703125,-51.946998596191406 57.095001220703125,-51.946998596191406 C57.57500076293945,-51.52899932861328 57.755001068115234,-50.797000885009766 57.92499923706055,-50.099998474121094 C57.92499923706055,-50.099998474121094 58.03499984741211,-48.361000061035156 58.03499984741211,-48.361000061035156 C58.48500061035156,-47.8380012512207 58.625,-47.106998443603516 58.76499938964844,-46.340999603271484 C58.76499938964844,-46.340999603271484 58.76499938964844,-44.529998779296875 58.76499938964844,-44.529998779296875 C59.14500045776367,-44.007999420166016 59.255001068115234,-43.207000732421875 59.35499954223633,-42.441001892089844 C59.35499954223633,-42.441001892089844 59.21500015258789,-40.56100082397461 59.21500015258789,-40.56100082397461 C59.564998626708984,-39.933998107910156 59.6349983215332,-39.132999420166016 59.67499923706055,-38.29800033569336 C59.67499923706055,-38.29800033569336 59.46500015258789,-36.382999420166016 59.46500015258789,-36.382999420166016 C59.744998931884766,-35.82600021362305 59.775001525878906,-35.130001068115234 59.775001525878906,-34.433998107910156 C59.775001525878906,-34.433998107910156 59.46500015258789,-32.099998474121094 59.46500015258789,-32.099998474121094 C59.70500183105469,-31.40399932861328 59.70500183105469,-30.534000396728516 59.6349983215332,-29.663000106811523 C59.6349983215332,-29.663000106811523 59.255001068115234,-27.68000030517578 59.255001068115234,-27.68000030517578 C59.46500015258789,-26.947999954223633 59.39500045776367,-26.04199981689453 59.28499984741211,-25.172000885009766 C59.28499984741211,-25.172000885009766 58.76499938964844,-23.152000427246094 58.76499938964844,-23.152000427246094 C58.935001373291016,-22.38599967956543 58.79499816894531,-21.48200035095215 58.69499969482422,-20.57699966430664 C58.69499969482422,-20.57699966430664 58.10499954223633,-18.55699920654297 58.10499954223633,-18.55699920654297 C58.20500183105469,-17.68600082397461 58.064998626708984,-16.7810001373291 57.85499954223633,-15.87600040435791 C57.85499954223633,-15.87600040435791 57.165000915527344,-13.855999946594238 57.165000915527344,-13.855999946594238 C57.23500061035156,-12.986000061035156 57.025001525878906,-12.081999778747559 56.775001525878906,-11.142000198364258 C56.775001525878906,-11.142000198364258 56.01499938964844,-9.121000289916992 56.01499938964844,-9.121000289916992 C56.01499938964844,-8.215999603271484 55.80500030517578,-7.310999870300293 55.525001525878906,-6.335999965667725 C55.525001525878906,-6.335999965667725 54.654998779296875,-4.316999912261963 54.654998779296875,-4.316999912261963 C54.654998779296875,-3.377000093460083 54.334999084472656,-2.437000036239624 54.025001525878906,-1.496000051498413 C54.025001525878906,-1.496000051498413 53.084999084472656,0.4880000054836273 53.084999084472656,0.4880000054836273 C53.01499938964844,1.4279999732971191 52.665000915527344,2.4030001163482666 52.314998626708984,3.308000087738037 C52.314998626708984,3.308000087738037 51.30500030517578,5.291999816894531 51.30500030517578,5.291999816894531 C51.165000915527344,6.267000198364258 50.78499984741211,7.206999778747559 50.404998779296875,8.147000312805176 C50.404998779296875,8.147000312805176 49.32500076293945,10.062000274658203 49.32500076293945,10.062000274658203 C49.14500045776367,11.071000099182129 48.724998474121094,11.97700023651123 48.275001525878906,12.916999816894531 C48.275001525878906,12.916999816894531 47.125,14.79800033569336 47.125,14.79800033569336 C46.915000915527344,15.807000160217285 46.42499923706055,16.71299934387207 45.974998474121094,17.652999877929688 C45.974998474121094,17.652999877929688 44.755001068115234,19.49799919128418 44.755001068115234,19.49799919128418 C44.474998474121094,20.507999420166016 43.994998931884766,21.413000106811523 43.505001068115234,22.283000946044922 C43.505001068115234,22.283000946044922 42.21500015258789,24.05900001525879 42.21500015258789,24.05900001525879 C41.8650016784668,25.034000396728516 41.345001220703125,25.93899917602539 40.814998626708984,26.80900001525879 C40.814998626708984,26.80900001525879 39.494998931884766,28.549999237060547 39.494998931884766,28.549999237060547 C39.14500045776367,29.559999465942383 38.584999084472656,30.395999908447266 37.994998931884766,31.266000747680664 C37.994998931884766,31.266000747680664 36.60499954223633,32.93600082397461 36.60499954223633,32.93600082397461 C36.185001373291016,33.94599914550781 35.595001220703125,34.78200149536133 35.005001068115234,35.61800003051758 C35.005001068115234,35.61800003051758 33.57500076293945,37.21900177001953 33.57500076293945,37.21900177001953 C33.1150016784668,38.22800064086914 32.494998931884766,39.029998779296875 31.895000457763672,39.86600112915039 C31.895000457763672,39.86600112915039 30.434999465942383,41.362998962402344 30.434999465942383,41.362998962402344 C29.94499969482422,42.37200164794922 29.325000762939453,43.13800048828125 28.69499969482422,43.90399932861328 C28.69499969482422,43.90399932861328 27.19499969482422,45.297000885009766 27.19499969482422,45.297000885009766 C26.674999237060547,46.27199935913086 26.0049991607666,47.0369987487793 25.344999313354492,47.768001556396484 C25.344999313354492,47.768001556396484 23.815000534057617,49.05699920654297 23.815000534057617,49.05699920654297 C23.2549991607666,50.03200149536133 22.565000534057617,50.76300048828125 21.895000457763672,51.42499923706055 C21.895000457763672,51.42499923706055 20.334999084472656,52.643001556396484 20.334999084472656,52.643001556396484 C19.735000610351562,53.61800003051758 19.045000076293945,54.24399948120117 18.344999313354492,54.939998626708984 C18.344999313354492,54.939998626708984 16.774999618530273,56.020999908447266 16.774999618530273,56.020999908447266 C16.145000457763672,56.92599868774414 15.454999923706055,57.58700180053711 14.725000381469727,58.2140007019043 C14.725000381469727,58.2140007019043 13.154999732971191,59.18899917602539 13.154999732971191,59.18899917602539 C12.524999618530273,60.058998107910156 11.795000076293945,60.6510009765625 11.0649995803833,61.24300003051758 C11.0649995803833,61.24300003051758 9.494999885559082,62.112998962402344 9.494999885559082,62.112998962402344 C8.835000038146973,62.94900131225586 8.095000267028809,63.50600051879883 7.364999771118164,64.02799987792969 C7.364999771118164,64.02799987792969 5.795000076293945,64.75900268554688 5.795000076293945,64.75900268554688 C5.105000019073486,65.59500122070312 4.375,66.08300018310547 3.6050000190734863,66.56999969482422 C3.6050000190734863,66.56999969482422 2.0350000858306885,67.1969985961914 2.0350000858306885,67.1969985961914 C1.4049999713897705,67.89299774169922 0.7850000262260437,68.2760009765625 0.1550000011920929,68.6240005493164 C0.1550000011920929,68.6240005493164 -1.725000023841858,69.3550033569336 -1.725000023841858,69.3550033569336 C-2.494999885559082,70.08599853515625 -3.2249999046325684,70.46900177001953 -3.924999952316284,70.81800079345703 C-3.924999952316284,70.81800079345703 -5.454999923706055,71.20099639892578 -5.454999923706055,71.20099639892578 C-6.224999904632568,71.89700317382812 -6.954999923706055,72.24500274658203 -7.684999942779541,72.52400207519531 C-7.684999942779541,72.52400207519531 -9.1850004196167,72.802001953125 -9.1850004196167,72.802001953125 C-9.954999923706055,73.42900085449219 -10.6850004196167,73.70700073242188 -11.375,73.98600006103516 C-11.375,73.98600006103516 -12.845000267028809,74.16000366210938 -12.845000267028809,74.16000366210938 C-13.604999542236328,74.75199890136719 -14.345000267028809,74.96099853515625 -15.03499984741211,75.16999816894531 C-15.03499984741211,75.16999816894531 -16.434999465942383,75.16999816894531 -16.434999465942383,75.16999816894531 C-17.19499969482422,75.72699737548828 -17.924999237060547,75.86599731445312 -18.625,76.00499725341797 C-18.625,76.00499725341797 -20.024999618530273,75.86599731445312 -20.024999618530273,75.86599731445312 C-20.825000762939453,76.38800048828125 -21.485000610351562,76.45800018310547 -22.184999465942383,76.56199645996094 C-22.184999465942383,76.56199645996094 -23.5049991607666,76.31800079345703 -23.5049991607666,76.31800079345703 C-24.30500030517578,76.7699966430664 -24.96500015258789,76.77100372314453 -25.635000228881836,76.80599975585938 C-25.635000228881836,76.80599975585938 -26.885000228881836,76.4229965209961 -26.885000228881836,76.4229965209961 C-27.655000686645508,76.80599975585938 -28.344999313354492,76.77100372314453 -28.94499969482422,76.73600006103516 C-28.94499969482422,76.73600006103516 -30.165000915527344,76.2490005493164 -30.165000915527344,76.2490005493164 C-30.924999237060547,76.56199645996094 -31.584999084472656,76.49299621582031 -32.185001373291016,76.35299682617188 C-32.185001373291016,76.35299682617188 -33.334999084472656,75.76200103759766 -33.334999084472656,75.76200103759766 C-34.095001220703125,76.00499725341797 -34.724998474121094,75.86599731445312 -35.28499984741211,75.72699737548828 C-35.28499984741211,75.72699737548828 -36.3650016784668,74.99600219726562 -36.3650016784668,74.99600219726562 C-37.125,75.16999816894531 -37.685001373291016,74.99600219726562 -38.244998931884766,74.75199890136719 C-38.244998931884766,74.75199890136719 -39.255001068115234,73.91600036621094 -39.255001068115234,73.91600036621094 C-39.98500061035156,74.02100372314453 -40.505001068115234,73.7770004272461 -41.064998626708984,73.49800109863281 C-41.064998626708984,73.49800109863281 -41.974998474121094,72.55799865722656 -41.974998474121094,72.55799865722656 C-42.665000915527344,72.62799835205078 -43.19499969482422,72.27999877929688 -43.71500015258789,71.96700286865234 C-43.71500015258789,71.96700286865234 -44.55500030517578,70.9219970703125 -44.55500030517578,70.9219970703125 C-45.244998931884766,70.9219970703125 -45.73500061035156,70.53900146484375 -46.185001373291016,70.15599822998047 C-46.185001373291016,70.15599822998047 -46.92499923706055,69.00700378417969 -46.92499923706055,69.00700378417969 C-47.6150016784668,68.93699645996094 -48.03499984741211,68.48500061035156 -48.48500061035156,68.06700134277344 C-48.48500061035156,68.06700134277344 -49.154998779296875,66.81400299072266 -49.154998779296875,66.81400299072266 C-49.814998626708984,66.67400360107422 -50.19499969482422,66.18699645996094 -50.6150016784668,65.69999694824219 C-50.6150016784668,65.69999694824219 -51.17499923706055,64.34200286865234 -51.17499923706055,64.34200286865234 C-51.79499816894531,64.16799926757812 -52.185001373291016,63.64500045776367 -52.494998931884766,63.0880012512207 C-52.494998931884766,63.0880012512207 -52.98500061035156,61.625999450683594 -52.98500061035156,61.625999450683594 C-53.57500076293945,61.38199996948242 -53.89500045776367,60.78900146484375 -54.20500183105469,60.196998596191406 C-54.20500183105469,60.196998596191406 -54.584999084472656,58.66699981689453 -54.584999084472656,58.66699981689453 C-55.14500045776367,58.35300064086914 -55.42499923706055,57.76100158691406 -55.70500183105469,57.099998474121094 C-55.70500183105469,57.099998474121094 -55.98500061035156,55.4630012512207 -55.98500061035156,55.4630012512207 C-56.505001068115234,55.08000183105469 -56.744998931884766,54.41899871826172 -56.95500183105469,53.75699996948242 C-56.95500183105469,53.75699996948242 -57.1349983215332,52.05099868774414 -57.1349983215332,52.05099868774414 C-57.584999084472656,51.5989990234375 -57.79499816894531,50.902000427246094 -57.96500015258789,50.20600128173828 C-57.96500015258789,50.20600128173828 -58.03499984741211,48.43000030517578 -58.03499984741211,48.43000030517578 C-58.48500061035156,47.94300079345703 -58.625,47.21200180053711 -58.76499938964844,46.44599914550781 C-58.76499938964844,46.44599914550781 -58.76499938964844,44.6349983215332 -58.76499938964844,44.6349983215332 C-59.154998779296875,44.077999114990234 -59.255001068115234,43.27799987792969 -59.32500076293945,42.47700119018555 C-59.32500076293945,42.47700119018555 -59.224998474121094,40.63199996948242 -59.224998474121094,40.63199996948242 C-59.564998626708984,40.005001068115234 -59.6349983215332,39.20399856567383 -59.67499923706055,38.36899948120117 C-59.67499923706055,38.36899948120117 -59.46500015258789,36.45399856567383 -59.46500015258789,36.45399856567383 C-59.775001525878906,35.930999755859375 -59.775001525878906,35.20000076293945 -59.775001525878906,34.50400161743164 C-59.775001525878906,34.50400161743164 -59.46500015258789,32.17100143432617 -59.46500015258789,32.17100143432617 C-59.744998931884766,31.475000381469727 -59.70500183105469,30.60300064086914 -59.6349983215332,29.732999801635742 C-59.6349983215332,29.732999801635742 -59.224998474121094,27.71500015258789 -59.224998474121094,27.71500015258789 C-59.435001373291016,26.982999801635742 -59.3650016784668,26.077999114990234 -59.255001068115234,25.20800018310547 C-59.255001068115234,25.20800018310547 -58.73500061035156,23.187999725341797 -58.73500061035156,23.187999725341797 C-58.904998779296875,22.38800048828125 -58.76499938964844,21.517000198364258 -58.665000915527344,20.57699966430664 C-58.665000915527344,20.57699966430664 -58.07500076293945,18.558000564575195 -58.07500076293945,18.558000564575195 C-58.21500015258789,17.756999969482422 -58.03499984741211,16.7810001373291 -57.82500076293945,15.87600040435791 C-57.82500076293945,15.87600040435791 -57.1349983215332,13.857000350952148 -57.1349983215332,13.857000350952148 C-57.23500061035156,13.020999908447266 -56.994998931884766,12.081999778747559 -56.744998931884766,11.142000198364258 C-56.744998931884766,11.142000198364258 -55.98500061035156,9.121999740600586 -55.98500061035156,9.121999740600586 C-56.01499938964844,8.25100040435791 -55.775001525878906,7.311999797821045 -55.494998931884766,6.372000217437744 C-55.494998931884766,6.372000217437744 -54.625,4.353000164031982 -54.625,4.353000164031982 C-54.625,3.447000026702881 -54.30500030517578,2.4730000495910645 -53.994998931884766,1.5670000314712524 C-53.994998931884766,1.5670000314712524 -53.05500030517578,-0.453000009059906 -53.05500030517578,-0.453000009059906 C-52.98500061035156,-1.3930000066757202 -52.6349983215332,-2.367000102996826 -52.28499984741211,-3.2720000743865967 C-52.28499984741211,-3.2720000743865967 -51.275001525878906,-5.257999897003174 -51.275001525878906,-5.257999897003174 C-51.1349983215332,-6.232999801635742 -50.755001068115234,-7.171999931335449 -50.375,-8.112000465393066 C-50.375,-8.112000465393066 -49.29499816894531,-10.027000427246094 -49.29499816894531,-10.027000427246094 C-49.1150016784668,-11.03600025177002 -48.69499969482422,-11.940999984741211 -48.244998931884766,-12.881999969482422 C-48.244998931884766,-12.881999969482422 -47.095001220703125,-14.76200008392334 -47.095001220703125,-14.76200008392334 C-46.8849983215332,-15.770999908447266 -46.39500045776367,-16.677000045776367 -45.94499969482422,-17.617000579833984 C-45.94499969482422,-17.617000579833984 -44.724998474121094,-19.461999893188477 -44.724998474121094,-19.461999893188477 C-44.44499969482422,-20.472000122070312 -43.95500183105469,-21.341999053955078 -43.474998474121094,-22.246999740600586 C-43.474998474121094,-22.246999740600586 -42.185001373291016,-24.023000717163086 -42.185001373291016,-24.023000717163086 C-41.8650016784668,-25.031999588012695 -41.345001220703125,-25.902999877929688 -40.82500076293945,-26.808000564575195 C-40.82500076293945,-26.808000564575195 -39.494998931884766,-28.513999938964844 -39.494998931884766,-28.513999938964844 C-39.154998779296875,-29.52400016784668 -38.55500030517578,-30.393999099731445 -38.005001068115234,-31.264999389648438 C-38.005001068115234,-31.264999389648438 -36.60499954223633,-32.9010009765625 -36.60499954223633,-32.9010009765625 C-36.224998474121094,-33.9109992980957 -35.6349983215332,-34.74599838256836 -35.03499984741211,-35.617000579833984 C-35.03499984741211,-35.617000579833984 -33.6150016784668,-37.183998107910156 -33.6150016784668,-37.183998107910156 C-33.154998779296875,-38.194000244140625 -32.525001525878906,-38.994998931884766 -31.934999465942383,-39.83100128173828 C-31.934999465942383,-39.83100128173828 -30.475000381469727,-41.327999114990234 -30.475000381469727,-41.327999114990234 C-29.985000610351562,-42.33700180053711 -29.354999542236328,-43.10300064086914 -28.69499969482422,-43.90399932861328 C-28.69499969482422,-43.90399932861328 -27.19499969482422,-45.297000885009766 -27.19499969482422,-45.297000885009766 C-26.674999237060547,-46.27199935913086 -26.045000076293945,-47.00199890136719 -25.354999542236328,-47.768001556396484 C-25.354999542236328,-47.768001556396484 -23.815000534057617,-49.090999603271484 -23.815000534057617,-49.090999603271484 C-23.295000076293945,-50.03099822998047 -22.594999313354492,-50.762001037597656 -21.905000686645508,-51.45800018310547 C-21.905000686645508,-51.45800018310547 -20.334999084472656,-52.641998291015625 -20.334999084472656,-52.641998291015625 C-19.7450008392334,-53.582000732421875 -19.075000762939453,-54.27799987792969 -18.344999313354492,-54.939998626708984 C-18.344999313354492,-54.939998626708984 -16.774999618530273,-56.02000045776367 -16.774999618530273,-56.02000045776367 C-16.155000686645508,-56.92499923706055 -15.454999923706055,-57.58700180053711 -14.725000381469727,-58.2140007019043 C-14.725000381469727,-58.2140007019043 -13.154999732971191,-59.18899917602539 -13.154999732971191,-59.18899917602539 C-12.524999618530273,-60.058998107910156 -11.795000076293945,-60.650001525878906 -11.0649995803833,-61.242000579833984 C-11.0649995803833,-61.242000579833984 -9.494999885559082,-62.11199951171875 -9.494999885559082,-62.11199951171875 C-8.835000038146973,-62.948001861572266 -8.104999542236328,-63.470001220703125 -7.375,-63.992000579833984 C-7.375,-63.992000579833984 -5.804999828338623,-64.79299926757812 -5.804999828338623,-64.79299926757812 C-5.105000019073486,-65.55899810791016 -4.375,-66.08200073242188 -3.6449999809265137,-66.53500366210938 C-3.6449999809265137,-66.53500366210938 -2.075000047683716,-67.16100311279297 -2.075000047683716,-67.16100311279297 C-1.4450000524520874,-67.89199829101562 -0.824999988079071,-68.24099731445312 -0.19499999284744263,-68.58899688720703 C-0.19499999284744263,-68.58899688720703 -0.014999999664723873,-68.58899688720703 -0.014999999664723873,-68.58899688720703z"></path></g></g><g mask="url(#__lottie_element_90_1)" style="display: block;"><g transform="matrix(1,0,0,1,1024.4110107421875,540.3049926757812)" opacity="1"><g opacity="1" transform="matrix(1,0,0,1,0,0)"><path fill="rgb(255,255,255)" fill-opacity="1" d=" M-111,32 C-111,32 -255,353 -255,353 C-255,353 -242,361 -242,361 C-242,361 -95,38 -95,38 C-95,38 -111,32 -111,32z"></path></g><g opacity="1" transform="matrix(1,0,0,1,0,0)"><path fill="rgb(255,255,255)" fill-opacity="1" d=" M-84,44 C-84,44 -235,364 -235,364 C-235,364 -226,360 -226,360 C-226,360 -76,41 -76,41 C-76,41 -84,44 -84,44z"></path></g></g></g><g mask="url(#__lottie_element_84_1)" style="display: block;"><g class="ai" transform="matrix(0.8500000238418579,0,0,0.8500000238418579,1249.39990234375,327.4749755859375)" opacity="1"><image width="1352px" height="933px" preserveAspectRatio="xMidYMid slice" xlink:href="/lottie/home/images/img_9.png"></image></g></g><g mask="url(#__lottie_element_78_1)" style="display: block;"><g class="ai" transform="matrix(0.9599999785423279,0,0,0.9599999785423279,-300.9599609375,222.16000366210938)" opacity="1"><image width="1352px" height="933px" preserveAspectRatio="xMidYMid slice" xlink:href="/lottie/home/images/img_4.png"></image></g></g><g style="display: block;" transform="matrix(1,0,0,1,1523.092041015625,391.4200134277344)" opacity="1"><image width="196px" height="114px" preserveAspectRatio="xMidYMid slice" xlink:href="/lottie/home/images/img_12.png"></image></g><g style="display: block;" transform="matrix(0.9872087240219116,-0.15943321585655212,0.15943321585655212,0.9872087240219116,1506.629150390625,268.9403991699219)" opacity="1"><image width="185px" height="220px" preserveAspectRatio="xMidYMid slice" xlink:href="/lottie/home/images/img_11.png"></image></g><g style="display: block;" transform="matrix(1,0,0,1,1429.501953125,433.5889892578125)" opacity="1"><g opacity="1" transform="matrix(1,0,0,1,207.3350067138672,403.8450012207031)"><path fill="rgb(255,255,255)" fill-opacity="1" d=" M-207.0850067138672,128.77699279785156 C-207.0850067138672,128.77699279785156 206.802001953125,367.80499267578125 206.802001953125,367.80499267578125 C206.802001953125,367.80499267578125 206.80499267578125,367.80499267578125 206.80499267578125,367.80499267578125 C206.80499267578125,367.80499267578125 207.0850067138672,268.71600341796875 207.0850067138672,268.71600341796875 C207.0850067138672,268.71600341796875 110.98500061035156,213.2169952392578 110.98500061035156,213.2169952392578 C110.98500061035156,213.2169952392578 111.2249984741211,126.39600372314453 111.2249984741211,126.39600372314453 C111.2249984741211,126.39600372314453 51.404998779296875,91.84700012207031 51.404998779296875,91.84700012207031 C51.404998779296875,91.84700012207031 51.755001068115234,-29.23900032043457 51.755001068115234,-29.23900032043457 C51.755001068115234,-29.23900032043457 -9.265000343322754,-64.48100280761719 -9.265000343322754,-64.48100280761719 C-9.265000343322754,-64.48100280761719 -8.994999885559082,-163.58099365234375 -8.994999885559082,-163.58099365234375 C-8.994999885559082,-163.58099365234375 -57.70500183105469,-191.71099853515625 -57.70500183105469,-191.71099853515625 C-57.70500183105469,-191.71099853515625 -57.44499969482422,-282.2049865722656 -57.44499969482422,-282.2049865722656 C-57.44499969482422,-282.2049865722656 -205.6750030517578,-367.80499267578125 -205.6750030517578,-367.80499267578125 C-205.6750030517578,-367.80499267578125 -207.0850067138672,128.77699279785156 -207.0850067138672,128.77699279785156z"></path></g></g><g mask="url(#__lottie_element_63_1)" style="display: block;"><g class="ai" transform="matrix(0.7200000286102295,0,0,0.7200000286102295,1203.280029296875,430.1199951171875)" opacity="1"><image width="1352px" height="933px" preserveAspectRatio="xMidYMid slice" xlink:href="/lottie/home/images/img_10.png"></image></g></g><g style="display: block;" transform="matrix(1,0,0,1,1429.501953125,433.5889892578125)" opacity="1"><g opacity="1" transform="matrix(1,0,0,1,422.8550109863281,512.9569702148438)"><path fill="rgb(174,228,246)" fill-opacity="1" d=" M-104.29499816894531,17.28499984741211 C-104.29499816894531,17.28499984741211 104.53500366210938,-104.10600280761719 104.53500366210938,-104.10600280761719 C104.53500366210938,-104.10600280761719 104.28500366210938,-17.28499984741211 104.28500366210938,-17.28499984741211 C104.28500366210938,-17.28499984741211 -104.53500366210938,104.1050033569336 -104.53500366210938,104.1050033569336 C-104.53500366210938,104.1050033569336 -104.29499816894531,17.28499984741211 -104.29499816894531,17.28499984741211z"></path></g><g opacity="1" transform="matrix(1,0,0,1,518.6950073242188,661.4110107421875)"><path fill="rgb(174,228,246)" fill-opacity="1" d=" M-104.2750015258789,11.151000022888184 C-104.2750015258789,11.151000022888184 -104.55500030517578,110.23899841308594 -104.55500030517578,110.23899841308594 C-104.55500030517578,110.23899841308594 -104.552001953125,110.23899841308594 -104.552001953125,110.23899841308594 C-104.552001953125,110.23899841308594 104.26499938964844,-11.14900016784668 104.26499938964844,-11.14900016784668 C104.26499938964844,-11.14900016784668 104.55500030517578,-110.23899841308594 104.55500030517578,-110.23899841308594 C104.55500030517578,-110.23899841308594 -104.2750015258789,11.151000022888184 -104.2750015258789,11.151000022888184z"></path></g><g opacity="1" transform="matrix(1,0,0,1,363.32501220703125,374.4540100097656)"><path fill="rgb(174,228,246)" fill-opacity="1" d=" M-104.23500061035156,0.15199999511241913 C-104.23500061035156,0.15199999511241913 104.58499908447266,-121.23799896240234 104.58499908447266,-121.23799896240234 C104.58499908447266,-121.23799896240234 104.24500274658203,-0.1469999998807907 104.24500274658203,-0.1469999998807907 C104.24500274658203,-0.1469999998807907 -104.58499908447266,121.23799896240234 -104.58499908447266,121.23799896240234 C-104.58499908447266,121.23799896240234 -104.23500061035156,0.15199999511241913 -104.23500061035156,0.15199999511241913z"></path></g><g opacity="1" transform="matrix(1,0,0,1,302.6099853515625,229.1199951171875)"><path fill="rgb(174,228,246)" fill-opacity="1" d=" M-104.2699966430664,11.145000457763672 C-104.2699966430664,11.145000457763672 104.55000305175781,-110.24400329589844 104.55000305175781,-110.24400329589844 C104.55000305175781,-110.24400329589844 104.2699966430664,-11.157999992370605 104.2699966430664,-11.157999992370605 C104.2699966430664,-11.157999992370605 -104.55000305175781,110.24400329589844 -104.55000305175781,110.24400329589844 C-104.55000305175781,110.24400329589844 -104.2699966430664,11.145000457763672 -104.2699966430664,11.145000457763672z"></path></g><g opacity="1" transform="matrix(1,0,0,1,254.1699981689453,106.19200134277344)"><path fill="rgb(174,228,246)" fill-opacity="1" d=" M-104.27999877929688,15.447999954223633 C-104.27999877929688,15.447999954223633 104.54000091552734,-105.94200134277344 104.54000091552734,-105.94200134277344 C104.54000091552734,-105.94200134277344 104.27999877929688,-15.446999549865723 104.27999877929688,-15.446999549865723 C104.27999877929688,-15.446999549865723 -104.54000091552734,105.94200134277344 -104.54000091552734,105.94200134277344 C-104.54000091552734,105.94200134277344 -104.27999877929688,15.447999954223633 -104.27999877929688,15.447999954223633z"></path></g></g><g mask="url(#__lottie_element_49_1)" style="display: block;"><g class="ai" transform="matrix(0.8500000238418579,0,0,0.8500000238418579,1249.39990234375,327.4749755859375)" opacity="1"><image width="1352px" height="933px" preserveAspectRatio="xMidYMid slice" xlink:href="/lottie/home/images/img_9.png"></image></g></g><g mask="url(#__lottie_element_48_1)" style="display: block;"><g class="ai" transform="matrix(0.8500000238418579,0,0,0.8500000238418579,1249.39990234375,327.4749755859375)" opacity="1"><image width="1352px" height="933px" preserveAspectRatio="xMidYMid slice" xlink:href="/lottie/home/images/img_9.png"></image></g></g><g style="display: block;" transform="matrix(1,0,0,1,1453.4320068359375,610.18798828125)" opacity="1"><image width="140px" height="166px" preserveAspectRatio="xMidYMid slice" xlink:href="/lottie/home/images/img_8.png"></image></g><g style="display: block;" transform="matrix(1,0,0,1,1457.093017578125,675.3779907226562)" opacity="1"><image width="98px" height="546px" preserveAspectRatio="xMidYMid slice" xlink:href="/lottie/home/images/img_7.png"></image></g><g style="display: block;" transform="matrix(1,0,0,1,145.93099975585938,318.7489929199219)" opacity="1"><g opacity="1" transform="matrix(1,0,0,1,94.60299682617188,52.5)"><path fill="rgb(174,228,246)" fill-opacity="1" d=" M-65.09200286865234,-52.25 C-65.09200286865234,-52.25 -94.35399627685547,-30.792999267578125 -94.35399627685547,-30.792999267578125 C-94.35399627685547,-30.792999267578125 54.645999908447266,52.25 54.645999908447266,52.25 C54.645999908447266,52.25 94.35399627685547,28.97599983215332 94.35399627685547,28.97599983215332 C94.35399627685547,28.97599983215332 -65.09200286865234,-52.25 -65.09200286865234,-52.25z"></path></g></g><g style="display: block;" transform="matrix(1,0,0,1,184.93099975585938,237.74900817871094)" opacity="1"><image width="119px" height="140px" preserveAspectRatio="xMidYMid slice" xlink:href="/lottie/home/images/img_6.png"></image></g><g mask="url(#__lottie_element_30_1)" style="display: block;"><g class="ai" transform="matrix(0.9599999785423279,0,0,0.9599999785423279,-300.9599609375,222.16000366210938)" opacity="1"><image width="1352px" height="933px" preserveAspectRatio="xMidYMid slice" xlink:href="/lottie/home/images/img_4.png"></image></g></g><g mask="url(#__lottie_element_24_1)" style="display: block;"><g class="ai" transform="matrix(0.7200000286102295,0,0,0.7200000286102295,-182.72003173828125,332.1199951171875)" opacity="1"><image width="1352px" height="933px" preserveAspectRatio="xMidYMid slice" xlink:href="/lottie/home/images/img_5.png"></image></g></g><g mask="url(#__lottie_element_18_1)" style="display: block;"><g class="ai" transform="matrix(0.9599999785423279,0,0,0.9599999785423279,-300.9599609375,222.16000366210938)" opacity="1"><image width="1352px" height="933px" preserveAspectRatio="xMidYMid slice" xlink:href="/lottie/home/images/img_4.png"></image></g></g><g style="display: block;" transform="matrix(1,0,0,1,-148.9359893798828,362.71600341796875)" opacity="1"><g opacity="1" transform="matrix(1,0,0,1,118.8949966430664,484.885009765625)"><path fill="rgb(174,228,246)" fill-opacity="1" d=" M-118.6449966430664,-35.95199966430664 C-118.6449966430664,-35.95199966430664 72.1520004272461,67.7959976196289 72.1520004272461,67.7959976196289 C72.1520004272461,67.7959976196289 118.6449966430664,35.95600128173828 118.6449966430664,35.95600128173828 C118.6449966430664,35.95600128173828 -72.15299987792969,-67.7959976196289 -72.15299987792969,-67.7959976196289 C-72.15299987792969,-67.7959976196289 -118.6449966430664,-35.95199966430664 -118.6449966430664,-35.95199966430664z"></path></g><g opacity="1" transform="matrix(1,0,0,1,163.57899475097656,395.7250061035156)"><path fill="rgb(174,228,246)" fill-opacity="1" d=" M74.06800079345703,68.81400299072266 C74.06800079345703,68.81400299072266 -116.72899627685547,-34.93600082397461 -116.72899627685547,-34.93600082397461 C-116.72899627685547,-34.93600082397461 -74.06800079345703,-68.81400299072266 -74.06800079345703,-68.81400299072266 C-74.06800079345703,-68.81400299072266 116.72899627685547,34.92599868774414 116.72899627685547,34.92599868774414 C116.72899627685547,34.92599868774414 74.06800079345703,68.81400299072266 74.06800079345703,68.81400299072266z"></path></g><g opacity="1" transform="matrix(1,0,0,1,208.26800537109375,300.8689880371094)"><path fill="rgb(174,228,246)" fill-opacity="1" d=" M72.14700317382812,69.33999633789062 C72.14700317382812,69.33999633789062 -118.64900207519531,-34.39899826049805 -118.64900207519531,-34.39899826049805 C-118.64900207519531,-34.39899826049805 -72.14700317382812,-69.34100341796875 -72.14700317382812,-69.34100341796875 C-72.14700317382812,-69.34100341796875 118.64900207519531,34.409000396728516 118.64900207519531,34.409000396728516 C118.64900207519531,34.409000396728516 72.14700317382812,69.33999633789062 72.14700317382812,69.33999633789062z"></path></g><g opacity="1" transform="matrix(1,0,0,1,255.11500549316406,211.4010009765625)"><path fill="rgb(174,228,246)" fill-opacity="1" d=" M71.91100311279297,68.08200073242188 C71.91100311279297,68.08200073242188 -118.88600158691406,-35.667999267578125 -118.88600158691406,-35.667999267578125 C-118.88600158691406,-35.667999267578125 -71.91000366210938,-68.08200073242188 -71.91000366210938,-68.08200073242188 C-71.91000366210938,-68.08200073242188 118.88600158691406,35.65700149536133 118.88600158691406,35.65700149536133 C118.88600158691406,35.65700149536133 71.91100311279297,68.08200073242188 71.91100311279297,68.08200073242188z"></path></g><g opacity="1" transform="matrix(1,0,0,1,299.5610046386719,119.4280014038086)"><path fill="rgb(174,228,246)" fill-opacity="1" d=" M74.5469970703125,67.71600341796875 C74.5469970703125,67.71600341796875 -116.25,-36.034000396728516 -116.25,-36.034000396728516 C-116.25,-36.034000396728516 -74.5469970703125,-67.71600341796875 -74.5469970703125,-67.71600341796875 C-74.5469970703125,-67.71600341796875 116.25,36.034000396728516 116.25,36.034000396728516 C116.25,36.034000396728516 74.5469970703125,67.71600341796875 74.5469970703125,67.71600341796875z"></path></g></g><g style="display: block;" transform="matrix(1,0,0,1,254.93099975585938,626.5230102539062)" opacity="1"><image width="186px" height="221px" preserveAspectRatio="xMidYMid slice" xlink:href="/lottie/home/images/img_3.png"></image></g><g style="display: block;" transform="matrix(1,0,0,1,331.6809997558594,681.7149658203125)" opacity="1"><image width="98px" height="546px" preserveAspectRatio="xMidYMid slice" xlink:href="/lottie/home/images/img_2.png"></image></g><g style="display: block;" transform="matrix(1,0,0,1,954.1640014648438,98.43099975585938)" opacity="1"><image width="116px" height="137px" preserveAspectRatio="xMidYMid slice" xlink:href="/lottie/home/images/img_1.png"></image></g><g class="ai" style="display: block;" transform="matrix(1,0,0,1,1034.5,719)" opacity="1"><image width="123px" height="146px" preserveAspectRatio="xMidYMid slice" xlink:href="/lottie/home/images/img_0.png"></image></g></g></svg>