<svg xmlns="http://www.w3.org/2000/svg" xmlns:xlink="http://www.w3.org/1999/xlink" viewBox="0 0 645 260" width="645" height="260" preserveAspectRatio="xMidYMid meet" style="width: 100%; height: 100%; transform: translate3d(0px, 0px, 0px); content-visibility: visible;"><defs><clipPath id="__lottie_element_156"><rect width="645" height="260" x="0" y="0"></rect></clipPath></defs><g clip-path="url(#__lottie_element_156)"><g style="display: none;" transform="matrix(2.550814151763916,-0.5236068964004517,0.5236068964004517,2.550814151763916,746.1814575195312,643.3944702148438)" opacity="1"><g opacity="1" transform="matrix(1.090000033378601,0,0,1.090000033378601,0,0)"><path fill="rgb(112,255,129)" fill-opacity="1" d=" M-209.5,-105.25 C-210.25,-105.375 -210.31300354003906,-103.81199645996094 -210.68800354003906,-103.81199645996094 C-211.06300354003906,-103.81199645996094 -211.68699645996094,-103.18699645996094 -211.375,-102.81199645996094 C-211.06300354003906,-102.43699645996094 -210.25,-102 -209.81199645996094,-102.375 C-209.37399291992188,-102.75 -208.81199645996094,-102.3759994506836 -208.5,-102.93800354003906 C-208.18800354003906,-103.5 -208.75,-103.81300354003906 -208.68800354003906,-104.375 C-208.62600708007812,-104.93699645996094 -208.75,-105.125 -209.5,-105.25z"></path></g></g><g style="display: none;" transform="matrix(2.6040000915527344,0,0,2.6040000915527344,850.3603515625,747.5197143554688)" opacity="1"><g opacity="1" transform="matrix(1.090000033378601,0,0,1.090000033378601,0,0)"><path fill="rgb(112,255,129)" fill-opacity="1" d=" M-209.5919952392578,-104.57599639892578 C-210.3419952392578,-104.70099639892578 -210.81500244140625,-104.45600128173828 -211.0570068359375,-104.16899871826172 C-211.70799255371094,-103.39700317382812 -211.68699645996094,-103.18699645996094 -211.375,-102.81199645996094 C-211.06300354003906,-102.43699645996094 -210.78399658203125,-102.06600189208984 -210.38099670410156,-102.2300033569336 C-209.97799682617188,-102.39399719238281 -209.2220001220703,-102.177001953125 -208.91000366210938,-102.73899841308594 C-208.59800720214844,-103.3010025024414 -208.89500427246094,-103.36399841308594 -208.83299255371094,-103.9260025024414 C-208.8159942626953,-104.24299621582031 -208.8419952392578,-104.45099639892578 -209.5919952392578,-104.57599639892578z"></path></g></g><g style="display: none;" transform="matrix(0.8820000290870667,0,0,0.8820000290870667,-44.739498138427734,412.34307861328125)" opacity="1"><g opacity="1" transform="matrix(1,0,0,1,0,0)"><path fill="rgb(255,255,255)" fill-opacity="1" d=" M102.25,-14.5 C101.25,-15 99.5,-11.75 98.5,-10.5 C97.5,-9.25 96,-3.25 96,0.25 C96,3.75 99.25,3.25 101.5,3.5 C103.75,3.75 104.5,8.5 103.75,11 C103,13.5 107.75,10.75 110,7 C110.9280014038086,5.453999996185303 108.5,3.5 108.75,-3 C108.81999969482422,-4.818999767303467 108.25,-6.25 106,-5.25 C103.75,-4.25 102,-1 102.5,-3.25 C103,-5.5 107,-7 106.25,-9.5 C105.5,-12 103.25,-14 102.25,-14.5z"></path></g></g><g style="display: none;" transform="matrix(-0.08886171132326126,-0.5933831930160522,0.5933831930160522,-0.08886171132326126,216.54690551757812,511.79681396484375)" opacity="1"><g opacity="1" transform="matrix(1,0,0,1,0,0)"><path fill="rgb(255,255,255)" fill-opacity="1" d=" M132,-114 C129.75,-116.25 126,-110.5 124,-107.75 C122,-105 123,-103 120,-95.5 C117,-88 119.25,-86 123,-86.25 C126.75,-86.5 132.25,-92.5 132.5,-96.75 C132.75,-101 134.25,-111.75 132,-114z"></path></g></g><g style="display: none;" transform="matrix(0.10418891161680222,-0.5908846855163574,0.5908846855163574,0.10418891161680222,110.65092468261719,528.8961791992188)" opacity="1"><g opacity="1" transform="matrix(1,0,0,1,0,0)"><path fill="rgb(112,255,129)" fill-opacity="1" d=" M39,-66.5 C28.351999282836914,-72.23300170898438 31.5,-64.5 32,-61.5 C32.5,-58.5 32.5,-51.5 35.5,-51.5 C38.5,-51.5 45.5,-51.5 47,-53 C48.5,-54.5 45.5,-63 39,-66.5z"></path></g></g><g style="display: none;" transform="matrix(0.35731664299964905,-0.04387296363711357,0.04387296363711357,0.35731664299964905,224.63182067871094,492.7707824707031)" opacity="1"><g opacity="1" transform="matrix(1,0,0,1,0,0)"><path fill="rgb(112,255,129)" fill-opacity="1" d=" M39,-66.5 C28.351999282836914,-72.23300170898438 31.5,-64.5 32,-61.5 C32.5,-58.5 32.5,-51.5 35.5,-51.5 C38.5,-51.5 45.5,-51.5 47,-53 C48.5,-54.5 45.5,-63 39,-66.5z"></path></g></g><g style="display: none;" transform="matrix(0.6000000238418579,0,0,0.6000000238418579,-104.41680908203125,517.2332153320312)" opacity="1"><g opacity="1" transform="matrix(1,0,0,1,226.0279998779297,-88.72200012207031)"><path fill="rgb(112,255,129)" fill-opacity="1" d=" M0,-9.050000190734863 C4.99469518661499,-9.050000190734863 9.050000190734863,-4.99469518661499 9.050000190734863,0 C9.050000190734863,4.99469518661499 4.99469518661499,9.050000190734863 0,9.050000190734863 C-4.99469518661499,9.050000190734863 -9.050000190734863,4.99469518661499 -9.050000190734863,0 C-9.050000190734863,-4.99469518661499 -4.99469518661499,-9.050000190734863 0,-9.050000190734863z"></path></g></g><g style="display: none;" transform="matrix(-0.15529143810272217,-0.5795555114746094,0.5795555114746094,-0.15529143810272217,70.15481567382812,345.464111328125)" opacity="1"><g opacity="1" transform="matrix(1,0,0,1,-209.75,-80.25)"><path fill="rgb(255,255,255)" fill-opacity="1" d=" M4.621204766542977e-16,-7.546999931335449 C4.621204766542977e-16,-7.546999931335449 2.2177138328552246,-3.0524210929870605 2.2177138328552246,-3.0524210929870605 C2.2177138328552246,-3.0524210929870605 7.177623748779297,-2.332151174545288 7.177623748779297,-2.332151174545288 C7.177623748779297,-2.332151174545288 3.588336229324341,1.1659210920333862 3.588336229324341,1.1659210920333862 C3.588336229324341,1.1659210920333862 4.4360151290893555,6.105651378631592 4.4360151290893555,6.105651378631592 C4.4360151290893555,6.105651378631592 2.310296127921497e-16,3.7730000019073486 2.310296127921497e-16,3.7730000019073486 C2.310296127921497e-16,3.7730000019073486 -4.4360151290893555,6.105651378631592 -4.4360151290893555,6.105651378631592 C-4.4360151290893555,6.105651378631592 -3.588336229324341,1.1659210920333862 -3.588336229324341,1.1659210920333862 C-3.588336229324341,1.1659210920333862 -7.177623748779297,-2.332151174545288 -7.177623748779297,-2.332151174545288 C-7.177623748779297,-2.332151174545288 -2.2177138328552246,-3.0524210929870605 -2.2177138328552246,-3.0524210929870605 C-2.2177138328552246,-3.0524210929870605 4.621204766542977e-16,-7.546999931335449 4.621204766542977e-16,-7.546999931335449z"></path></g></g><g style="display: none;" transform="matrix(-0.28168293833732605,-0.5297685861587524,0.5297685861587524,-0.28168293833732605,194.0309295654297,314.67596435546875)" opacity="1"><g opacity="1" transform="matrix(1,0,0,1,-209.75,-80.25)"><path fill="rgb(112,255,129)" fill-opacity="1" d=" M4.621204766542977e-16,-7.546999931335449 C4.621204766542977e-16,-7.546999931335449 2.2177138328552246,-3.0524210929870605 2.2177138328552246,-3.0524210929870605 C2.2177138328552246,-3.0524210929870605 7.177623748779297,-2.332151174545288 7.177623748779297,-2.332151174545288 C7.177623748779297,-2.332151174545288 3.588336229324341,1.1659210920333862 3.588336229324341,1.1659210920333862 C3.588336229324341,1.1659210920333862 4.4360151290893555,6.105651378631592 4.4360151290893555,6.105651378631592 C4.4360151290893555,6.105651378631592 2.310296127921497e-16,3.7730000019073486 2.310296127921497e-16,3.7730000019073486 C2.310296127921497e-16,3.7730000019073486 -4.4360151290893555,6.105651378631592 -4.4360151290893555,6.105651378631592 C-4.4360151290893555,6.105651378631592 -3.588336229324341,1.1659210920333862 -3.588336229324341,1.1659210920333862 C-3.588336229324341,1.1659210920333862 -7.177623748779297,-2.332151174545288 -7.177623748779297,-2.332151174545288 C-7.177623748779297,-2.332151174545288 -2.2177138328552246,-3.0524210929870605 -2.2177138328552246,-3.0524210929870605 C-2.2177138328552246,-3.0524210929870605 4.621204766542977e-16,-7.546999931335449 4.621204766542977e-16,-7.546999931335449z"></path></g></g><g style="display: none;" transform="matrix(0.5657001733779907,-0.19995833933353424,0.19995833933353424,0.5657001733779907,200.7022705078125,448.25616455078125)" opacity="1"><g opacity="1" transform="matrix(1.4800000190734863,0,0,1.4800000190734863,-209.75,-80.25)"><path fill="rgb(255,255,255)" fill-opacity="1" d=" M4.621204766542977e-16,-7.546999931335449 C4.621204766542977e-16,-7.546999931335449 1.8865000009536743,-3.2675137519836426 1.8865000009536743,-3.2675137519836426 C1.8865000009536743,-3.2675137519836426 6.53589391708374,-3.7734999656677246 6.53589391708374,-3.7734999656677246 C6.53589391708374,-3.7734999656677246 3.7730000019073486,-8.377742948056596e-16 3.7730000019073486,-8.377742948056596e-16 C3.7730000019073486,-8.377742948056596e-16 6.53589391708374,3.7734999656677246 6.53589391708374,3.7734999656677246 C6.53589391708374,3.7734999656677246 1.8865000009536743,3.2675137519836426 1.8865000009536743,3.2675137519836426 C1.8865000009536743,3.2675137519836426 3.813661659959975e-15,7.546999931335449 3.813661659959975e-15,7.546999931335449 C3.813661659959975e-15,7.546999931335449 -1.8865000009536743,3.2675137519836426 -1.8865000009536743,3.2675137519836426 C-1.8865000009536743,3.2675137519836426 -6.53589391708374,3.7734999656677246 -6.53589391708374,3.7734999656677246 C-6.53589391708374,3.7734999656677246 -3.7730000019073486,3.813156404806938e-15 -3.7730000019073486,3.813156404806938e-15 C-3.7730000019073486,3.813156404806938e-15 -6.53589391708374,-3.7734999656677246 -6.53589391708374,-3.7734999656677246 C-6.53589391708374,-3.7734999656677246 -1.8865000009536743,-3.2675137519836426 -1.8865000009536743,-3.2675137519836426 C-1.8865000009536743,-3.2675137519836426 4.621204766542977e-16,-7.546999931335449 4.621204766542977e-16,-7.546999931335449z"></path></g></g><g style="display: none;" transform="matrix(0.5926130414009094,-0.0938606858253479,0.0938606858253479,0.5926130414009094,322.6329040527344,498.46990966796875)" opacity="1"><g opacity="1" transform="matrix(1.4800000190734863,0,0,1.4800000190734863,-209.75,-80.25)"><path fill="rgb(112,255,129)" fill-opacity="1" d=" M4.621204766542977e-16,-7.546999931335449 C4.621204766542977e-16,-7.546999931335449 1.8865000009536743,-3.2675137519836426 1.8865000009536743,-3.2675137519836426 C1.8865000009536743,-3.2675137519836426 6.53589391708374,-3.7734999656677246 6.53589391708374,-3.7734999656677246 C6.53589391708374,-3.7734999656677246 3.7730000019073486,-8.377742948056596e-16 3.7730000019073486,-8.377742948056596e-16 C3.7730000019073486,-8.377742948056596e-16 6.53589391708374,3.7734999656677246 6.53589391708374,3.7734999656677246 C6.53589391708374,3.7734999656677246 1.8865000009536743,3.2675137519836426 1.8865000009536743,3.2675137519836426 C1.8865000009536743,3.2675137519836426 3.813661659959975e-15,7.546999931335449 3.813661659959975e-15,7.546999931335449 C3.813661659959975e-15,7.546999931335449 -1.8865000009536743,3.2675137519836426 -1.8865000009536743,3.2675137519836426 C-1.8865000009536743,3.2675137519836426 -6.53589391708374,3.7734999656677246 -6.53589391708374,3.7734999656677246 C-6.53589391708374,3.7734999656677246 -3.7730000019073486,3.813156404806938e-15 -3.7730000019073486,3.813156404806938e-15 C-3.7730000019073486,3.813156404806938e-15 -6.53589391708374,-3.7734999656677246 -6.53589391708374,-3.7734999656677246 C-6.53589391708374,-3.7734999656677246 -1.8865000009536743,-3.2675137519836426 -1.8865000009536743,-3.2675137519836426 C-1.8865000009536743,-3.2675137519836426 4.621204766542977e-16,-7.546999931335449 4.621204766542977e-16,-7.546999931335449z"></path></g></g><g style="display: none;" transform="matrix(-0.9543691277503967,2.422807216644287,-2.422807216644287,-0.9543691277503967,-76.24050903320312,912.4651489257812)" opacity="1"><g opacity="1" transform="matrix(1.090000033378601,0,0,1.090000033378601,0,0)"><path fill="rgb(255,255,255)" fill-opacity="1" d=" M-209.5,-105.25 C-210.25,-105.375 -210.31300354003906,-103.81199645996094 -210.68800354003906,-103.81199645996094 C-211.06300354003906,-103.81199645996094 -211.68699645996094,-103.18699645996094 -211.375,-102.81199645996094 C-211.06300354003906,-102.43699645996094 -210.25,-102 -209.81199645996094,-102.375 C-209.37399291992188,-102.75 -208.81199645996094,-102.3759994506836 -208.5,-102.93800354003906 C-208.18800354003906,-103.5 -208.75,-103.81300354003906 -208.68800354003906,-104.375 C-208.62600708007812,-104.93699645996094 -208.75,-105.125 -209.5,-105.25z"></path></g></g><g style="display: none;" transform="matrix(2.3788723945617676,-1.0591422319412231,1.0591422319412231,2.3788723945617676,643.7993774414062,341.9195556640625)" opacity="1"><g opacity="1" transform="matrix(1.090000033378601,0,0,1.090000033378601,0,0)"><path fill="rgb(255,255,255)" fill-opacity="1" d=" M-209.5919952392578,-104.57599639892578 C-210.3419952392578,-104.70099639892578 -210.81500244140625,-104.45600128173828 -211.0570068359375,-104.16899871826172 C-211.70799255371094,-103.39700317382812 -211.68699645996094,-103.18699645996094 -211.375,-102.81199645996094 C-211.06300354003906,-102.43699645996094 -210.78399658203125,-102.06600189208984 -210.38099670410156,-102.2300033569336 C-209.97799682617188,-102.39399719238281 -209.2220001220703,-102.177001953125 -208.91000366210938,-102.73899841308594 C-208.59800720214844,-103.3010025024414 -208.89500427246094,-103.36399841308594 -208.83299255371094,-103.9260025024414 C-208.8159942626953,-104.24299621582031 -208.8419952392578,-104.45099639892578 -209.5919952392578,-104.57599639892578z"></path></g></g><g style="display: none;" transform="matrix(0.6000000238418579,0,0,0.6000000238418579,70.74419403076172,503.85919189453125)" opacity="1"><g opacity="1" transform="matrix(1,0,0,1,159.09300231933594,-46.43199920654297)"><path fill="rgb(255,255,255)" fill-opacity="1" d=" M0,-4.550000190734863 C2.5111451148986816,-4.550000190734863 4.550000190734863,-2.5111451148986816 4.550000190734863,0 C4.550000190734863,2.5111451148986816 2.5111451148986816,4.550000190734863 0,4.550000190734863 C-2.5111451148986816,4.550000190734863 -4.550000190734863,2.5111451148986816 -4.550000190734863,0 C-4.550000190734863,-2.5111451148986816 -2.5111451148986816,-4.550000190734863 0,-4.550000190734863z"></path></g></g><g style="display: none;" transform="matrix(0.20521210134029388,0.5638155937194824,-0.5638155937194824,0.20521210134029388,124.24703216552734,595.278564453125)" opacity="1"><g opacity="1" transform="matrix(1,0,0,1,-209.75,-80.25)"><path fill="rgb(112,255,129)" fill-opacity="1" d=" M4.621204766542977e-16,-7.546999931335449 C4.621204766542977e-16,-7.546999931335449 2.2177138328552246,-3.0524210929870605 2.2177138328552246,-3.0524210929870605 C2.2177138328552246,-3.0524210929870605 7.177623748779297,-2.332151174545288 7.177623748779297,-2.332151174545288 C7.177623748779297,-2.332151174545288 3.588336229324341,1.1659210920333862 3.588336229324341,1.1659210920333862 C3.588336229324341,1.1659210920333862 4.4360151290893555,6.105651378631592 4.4360151290893555,6.105651378631592 C4.4360151290893555,6.105651378631592 2.310296127921497e-16,3.7730000019073486 2.310296127921497e-16,3.7730000019073486 C2.310296127921497e-16,3.7730000019073486 -4.4360151290893555,6.105651378631592 -4.4360151290893555,6.105651378631592 C-4.4360151290893555,6.105651378631592 -3.588336229324341,1.1659210920333862 -3.588336229324341,1.1659210920333862 C-3.588336229324341,1.1659210920333862 -7.177623748779297,-2.332151174545288 -7.177623748779297,-2.332151174545288 C-7.177623748779297,-2.332151174545288 -2.2177138328552246,-3.0524210929870605 -2.2177138328552246,-3.0524210929870605 C-2.2177138328552246,-3.0524210929870605 4.621204766542977e-16,-7.546999931335449 4.621204766542977e-16,-7.546999931335449z"></path></g></g><g style="display: none;" transform="matrix(0.43799999356269836,0,0,0.43799999356269836,-310.8002624511719,496.8602294921875)" opacity="1"><g opacity="1" transform="matrix(1,0,0,1,226.0279998779297,-88.72200012207031)"><path fill="rgb(112,255,129)" fill-opacity="1" d=" M0,-9.050000190734863 C4.99469518661499,-9.050000190734863 9.050000190734863,-4.99469518661499 9.050000190734863,0 C9.050000190734863,4.99469518661499 4.99469518661499,9.050000190734863 0,9.050000190734863 C-4.99469518661499,9.050000190734863 -9.050000190734863,4.99469518661499 -9.050000190734863,0 C-9.050000190734863,-4.99469518661499 -4.99469518661499,-9.050000190734863 0,-9.050000190734863z"></path></g></g><g style="display: none;" transform="matrix(-0.5523029565811157,0.2344386875629425,-0.2344386875629425,-0.5523029565811157,-320.0592346191406,443.65118408203125)" opacity="1"><g opacity="1" transform="matrix(1.4800000190734863,0,0,1.4800000190734863,-209.75,-80.25)"><path fill="rgb(112,255,129)" fill-opacity="1" d=" M4.621204766542977e-16,-7.546999931335449 C4.621204766542977e-16,-7.546999931335449 1.8865000009536743,-3.2675137519836426 1.8865000009536743,-3.2675137519836426 C1.8865000009536743,-3.2675137519836426 6.53589391708374,-3.7734999656677246 6.53589391708374,-3.7734999656677246 C6.53589391708374,-3.7734999656677246 3.7730000019073486,-8.377742948056596e-16 3.7730000019073486,-8.377742948056596e-16 C3.7730000019073486,-8.377742948056596e-16 6.53589391708374,3.7734999656677246 6.53589391708374,3.7734999656677246 C6.53589391708374,3.7734999656677246 1.8865000009536743,3.2675137519836426 1.8865000009536743,3.2675137519836426 C1.8865000009536743,3.2675137519836426 3.813661659959975e-15,7.546999931335449 3.813661659959975e-15,7.546999931335449 C3.813661659959975e-15,7.546999931335449 -1.8865000009536743,3.2675137519836426 -1.8865000009536743,3.2675137519836426 C-1.8865000009536743,3.2675137519836426 -6.53589391708374,3.7734999656677246 -6.53589391708374,3.7734999656677246 C-6.53589391708374,3.7734999656677246 -3.7730000019073486,3.813156404806938e-15 -3.7730000019073486,3.813156404806938e-15 C-3.7730000019073486,3.813156404806938e-15 -6.53589391708374,-3.7734999656677246 -6.53589391708374,-3.7734999656677246 C-6.53589391708374,-3.7734999656677246 -1.8865000009536743,-3.2675137519836426 -1.8865000009536743,-3.2675137519836426 C-1.8865000009536743,-3.2675137519836426 4.621204766542977e-16,-7.546999931335449 4.621204766542977e-16,-7.546999931335449z"></path></g></g><g style="display: none;" transform="matrix(-0.15189926326274872,-0.8688214421272278,0.8688214421272278,-0.15189926326274872,-127.81228637695312,566.5838623046875)" opacity="1"><g opacity="1" transform="matrix(1,0,0,1,0,0)"><path fill="rgb(255,255,255)" fill-opacity="1" d=" M102.25,-14.5 C101.25,-15 99.5,-11.75 98.5,-10.5 C97.5,-9.25 96,-3.25 96,0.25 C96,3.75 99.25,3.25 101.5,3.5 C103.75,3.75 104.5,8.5 103.75,11 C103,13.5 107.75,10.75 110,7 C110.9280014038086,5.453999996185303 108.5,3.5 108.75,-3 C108.81999969482422,-4.818999767303467 108.25,-6.25 106,-5.25 C103.75,-4.25 102,-1 102.5,-3.25 C103,-5.5 107,-7 106.25,-9.5 C105.5,-12 103.25,-14 102.25,-14.5z"></path></g></g><g style="display: none;" transform="matrix(-0.4945765435695648,-0.3396970331668854,0.3396970331668854,-0.4945765435695648,413.7699890136719,452.3323059082031)" opacity="1"><g opacity="1" transform="matrix(1,0,0,1,0,0)"><path fill="rgb(255,255,255)" fill-opacity="1" d=" M132,-114 C129.75,-116.25 126,-110.5 124,-107.75 C122,-105 123,-103 120,-95.5 C117,-88 119.25,-86 123,-86.25 C126.75,-86.5 132.25,-92.5 132.5,-96.75 C132.75,-101 134.25,-111.75 132,-114z"></path></g></g><g style="display: none;" transform="matrix(0.8238750100135803,-0.3148873746395111,0.3148873746395111,0.8238750100135803,224.46163940429688,498.7345275878906)" opacity="1"><g opacity="1" transform="matrix(1,0,0,1,0,0)"><path fill="rgb(112,255,129)" fill-opacity="1" d=" M102.25,-14.5 C101.25,-15 99.5,-11.75 98.5,-10.5 C97.5,-9.25 96,-3.25 96,0.25 C96,3.75 99.25,3.25 101.5,3.5 C103.75,3.75 104.5,8.5 103.75,11 C103,13.5 107.75,10.75 110,7 C110.9280014038086,5.453999996185303 108.5,3.5 108.75,-3 C108.81999969482422,-4.818999767303467 108.25,-6.25 106,-5.25 C103.75,-4.25 102,-1 102.5,-3.25 C103,-5.5 107,-7 106.25,-9.5 C105.5,-12 103.25,-14 102.25,-14.5z"></path></g></g><g style="display: none;" transform="matrix(-0.06271708011627197,-0.5967131853103638,0.5967131853103638,-0.06271708011627197,319.7313232421875,258.20635986328125)" opacity="1"><g opacity="1" transform="matrix(1,0,0,1,-209.75,-80.25)"><path fill="rgb(255,255,255)" fill-opacity="1" d=" M4.621204766542977e-16,-7.546999931335449 C4.621204766542977e-16,-7.546999931335449 2.2177138328552246,-3.0524210929870605 2.2177138328552246,-3.0524210929870605 C2.2177138328552246,-3.0524210929870605 7.177623748779297,-2.332151174545288 7.177623748779297,-2.332151174545288 C7.177623748779297,-2.332151174545288 3.588336229324341,1.1659210920333862 3.588336229324341,1.1659210920333862 C3.588336229324341,1.1659210920333862 4.4360151290893555,6.105651378631592 4.4360151290893555,6.105651378631592 C4.4360151290893555,6.105651378631592 2.310296127921497e-16,3.7730000019073486 2.310296127921497e-16,3.7730000019073486 C2.310296127921497e-16,3.7730000019073486 -4.4360151290893555,6.105651378631592 -4.4360151290893555,6.105651378631592 C-4.4360151290893555,6.105651378631592 -3.588336229324341,1.1659210920333862 -3.588336229324341,1.1659210920333862 C-3.588336229324341,1.1659210920333862 -7.177623748779297,-2.332151174545288 -7.177623748779297,-2.332151174545288 C-7.177623748779297,-2.332151174545288 -2.2177138328552246,-3.0524210929870605 -2.2177138328552246,-3.0524210929870605 C-2.2177138328552246,-3.0524210929870605 4.621204766542977e-16,-7.546999931335449 4.621204766542977e-16,-7.546999931335449z"></path></g></g><g style="display: none;" transform="matrix(0.6000000238418579,0,0,0.6000000238418579,-216.05580139160156,427.0592041015625)" opacity="1"><g opacity="1" transform="matrix(1,0,0,1,159.09300231933594,-46.43199920654297)"><path fill="rgb(255,255,255)" fill-opacity="1" d=" M0,-4.550000190734863 C2.5111451148986816,-4.550000190734863 4.550000190734863,-2.5111451148986816 4.550000190734863,0 C4.550000190734863,2.5111451148986816 2.5111451148986816,4.550000190734863 0,4.550000190734863 C-2.5111451148986816,4.550000190734863 -4.550000190734863,2.5111451148986816 -4.550000190734863,0 C-4.550000190734863,-2.5111451148986816 -2.5111451148986816,-4.550000190734863 0,-4.550000190734863z"></path></g></g><g style="display: none;" transform="matrix(0,-0.6000000238418579,0.6000000238418579,0,343.9499816894531,234.94998168945312)" opacity="1"><g opacity="1" transform="matrix(1,0,0,1,-209.75,-80.25)"><path fill="rgb(255,255,255)" fill-opacity="1" d=" M4.621204766542977e-16,-7.546999931335449 C4.621204766542977e-16,-7.546999931335449 2.2177138328552246,-3.0524210929870605 2.2177138328552246,-3.0524210929870605 C2.2177138328552246,-3.0524210929870605 7.177623748779297,-2.332151174545288 7.177623748779297,-2.332151174545288 C7.177623748779297,-2.332151174545288 3.588336229324341,1.1659210920333862 3.588336229324341,1.1659210920333862 C3.588336229324341,1.1659210920333862 4.4360151290893555,6.105651378631592 4.4360151290893555,6.105651378631592 C4.4360151290893555,6.105651378631592 2.310296127921497e-16,3.7730000019073486 2.310296127921497e-16,3.7730000019073486 C2.310296127921497e-16,3.7730000019073486 -4.4360151290893555,6.105651378631592 -4.4360151290893555,6.105651378631592 C-4.4360151290893555,6.105651378631592 -3.588336229324341,1.1659210920333862 -3.588336229324341,1.1659210920333862 C-3.588336229324341,1.1659210920333862 -7.177623748779297,-2.332151174545288 -7.177623748779297,-2.332151174545288 C-7.177623748779297,-2.332151174545288 -2.2177138328552246,-3.0524210929870605 -2.2177138328552246,-3.0524210929870605 C-2.2177138328552246,-3.0524210929870605 4.621204766542977e-16,-7.546999931335449 4.621204766542977e-16,-7.546999931335449z"></path></g></g><g style="display: block;" transform="matrix(0.2563527524471283,0,0,0.2563527524471283,153.96240234375,69.91494750976562)" opacity="0.9461857142849327"><g opacity="1" transform="matrix(1,0,0,1,-29.5,37.5)"><path fill="rgb(255,255,255)" fill-opacity="1" d=" M0,-23.106000900268555 C-12.76099967956543,-23.106000900268555 -23.106000900268555,-12.76099967956543 -23.106000900268555,0 C-23.106000900268555,12.76099967956543 -12.76099967956543,23.106000900268555 0,23.106000900268555 C12.76099967956543,23.106000900268555 23.106000900268555,12.76099967956543 23.106000900268555,0 C23.106000900268555,-12.76099967956543 12.76099967956543,-23.106000900268555 0,-23.106000900268555z"></path></g></g><g style="display: block;" transform="matrix(0.2563527524471283,0,0,0.2563527524471283,153.96240234375,69.91494750976562)" opacity="0.9686083333328774"><g opacity="1" transform="matrix(1,0,0,1,-29.5,37.5)"><path stroke-linecap="butt" stroke-linejoin="miter" fill-opacity="0" stroke-miterlimit="4" stroke="rgb(255,255,255)" stroke-opacity="1" stroke-width="4" d=" M0,-23.106000900268555 C-12.76099967956543,-23.106000900268555 -23.106000900268555,-12.76099967956543 -23.106000900268555,0 C-23.106000900268555,12.76099967956543 -12.76099967956543,23.106000900268555 0,23.106000900268555 C12.76099967956543,23.106000900268555 23.106000900268555,12.76099967956543 23.106000900268555,0 C23.106000900268555,-12.76099967956543 12.76099967956543,-23.106000900268555 0,-23.106000900268555z"></path></g></g><g style="display: block;" transform="matrix(1.8539683818817139,-1.8285561800003052,1.8285561800003052,1.8539683818817139,856.352783203125,223.2783660888672)" opacity="1"><g opacity="1" transform="matrix(1.090000033378601,0,0,1.090000033378601,0,0)"><path fill="rgb(112,255,129)" fill-opacity="1" d=" M-209.5,-105.25 C-210.25,-105.375 -210.31300354003906,-103.81199645996094 -210.68800354003906,-103.81199645996094 C-211.06300354003906,-103.81199645996094 -211.68699645996094,-103.18699645996094 -211.375,-102.81199645996094 C-211.06300354003906,-102.43699645996094 -210.25,-102 -209.81199645996094,-102.375 C-209.37399291992188,-102.75 -208.81199645996094,-102.3759994506836 -208.5,-102.93800354003906 C-208.18800354003906,-103.5 -208.75,-103.81300354003906 -208.68800354003906,-104.375 C-208.62600708007812,-104.93699645996094 -208.75,-105.125 -209.5,-105.25z"></path></g></g><g style="display: block;" transform="matrix(2.6040000915527344,0,0,2.6040000915527344,971.3743896484375,691.2261352539062)" opacity="1"><g opacity="1" transform="matrix(1.090000033378601,0,0,1.090000033378601,0,0)"><path fill="rgb(112,255,129)" fill-opacity="1" d=" M-209.5919952392578,-104.57599639892578 C-210.3419952392578,-104.70099639892578 -210.81500244140625,-104.45600128173828 -211.0570068359375,-104.16899871826172 C-211.70799255371094,-103.39700317382812 -211.68699645996094,-103.18699645996094 -211.375,-102.81199645996094 C-211.06300354003906,-102.43699645996094 -210.78399658203125,-102.06600189208984 -210.38099670410156,-102.2300033569336 C-209.97799682617188,-102.39399719238281 -209.2220001220703,-102.177001953125 -208.91000366210938,-102.73899841308594 C-208.59800720214844,-103.3010025024414 -208.89500427246094,-103.36399841308594 -208.83299255371094,-103.9260025024414 C-208.8159942626953,-104.24299621582031 -208.8419952392578,-104.45099639892578 -209.5919952392578,-104.57599639892578z"></path></g></g><g style="display: block;" transform="matrix(0.8820000290870667,0,0,0.8820000290870667,80.01734924316406,280.3640441894531)" opacity="1"><g opacity="1" transform="matrix(1,0,0,1,0,0)"><path fill="rgb(255,255,255)" fill-opacity="1" d=" M102.25,-14.5 C101.25,-15 99.5,-11.75 98.5,-10.5 C97.5,-9.25 96,-3.25 96,0.25 C96,3.75 99.25,3.25 101.5,3.5 C103.75,3.75 104.5,8.5 103.75,11 C103,13.5 107.75,10.75 110,7 C110.9280014038086,5.453999996185303 108.5,3.5 108.75,-3 C108.81999969482422,-4.818999767303467 108.25,-6.25 106,-5.25 C103.75,-4.25 102,-1 102.5,-3.25 C103,-5.5 107,-7 106.25,-9.5 C105.5,-12 103.25,-14 102.25,-14.5z"></path></g></g><g style="display: block;" transform="matrix(-0.36808550357818604,-0.47382810711860657,0.47382810711860657,-0.36808550357818604,361.7055969238281,425.7173156738281)" opacity="1"><g opacity="1" transform="matrix(1,0,0,1,0,0)"><path fill="rgb(255,255,255)" fill-opacity="1" d=" M132,-114 C129.75,-116.25 126,-110.5 124,-107.75 C122,-105 123,-103 120,-95.5 C117,-88 119.25,-86 123,-86.25 C126.75,-86.5 132.25,-92.5 132.5,-96.75 C132.75,-101 134.25,-111.75 132,-114z"></path></g></g><g style="display: block;" transform="matrix(-0.23676998913288116,-0.5513074994087219,0.5513074994087219,-0.23676998913288116,246.2635955810547,431.24053955078125)" opacity="1"><g opacity="1" transform="matrix(1,0,0,1,0,0)"><path fill="rgb(112,255,129)" fill-opacity="1" d=" M39,-66.5 C28.351999282836914,-72.23300170898438 31.5,-64.5 32,-61.5 C32.5,-58.5 32.5,-51.5 35.5,-51.5 C38.5,-51.5 45.5,-51.5 47,-53 C48.5,-54.5 45.5,-63 39,-66.5z"></path></g></g><g style="display: block;" transform="matrix(0.28235387802124023,-0.2233300656080246,0.2233300656080246,0.28235387802124023,358.1253662109375,422.2313537597656)" opacity="1"><g opacity="1" transform="matrix(1,0,0,1,0,0)"><path fill="rgb(112,255,129)" fill-opacity="1" d=" M39,-66.5 C28.351999282836914,-72.23300170898438 31.5,-64.5 32,-61.5 C32.5,-58.5 32.5,-51.5 35.5,-51.5 C38.5,-51.5 45.5,-51.5 47,-53 C48.5,-54.5 45.5,-63 39,-66.5z"></path></g></g><g style="display: block;" transform="matrix(0.6000000238418579,0,0,0.6000000238418579,21.541038513183594,405.5339050292969)" opacity="1"><g opacity="1" transform="matrix(1,0,0,1,226.0279998779297,-88.72200012207031)"><path fill="rgb(112,255,129)" fill-opacity="1" d=" M0,-9.050000190734863 C4.99469518661499,-9.050000190734863 9.050000190734863,-4.99469518661499 9.050000190734863,0 C9.050000190734863,4.99469518661499 4.99469518661499,9.050000190734863 0,9.050000190734863 C-4.99469518661499,9.050000190734863 -9.050000190734863,4.99469518661499 -9.050000190734863,0 C-9.050000190734863,-4.99469518661499 -4.99469518661499,-9.050000190734863 0,-9.050000190734863z"></path></g></g><g style="display: block;" transform="matrix(-0.42628833651542664,-0.42223015427589417,0.42223015427589417,-0.42628833651542664,131.24075317382812,238.90579223632812)" opacity="1"><g opacity="1" transform="matrix(1,0,0,1,-209.75,-80.25)"><path fill="rgb(255,255,255)" fill-opacity="1" d=" M4.621204766542977e-16,-7.546999931335449 C4.621204766542977e-16,-7.546999931335449 2.2177138328552246,-3.0524210929870605 2.2177138328552246,-3.0524210929870605 C2.2177138328552246,-3.0524210929870605 7.177623748779297,-2.332151174545288 7.177623748779297,-2.332151174545288 C7.177623748779297,-2.332151174545288 3.588336229324341,1.1659210920333862 3.588336229324341,1.1659210920333862 C3.588336229324341,1.1659210920333862 4.4360151290893555,6.105651378631592 4.4360151290893555,6.105651378631592 C4.4360151290893555,6.105651378631592 2.310296127921497e-16,3.7730000019073486 2.310296127921497e-16,3.7730000019073486 C2.310296127921497e-16,3.7730000019073486 -4.4360151290893555,6.105651378631592 -4.4360151290893555,6.105651378631592 C-4.4360151290893555,6.105651378631592 -3.588336229324341,1.1659210920333862 -3.588336229324341,1.1659210920333862 C-3.588336229324341,1.1659210920333862 -7.177623748779297,-2.332151174545288 -7.177623748779297,-2.332151174545288 C-7.177623748779297,-2.332151174545288 -2.2177138328552246,-3.0524210929870605 -2.2177138328552246,-3.0524210929870605 C-2.2177138328552246,-3.0524210929870605 4.621204766542977e-16,-7.546999931335449 4.621204766542977e-16,-7.546999931335449z"></path></g></g><g style="display: block;" transform="matrix(-0.5568107962608337,-0.22352133691310883,0.22352133691310883,-0.5568107962608337,229.36219787597656,238.70989990234375)" opacity="1"><g opacity="1" transform="matrix(1,0,0,1,-209.75,-80.25)"><path fill="rgb(112,255,129)" fill-opacity="1" d=" M4.621204766542977e-16,-7.546999931335449 C4.621204766542977e-16,-7.546999931335449 2.2177138328552246,-3.0524210929870605 2.2177138328552246,-3.0524210929870605 C2.2177138328552246,-3.0524210929870605 7.177623748779297,-2.332151174545288 7.177623748779297,-2.332151174545288 C7.177623748779297,-2.332151174545288 3.588336229324341,1.1659210920333862 3.588336229324341,1.1659210920333862 C3.588336229324341,1.1659210920333862 4.4360151290893555,6.105651378631592 4.4360151290893555,6.105651378631592 C4.4360151290893555,6.105651378631592 2.310296127921497e-16,3.7730000019073486 2.310296127921497e-16,3.7730000019073486 C2.310296127921497e-16,3.7730000019073486 -4.4360151290893555,6.105651378631592 -4.4360151290893555,6.105651378631592 C-4.4360151290893555,6.105651378631592 -3.588336229324341,1.1659210920333862 -3.588336229324341,1.1659210920333862 C-3.588336229324341,1.1659210920333862 -7.177623748779297,-2.332151174545288 -7.177623748779297,-2.332151174545288 C-7.177623748779297,-2.332151174545288 -2.2177138328552246,-3.0524210929870605 -2.2177138328552246,-3.0524210929870605 C-2.2177138328552246,-3.0524210929870605 4.621204766542977e-16,-7.546999931335449 4.621204766542977e-16,-7.546999931335449z"></path></g></g><g style="display: block;" transform="matrix(0.3227512240409851,-0.5057980418205261,0.5057980418205261,0.3227512240409851,301.046875,250.51287841796875)" opacity="1"><g opacity="1" transform="matrix(1.4800000190734863,0,0,1.4800000190734863,-209.75,-80.25)"><path fill="rgb(255,255,255)" fill-opacity="1" d=" M4.621204766542977e-16,-7.546999931335449 C4.621204766542977e-16,-7.546999931335449 1.8865000009536743,-3.2675137519836426 1.8865000009536743,-3.2675137519836426 C1.8865000009536743,-3.2675137519836426 6.53589391708374,-3.7734999656677246 6.53589391708374,-3.7734999656677246 C6.53589391708374,-3.7734999656677246 3.7730000019073486,-8.377742948056596e-16 3.7730000019073486,-8.377742948056596e-16 C3.7730000019073486,-8.377742948056596e-16 6.53589391708374,3.7734999656677246 6.53589391708374,3.7734999656677246 C6.53589391708374,3.7734999656677246 1.8865000009536743,3.2675137519836426 1.8865000009536743,3.2675137519836426 C1.8865000009536743,3.2675137519836426 3.813661659959975e-15,7.546999931335449 3.813661659959975e-15,7.546999931335449 C3.813661659959975e-15,7.546999931335449 -1.8865000009536743,3.2675137519836426 -1.8865000009536743,3.2675137519836426 C-1.8865000009536743,3.2675137519836426 -6.53589391708374,3.7734999656677246 -6.53589391708374,3.7734999656677246 C-6.53589391708374,3.7734999656677246 -3.7730000019073486,3.813156404806938e-15 -3.7730000019073486,3.813156404806938e-15 C-3.7730000019073486,3.813156404806938e-15 -6.53589391708374,-3.7734999656677246 -6.53589391708374,-3.7734999656677246 C-6.53589391708374,-3.7734999656677246 -1.8865000009536743,-3.2675137519836426 -1.8865000009536743,-3.2675137519836426 C-1.8865000009536743,-3.2675137519836426 4.621204766542977e-16,-7.546999931335449 4.621204766542977e-16,-7.546999931335449z"></path></g></g><g style="display: block;" transform="matrix(0.4914909601211548,-0.3441462814807892,0.3441462814807892,0.4914909601211548,442.4666748046875,326.6368408203125)" opacity="1"><g opacity="1" transform="matrix(1.4800000190734863,0,0,1.4800000190734863,-209.75,-80.25)"><path fill="rgb(112,255,129)" fill-opacity="1" d=" M4.621204766542977e-16,-7.546999931335449 C4.621204766542977e-16,-7.546999931335449 1.8865000009536743,-3.2675137519836426 1.8865000009536743,-3.2675137519836426 C1.8865000009536743,-3.2675137519836426 6.53589391708374,-3.7734999656677246 6.53589391708374,-3.7734999656677246 C6.53589391708374,-3.7734999656677246 3.7730000019073486,-8.377742948056596e-16 3.7730000019073486,-8.377742948056596e-16 C3.7730000019073486,-8.377742948056596e-16 6.53589391708374,3.7734999656677246 6.53589391708374,3.7734999656677246 C6.53589391708374,3.7734999656677246 1.8865000009536743,3.2675137519836426 1.8865000009536743,3.2675137519836426 C1.8865000009536743,3.2675137519836426 3.813661659959975e-15,7.546999931335449 3.813661659959975e-15,7.546999931335449 C3.813661659959975e-15,7.546999931335449 -1.8865000009536743,3.2675137519836426 -1.8865000009536743,3.2675137519836426 C-1.8865000009536743,3.2675137519836426 -6.53589391708374,3.7734999656677246 -6.53589391708374,3.7734999656677246 C-6.53589391708374,3.7734999656677246 -3.7730000019073486,3.813156404806938e-15 -3.7730000019073486,3.813156404806938e-15 C-3.7730000019073486,3.813156404806938e-15 -6.53589391708374,-3.7734999656677246 -6.53589391708374,-3.7734999656677246 C-6.53589391708374,-3.7734999656677246 -1.8865000009536743,-3.2675137519836426 -1.8865000009536743,-3.2675137519836426 C-1.8865000009536743,-3.2675137519836426 4.621204766542977e-16,-7.546999931335449 4.621204766542977e-16,-7.546999931335449z"></path></g></g><g style="display: block;" transform="matrix(-0.9543692469596863,2.4228076934814453,-2.4228076934814453,-0.9543692469596863,38.367332458496094,792.808837890625)" opacity="1"><g opacity="1" transform="matrix(1.090000033378601,0,0,1.090000033378601,0,0)"><path fill="rgb(255,255,255)" fill-opacity="1" d=" M-209.5,-105.25 C-210.25,-105.375 -210.31300354003906,-103.81199645996094 -210.68800354003906,-103.81199645996094 C-211.06300354003906,-103.81199645996094 -211.68699645996094,-103.18699645996094 -211.375,-102.81199645996094 C-211.06300354003906,-102.43699645996094 -210.25,-102 -209.81199645996094,-102.375 C-209.37399291992188,-102.75 -208.81199645996094,-102.3759994506836 -208.5,-102.93800354003906 C-208.18800354003906,-103.5 -208.75,-103.81300354003906 -208.68800354003906,-104.375 C-208.62600708007812,-104.93699645996094 -208.75,-105.125 -209.5,-105.25z"></path></g></g><g style="display: block;" transform="matrix(2.3788726329803467,-1.0591423511505127,1.0591423511505127,2.3788726329803467,765.7993774414062,298.9195861816406)" opacity="1"><g opacity="1" transform="matrix(1.090000033378601,0,0,1.090000033378601,0,0)"><path fill="rgb(255,255,255)" fill-opacity="1" d=" M-209.5919952392578,-104.57599639892578 C-210.3419952392578,-104.70099639892578 -210.81500244140625,-104.45600128173828 -211.0570068359375,-104.16899871826172 C-211.70799255371094,-103.39700317382812 -211.68699645996094,-103.18699645996094 -211.375,-102.81199645996094 C-211.06300354003906,-102.43699645996094 -210.78399658203125,-102.06600189208984 -210.38099670410156,-102.2300033569336 C-209.97799682617188,-102.39399719238281 -209.2220001220703,-102.177001953125 -208.91000366210938,-102.73899841308594 C-208.59800720214844,-103.3010025024414 -208.89500427246094,-103.36399841308594 -208.83299255371094,-103.9260025024414 C-208.8159942626953,-104.24299621582031 -208.8419952392578,-104.45099639892578 -209.5919952392578,-104.57599639892578z"></path></g></g><g style="display: block;" transform="matrix(0.6000000238418579,0,0,0.6000000238418579,192.268798828125,385.24029541015625)" opacity="1"><g opacity="1" transform="matrix(1,0,0,1,159.09300231933594,-46.43199920654297)"><path fill="rgb(255,255,255)" fill-opacity="1" d=" M0,-4.550000190734863 C2.5111451148986816,-4.550000190734863 4.550000190734863,-2.5111451148986816 4.550000190734863,0 C4.550000190734863,2.5111451148986816 2.5111451148986816,4.550000190734863 0,4.550000190734863 C-2.5111451148986816,4.550000190734863 -4.550000190734863,2.5111451148986816 -4.550000190734863,0 C-4.550000190734863,-2.5111451148986816 -2.5111451148986816,-4.550000190734863 0,-4.550000190734863z"></path></g></g><g style="display: block;" transform="matrix(0.3833235204219818,0.4615875780582428,-0.4615875780582428,0.3833235204219818,293.0987243652344,467.78851318359375)" opacity="1"><g opacity="1" transform="matrix(1,0,0,1,-209.75,-80.25)"><path fill="rgb(112,255,129)" fill-opacity="1" d=" M4.621204766542977e-16,-7.546999931335449 C4.621204766542977e-16,-7.546999931335449 2.2177138328552246,-3.0524210929870605 2.2177138328552246,-3.0524210929870605 C2.2177138328552246,-3.0524210929870605 7.177623748779297,-2.332151174545288 7.177623748779297,-2.332151174545288 C7.177623748779297,-2.332151174545288 3.588336229324341,1.1659210920333862 3.588336229324341,1.1659210920333862 C3.588336229324341,1.1659210920333862 4.4360151290893555,6.105651378631592 4.4360151290893555,6.105651378631592 C4.4360151290893555,6.105651378631592 2.310296127921497e-16,3.7730000019073486 2.310296127921497e-16,3.7730000019073486 C2.310296127921497e-16,3.7730000019073486 -4.4360151290893555,6.105651378631592 -4.4360151290893555,6.105651378631592 C-4.4360151290893555,6.105651378631592 -3.588336229324341,1.1659210920333862 -3.588336229324341,1.1659210920333862 C-3.588336229324341,1.1659210920333862 -7.177623748779297,-2.332151174545288 -7.177623748779297,-2.332151174545288 C-7.177623748779297,-2.332151174545288 -2.2177138328552246,-3.0524210929870605 -2.2177138328552246,-3.0524210929870605 C-2.2177138328552246,-3.0524210929870605 4.621204766542977e-16,-7.546999931335449 4.621204766542977e-16,-7.546999931335449z"></path></g></g><g style="display: block;" transform="matrix(0.43800002336502075,0,0,0.43800002336502075,-165.486083984375,375.75439453125)" opacity="1"><g opacity="1" transform="matrix(1,0,0,1,226.0279998779297,-88.72200012207031)"><path fill="rgb(112,255,129)" fill-opacity="1" d=" M0,-9.050000190734863 C4.99469518661499,-9.050000190734863 9.050000190734863,-4.99469518661499 9.050000190734863,0 C9.050000190734863,4.99469518661499 4.99469518661499,9.050000190734863 0,9.050000190734863 C-4.99469518661499,9.050000190734863 -9.050000190734863,4.99469518661499 -9.050000190734863,0 C-9.050000190734863,-4.99469518661499 -4.99469518661499,-9.050000190734863 0,-9.050000190734863z"></path></g></g><g style="display: block;" transform="matrix(-0.21787424385547638,0.559044599533081,-0.559044599533081,-0.21787424385547638,-120.80607604980469,436.76715087890625)" opacity="1"><g opacity="1" transform="matrix(1.4800000190734863,0,0,1.4800000190734863,-209.75,-80.25)"><path fill="rgb(112,255,129)" fill-opacity="1" d=" M4.621204766542977e-16,-7.546999931335449 C4.621204766542977e-16,-7.546999931335449 1.8865000009536743,-3.2675137519836426 1.8865000009536743,-3.2675137519836426 C1.8865000009536743,-3.2675137519836426 6.53589391708374,-3.7734999656677246 6.53589391708374,-3.7734999656677246 C6.53589391708374,-3.7734999656677246 3.7730000019073486,-8.377742948056596e-16 3.7730000019073486,-8.377742948056596e-16 C3.7730000019073486,-8.377742948056596e-16 6.53589391708374,3.7734999656677246 6.53589391708374,3.7734999656677246 C6.53589391708374,3.7734999656677246 1.8865000009536743,3.2675137519836426 1.8865000009536743,3.2675137519836426 C1.8865000009536743,3.2675137519836426 3.813661659959975e-15,7.546999931335449 3.813661659959975e-15,7.546999931335449 C3.813661659959975e-15,7.546999931335449 -1.8865000009536743,3.2675137519836426 -1.8865000009536743,3.2675137519836426 C-1.8865000009536743,3.2675137519836426 -6.53589391708374,3.7734999656677246 -6.53589391708374,3.7734999656677246 C-6.53589391708374,3.7734999656677246 -3.7730000019073486,3.813156404806938e-15 -3.7730000019073486,3.813156404806938e-15 C-3.7730000019073486,3.813156404806938e-15 -6.53589391708374,-3.7734999656677246 -6.53589391708374,-3.7734999656677246 C-6.53589391708374,-3.7734999656677246 -1.8865000009536743,-3.2675137519836426 -1.8865000009536743,-3.2675137519836426 C-1.8865000009536743,-3.2675137519836426 4.621204766542977e-16,-7.546999931335449 4.621204766542977e-16,-7.546999931335449z"></path></g></g><g style="display: block;" transform="matrix(-0.523295521736145,-0.7099900245666504,0.7099900245666504,-0.523295521736145,55.471290588378906,436.9129638671875)" opacity="1"><g opacity="1" transform="matrix(1,0,0,1,0,0)"><path fill="rgb(255,255,255)" fill-opacity="1" d=" M102.25,-14.5 C101.25,-15 99.5,-11.75 98.5,-10.5 C97.5,-9.25 96,-3.25 96,0.25 C96,3.75 99.25,3.25 101.5,3.5 C103.75,3.75 104.5,8.5 103.75,11 C103,13.5 107.75,10.75 110,7 C110.9280014038086,5.453999996185303 108.5,3.5 108.75,-3 C108.81999969482422,-4.818999767303467 108.25,-6.25 106,-5.25 C103.75,-4.25 102,-1 102.5,-3.25 C103,-5.5 107,-7 106.25,-9.5 C105.5,-12 103.25,-14 102.25,-14.5z"></path></g></g><g style="display: block;" transform="matrix(-0.5894923806190491,-0.11179781705141068,0.11179781705141068,-0.5894923806190491,518.7800903320312,305.6711120605469)" opacity="1"><g opacity="1" transform="matrix(1,0,0,1,0,0)"><path fill="rgb(255,255,255)" fill-opacity="1" d=" M132,-114 C129.75,-116.25 126,-110.5 124,-107.75 C122,-105 123,-103 120,-95.5 C117,-88 119.25,-86 123,-86.25 C126.75,-86.5 132.25,-92.5 132.5,-96.75 C132.75,-101 134.25,-111.75 132,-114z"></path></g></g><g style="display: block;" transform="matrix(0.4833250045776367,-0.7377811670303345,0.7377811670303345,0.4833250045776367,381.3919677734375,431.36810302734375)" opacity="1"><g opacity="1" transform="matrix(1,0,0,1,0,0)"><path fill="rgb(112,255,129)" fill-opacity="1" d=" M102.25,-14.5 C101.25,-15 99.5,-11.75 98.5,-10.5 C97.5,-9.25 96,-3.25 96,0.25 C96,3.75 99.25,3.25 101.5,3.5 C103.75,3.75 104.5,8.5 103.75,11 C103,13.5 107.75,10.75 110,7 C110.9280014038086,5.453999996185303 108.5,3.5 108.75,-3 C108.81999969482422,-4.818999767303467 108.25,-6.25 106,-5.25 C103.75,-4.25 102,-1 102.5,-3.25 C103,-5.5 107,-7 106.25,-9.5 C105.5,-12 103.25,-14 102.25,-14.5z"></path></g></g><g style="display: block;" transform="matrix(-0.06271708011627197,-0.5967131853103638,0.5967131853103638,-0.06271708011627197,437.6784362792969,171.23370361328125)" opacity="1"><g opacity="1" transform="matrix(1,0,0,1,-209.75,-80.25)"><path fill="rgb(255,255,255)" fill-opacity="1" d=" M4.621204766542977e-16,-7.546999931335449 C4.621204766542977e-16,-7.546999931335449 2.2177138328552246,-3.0524210929870605 2.2177138328552246,-3.0524210929870605 C2.2177138328552246,-3.0524210929870605 7.177623748779297,-2.332151174545288 7.177623748779297,-2.332151174545288 C7.177623748779297,-2.332151174545288 3.588336229324341,1.1659210920333862 3.588336229324341,1.1659210920333862 C3.588336229324341,1.1659210920333862 4.4360151290893555,6.105651378631592 4.4360151290893555,6.105651378631592 C4.4360151290893555,6.105651378631592 2.310296127921497e-16,3.7730000019073486 2.310296127921497e-16,3.7730000019073486 C2.310296127921497e-16,3.7730000019073486 -4.4360151290893555,6.105651378631592 -4.4360151290893555,6.105651378631592 C-4.4360151290893555,6.105651378631592 -3.588336229324341,1.1659210920333862 -3.588336229324341,1.1659210920333862 C-3.588336229324341,1.1659210920333862 -7.177623748779297,-2.332151174545288 -7.177623748779297,-2.332151174545288 C-7.177623748779297,-2.332151174545288 -2.2177138328552246,-3.0524210929870605 -2.2177138328552246,-3.0524210929870605 C-2.2177138328552246,-3.0524210929870605 4.621204766542977e-16,-7.546999931335449 4.621204766542977e-16,-7.546999931335449z"></path></g></g><g style="display: block;" transform="matrix(0.6000000238418579,0,0,0.6000000238418579,-74.23711395263672,317.4072570800781)" opacity="1"><g opacity="1" transform="matrix(1,0,0,1,159.09300231933594,-46.43199920654297)"><path fill="rgb(255,255,255)" fill-opacity="1" d=" M0,-4.550000190734863 C2.5111451148986816,-4.550000190734863 4.550000190734863,-2.5111451148986816 4.550000190734863,0 C4.550000190734863,2.5111451148986816 2.5111451148986816,4.550000190734863 0,4.550000190734863 C-2.5111451148986816,4.550000190734863 -4.550000190734863,2.5111451148986816 -4.550000190734863,0 C-4.550000190734863,-2.5111451148986816 -2.5111451148986816,-4.550000190734863 0,-4.550000190734863z"></path></g></g><g style="display: block;" transform="matrix(0,-0.6000000238418579,0.6000000238418579,0,457.5910949707031,145.70285034179688)" opacity="1"><g opacity="1" transform="matrix(1,0,0,1,-209.75,-80.25)"><path fill="rgb(255,255,255)" fill-opacity="1" d=" M4.621204766542977e-16,-7.546999931335449 C4.621204766542977e-16,-7.546999931335449 2.2177138328552246,-3.0524210929870605 2.2177138328552246,-3.0524210929870605 C2.2177138328552246,-3.0524210929870605 7.177623748779297,-2.332151174545288 7.177623748779297,-2.332151174545288 C7.177623748779297,-2.332151174545288 3.588336229324341,1.1659210920333862 3.588336229324341,1.1659210920333862 C3.588336229324341,1.1659210920333862 4.4360151290893555,6.105651378631592 4.4360151290893555,6.105651378631592 C4.4360151290893555,6.105651378631592 2.310296127921497e-16,3.7730000019073486 2.310296127921497e-16,3.7730000019073486 C2.310296127921497e-16,3.7730000019073486 -4.4360151290893555,6.105651378631592 -4.4360151290893555,6.105651378631592 C-4.4360151290893555,6.105651378631592 -3.588336229324341,1.1659210920333862 -3.588336229324341,1.1659210920333862 C-3.588336229324341,1.1659210920333862 -7.177623748779297,-2.332151174545288 -7.177623748779297,-2.332151174545288 C-7.177623748779297,-2.332151174545288 -2.2177138328552246,-3.0524210929870605 -2.2177138328552246,-3.0524210929870605 C-2.2177138328552246,-3.0524210929870605 4.621204766542977e-16,-7.546999931335449 4.621204766542977e-16,-7.546999931335449z"></path></g></g><g style="display: none;" transform="matrix(0.9064963459968567,0,0,0.9064963459968567,295.1416320800781,2.8596343994140625)" opacity="0.045885714284654426"><g opacity="1" transform="matrix(1,0,0,1,-29.5,37.5)"><path fill="rgb(255,255,255)" fill-opacity="1" d=" M0,-23.106000900268555 C-12.76099967956543,-23.106000900268555 -23.106000900268555,-12.76099967956543 -23.106000900268555,0 C-23.106000900268555,12.76099967956543 -12.76099967956543,23.106000900268555 0,23.106000900268555 C12.76099967956543,23.106000900268555 23.106000900268555,12.76099967956543 23.106000900268555,0 C23.106000900268555,-12.76099967956543 12.76099967956543,-23.106000900268555 0,-23.106000900268555z"></path></g></g><g style="display: none;" transform="matrix(1.1034027338027954,0,0,1.1034027338027954,300.95037841796875,-4.425903797149658)" opacity="0.00505833333271525"><g opacity="1" transform="matrix(1,0,0,1,-29.5,37.5)"><path stroke-linecap="butt" stroke-linejoin="miter" fill-opacity="0" stroke-miterlimit="4" stroke="rgb(255,255,255)" stroke-opacity="1" stroke-width="4" d=" M0,-23.106000900268555 C-12.76099967956543,-23.106000900268555 -23.106000900268555,-12.76099967956543 -23.106000900268555,0 C-23.106000900268555,12.76099967956543 -12.76099967956543,23.106000900268555 0,23.106000900268555 C12.76099967956543,23.106000900268555 23.106000900268555,12.76099967956543 23.106000900268555,0 C23.106000900268555,-12.76099967956543 12.76099967956543,-23.106000900268555 0,-23.106000900268555z"></path></g></g><g style="display: none;" transform="matrix(2.550814151763916,-0.5236069560050964,0.5236069560050964,2.550814151763916,1137.1815185546875,602.39453125)" opacity="1"><g opacity="1" transform="matrix(1.090000033378601,0,0,1.090000033378601,0,0)"><path fill="rgb(112,255,129)" fill-opacity="1" d=" M-209.5,-105.25 C-210.25,-105.375 -210.31300354003906,-103.81199645996094 -210.68800354003906,-103.81199645996094 C-211.06300354003906,-103.81199645996094 -211.68699645996094,-103.18699645996094 -211.375,-102.81199645996094 C-211.06300354003906,-102.43699645996094 -210.25,-102 -209.81199645996094,-102.375 C-209.37399291992188,-102.75 -208.81199645996094,-102.3759994506836 -208.5,-102.93800354003906 C-208.18800354003906,-103.5 -208.75,-103.81300354003906 -208.68800354003906,-104.375 C-208.62600708007812,-104.93699645996094 -208.75,-105.125 -209.5,-105.25z"></path></g></g><g style="display: none;" transform="matrix(2.6040000915527344,0,0,2.6040000915527344,1241.3603515625,706.5197143554688)" opacity="1"><g opacity="1" transform="matrix(1.090000033378601,0,0,1.090000033378601,0,0)"><path fill="rgb(112,255,129)" fill-opacity="1" d=" M-209.5919952392578,-104.57599639892578 C-210.3419952392578,-104.70099639892578 -210.81500244140625,-104.45600128173828 -211.0570068359375,-104.16899871826172 C-211.70799255371094,-103.39700317382812 -211.68699645996094,-103.18699645996094 -211.375,-102.81199645996094 C-211.06300354003906,-102.43699645996094 -210.78399658203125,-102.06600189208984 -210.38099670410156,-102.2300033569336 C-209.97799682617188,-102.39399719238281 -209.2220001220703,-102.177001953125 -208.91000366210938,-102.73899841308594 C-208.59800720214844,-103.3010025024414 -208.89500427246094,-103.36399841308594 -208.83299255371094,-103.9260025024414 C-208.8159942626953,-104.24299621582031 -208.8419952392578,-104.45099639892578 -209.5919952392578,-104.57599639892578z"></path></g></g><g style="display: none;" transform="matrix(0.8820000290870667,0,0,0.8820000290870667,346.260498046875,371.34307861328125)" opacity="1"><g opacity="1" transform="matrix(1,0,0,1,0,0)"><path fill="rgb(255,255,255)" fill-opacity="1" d=" M102.25,-14.5 C101.25,-15 99.5,-11.75 98.5,-10.5 C97.5,-9.25 96,-3.25 96,0.25 C96,3.75 99.25,3.25 101.5,3.5 C103.75,3.75 104.5,8.5 103.75,11 C103,13.5 107.75,10.75 110,7 C110.9280014038086,5.453999996185303 108.5,3.5 108.75,-3 C108.81999969482422,-4.818999767303467 108.25,-6.25 106,-5.25 C103.75,-4.25 102,-1 102.5,-3.25 C103,-5.5 107,-7 106.25,-9.5 C105.5,-12 103.25,-14 102.25,-14.5z"></path></g></g><g style="display: none;" transform="matrix(-0.08886171132326126,-0.5933831930160522,0.5933831930160522,-0.08886171132326126,607.546875,470.79681396484375)" opacity="1"><g opacity="1" transform="matrix(1,0,0,1,0,0)"><path fill="rgb(255,255,255)" fill-opacity="1" d=" M132,-114 C129.75,-116.25 126,-110.5 124,-107.75 C122,-105 123,-103 120,-95.5 C117,-88 119.25,-86 123,-86.25 C126.75,-86.5 132.25,-92.5 132.5,-96.75 C132.75,-101 134.25,-111.75 132,-114z"></path></g></g><g style="display: none;" transform="matrix(0.10418891161680222,-0.5908846855163574,0.5908846855163574,0.10418891161680222,501.6509094238281,487.8962097167969)" opacity="1"><g opacity="1" transform="matrix(1,0,0,1,0,0)"><path fill="rgb(112,255,129)" fill-opacity="1" d=" M39,-66.5 C28.351999282836914,-72.23300170898438 31.5,-64.5 32,-61.5 C32.5,-58.5 32.5,-51.5 35.5,-51.5 C38.5,-51.5 45.5,-51.5 47,-53 C48.5,-54.5 45.5,-63 39,-66.5z"></path></g></g><g style="display: none;" transform="matrix(0.35731664299964905,-0.04387296736240387,0.04387296736240387,0.35731664299964905,615.6318359375,451.7707824707031)" opacity="1"><g opacity="1" transform="matrix(1,0,0,1,0,0)"><path fill="rgb(112,255,129)" fill-opacity="1" d=" M39,-66.5 C28.351999282836914,-72.23300170898438 31.5,-64.5 32,-61.5 C32.5,-58.5 32.5,-51.5 35.5,-51.5 C38.5,-51.5 45.5,-51.5 47,-53 C48.5,-54.5 45.5,-63 39,-66.5z"></path></g></g><g style="display: none;" transform="matrix(0.6000000238418579,0,0,0.6000000238418579,286.58319091796875,476.23321533203125)" opacity="1"><g opacity="1" transform="matrix(1,0,0,1,226.0279998779297,-88.72200012207031)"><path fill="rgb(112,255,129)" fill-opacity="1" d=" M0,-9.050000190734863 C4.99469518661499,-9.050000190734863 9.050000190734863,-4.99469518661499 9.050000190734863,0 C9.050000190734863,4.99469518661499 4.99469518661499,9.050000190734863 0,9.050000190734863 C-4.99469518661499,9.050000190734863 -9.050000190734863,4.99469518661499 -9.050000190734863,0 C-9.050000190734863,-4.99469518661499 -4.99469518661499,-9.050000190734863 0,-9.050000190734863z"></path></g></g><g style="display: none;" transform="matrix(-0.15529143810272217,-0.5795555114746094,0.5795555114746094,-0.15529143810272217,461.1548156738281,304.4641418457031)" opacity="1"><g opacity="1" transform="matrix(1,0,0,1,-209.75,-80.25)"><path fill="rgb(255,255,255)" fill-opacity="1" d=" M4.621204766542977e-16,-7.546999931335449 C4.621204766542977e-16,-7.546999931335449 2.2177138328552246,-3.0524210929870605 2.2177138328552246,-3.0524210929870605 C2.2177138328552246,-3.0524210929870605 7.177623748779297,-2.332151174545288 7.177623748779297,-2.332151174545288 C7.177623748779297,-2.332151174545288 3.588336229324341,1.1659210920333862 3.588336229324341,1.1659210920333862 C3.588336229324341,1.1659210920333862 4.4360151290893555,6.105651378631592 4.4360151290893555,6.105651378631592 C4.4360151290893555,6.105651378631592 2.310296127921497e-16,3.7730000019073486 2.310296127921497e-16,3.7730000019073486 C2.310296127921497e-16,3.7730000019073486 -4.4360151290893555,6.105651378631592 -4.4360151290893555,6.105651378631592 C-4.4360151290893555,6.105651378631592 -3.588336229324341,1.1659210920333862 -3.588336229324341,1.1659210920333862 C-3.588336229324341,1.1659210920333862 -7.177623748779297,-2.332151174545288 -7.177623748779297,-2.332151174545288 C-7.177623748779297,-2.332151174545288 -2.2177138328552246,-3.0524210929870605 -2.2177138328552246,-3.0524210929870605 C-2.2177138328552246,-3.0524210929870605 4.621204766542977e-16,-7.546999931335449 4.621204766542977e-16,-7.546999931335449z"></path></g></g><g style="display: none;" transform="matrix(-0.28168296813964844,-0.5297685861587524,0.5297685861587524,-0.28168296813964844,585.0309448242188,273.6759948730469)" opacity="1"><g opacity="1" transform="matrix(1,0,0,1,-209.75,-80.25)"><path fill="rgb(112,255,129)" fill-opacity="1" d=" M4.621204766542977e-16,-7.546999931335449 C4.621204766542977e-16,-7.546999931335449 2.2177138328552246,-3.0524210929870605 2.2177138328552246,-3.0524210929870605 C2.2177138328552246,-3.0524210929870605 7.177623748779297,-2.332151174545288 7.177623748779297,-2.332151174545288 C7.177623748779297,-2.332151174545288 3.588336229324341,1.1659210920333862 3.588336229324341,1.1659210920333862 C3.588336229324341,1.1659210920333862 4.4360151290893555,6.105651378631592 4.4360151290893555,6.105651378631592 C4.4360151290893555,6.105651378631592 2.310296127921497e-16,3.7730000019073486 2.310296127921497e-16,3.7730000019073486 C2.310296127921497e-16,3.7730000019073486 -4.4360151290893555,6.105651378631592 -4.4360151290893555,6.105651378631592 C-4.4360151290893555,6.105651378631592 -3.588336229324341,1.1659210920333862 -3.588336229324341,1.1659210920333862 C-3.588336229324341,1.1659210920333862 -7.177623748779297,-2.332151174545288 -7.177623748779297,-2.332151174545288 C-7.177623748779297,-2.332151174545288 -2.2177138328552246,-3.0524210929870605 -2.2177138328552246,-3.0524210929870605 C-2.2177138328552246,-3.0524210929870605 4.621204766542977e-16,-7.546999931335449 4.621204766542977e-16,-7.546999931335449z"></path></g></g><g style="display: none;" transform="matrix(0.5657001733779907,-0.19995833933353424,0.19995833933353424,0.5657001733779907,591.7022705078125,407.2561950683594)" opacity="1"><g opacity="1" transform="matrix(1.4800000190734863,0,0,1.4800000190734863,-209.75,-80.25)"><path fill="rgb(255,255,255)" fill-opacity="1" d=" M4.621204766542977e-16,-7.546999931335449 C4.621204766542977e-16,-7.546999931335449 1.8865000009536743,-3.2675137519836426 1.8865000009536743,-3.2675137519836426 C1.8865000009536743,-3.2675137519836426 6.53589391708374,-3.7734999656677246 6.53589391708374,-3.7734999656677246 C6.53589391708374,-3.7734999656677246 3.7730000019073486,-8.377742948056596e-16 3.7730000019073486,-8.377742948056596e-16 C3.7730000019073486,-8.377742948056596e-16 6.53589391708374,3.7734999656677246 6.53589391708374,3.7734999656677246 C6.53589391708374,3.7734999656677246 1.8865000009536743,3.2675137519836426 1.8865000009536743,3.2675137519836426 C1.8865000009536743,3.2675137519836426 3.813661659959975e-15,7.546999931335449 3.813661659959975e-15,7.546999931335449 C3.813661659959975e-15,7.546999931335449 -1.8865000009536743,3.2675137519836426 -1.8865000009536743,3.2675137519836426 C-1.8865000009536743,3.2675137519836426 -6.53589391708374,3.7734999656677246 -6.53589391708374,3.7734999656677246 C-6.53589391708374,3.7734999656677246 -3.7730000019073486,3.813156404806938e-15 -3.7730000019073486,3.813156404806938e-15 C-3.7730000019073486,3.813156404806938e-15 -6.53589391708374,-3.7734999656677246 -6.53589391708374,-3.7734999656677246 C-6.53589391708374,-3.7734999656677246 -1.8865000009536743,-3.2675137519836426 -1.8865000009536743,-3.2675137519836426 C-1.8865000009536743,-3.2675137519836426 4.621204766542977e-16,-7.546999931335449 4.621204766542977e-16,-7.546999931335449z"></path></g></g><g style="display: none;" transform="matrix(0.5926130414009094,-0.0938606783747673,0.0938606783747673,0.5926130414009094,713.6328735351562,457.46990966796875)" opacity="1"><g opacity="1" transform="matrix(1.4800000190734863,0,0,1.4800000190734863,-209.75,-80.25)"><path fill="rgb(112,255,129)" fill-opacity="1" d=" M4.621204766542977e-16,-7.546999931335449 C4.621204766542977e-16,-7.546999931335449 1.8865000009536743,-3.2675137519836426 1.8865000009536743,-3.2675137519836426 C1.8865000009536743,-3.2675137519836426 6.53589391708374,-3.7734999656677246 6.53589391708374,-3.7734999656677246 C6.53589391708374,-3.7734999656677246 3.7730000019073486,-8.377742948056596e-16 3.7730000019073486,-8.377742948056596e-16 C3.7730000019073486,-8.377742948056596e-16 6.53589391708374,3.7734999656677246 6.53589391708374,3.7734999656677246 C6.53589391708374,3.7734999656677246 1.8865000009536743,3.2675137519836426 1.8865000009536743,3.2675137519836426 C1.8865000009536743,3.2675137519836426 3.813661659959975e-15,7.546999931335449 3.813661659959975e-15,7.546999931335449 C3.813661659959975e-15,7.546999931335449 -1.8865000009536743,3.2675137519836426 -1.8865000009536743,3.2675137519836426 C-1.8865000009536743,3.2675137519836426 -6.53589391708374,3.7734999656677246 -6.53589391708374,3.7734999656677246 C-6.53589391708374,3.7734999656677246 -3.7730000019073486,3.813156404806938e-15 -3.7730000019073486,3.813156404806938e-15 C-3.7730000019073486,3.813156404806938e-15 -6.53589391708374,-3.7734999656677246 -6.53589391708374,-3.7734999656677246 C-6.53589391708374,-3.7734999656677246 -1.8865000009536743,-3.2675137519836426 -1.8865000009536743,-3.2675137519836426 C-1.8865000009536743,-3.2675137519836426 4.621204766542977e-16,-7.546999931335449 4.621204766542977e-16,-7.546999931335449z"></path></g></g><g style="display: none;" transform="matrix(-0.9543692469596863,2.4228076934814453,-2.4228076934814453,-0.9543692469596863,314.75946044921875,871.4651489257812)" opacity="1"><g opacity="1" transform="matrix(1.090000033378601,0,0,1.090000033378601,0,0)"><path fill="rgb(255,255,255)" fill-opacity="1" d=" M-209.5,-105.25 C-210.25,-105.375 -210.31300354003906,-103.81199645996094 -210.68800354003906,-103.81199645996094 C-211.06300354003906,-103.81199645996094 -211.68699645996094,-103.18699645996094 -211.375,-102.81199645996094 C-211.06300354003906,-102.43699645996094 -210.25,-102 -209.81199645996094,-102.375 C-209.37399291992188,-102.75 -208.81199645996094,-102.3759994506836 -208.5,-102.93800354003906 C-208.18800354003906,-103.5 -208.75,-103.81300354003906 -208.68800354003906,-104.375 C-208.62600708007812,-104.93699645996094 -208.75,-105.125 -209.5,-105.25z"></path></g></g><g style="display: none;" transform="matrix(2.3788726329803467,-1.0591423511505127,1.0591423511505127,2.3788726329803467,1034.79931640625,300.9195861816406)" opacity="1"><g opacity="1" transform="matrix(1.090000033378601,0,0,1.090000033378601,0,0)"><path fill="rgb(255,255,255)" fill-opacity="1" d=" M-209.5919952392578,-104.57599639892578 C-210.3419952392578,-104.70099639892578 -210.81500244140625,-104.45600128173828 -211.0570068359375,-104.16899871826172 C-211.70799255371094,-103.39700317382812 -211.68699645996094,-103.18699645996094 -211.375,-102.81199645996094 C-211.06300354003906,-102.43699645996094 -210.78399658203125,-102.06600189208984 -210.38099670410156,-102.2300033569336 C-209.97799682617188,-102.39399719238281 -209.2220001220703,-102.177001953125 -208.91000366210938,-102.73899841308594 C-208.59800720214844,-103.3010025024414 -208.89500427246094,-103.36399841308594 -208.83299255371094,-103.9260025024414 C-208.8159942626953,-104.24299621582031 -208.8419952392578,-104.45099639892578 -209.5919952392578,-104.57599639892578z"></path></g></g><g style="display: none;" transform="matrix(0.6000000238418579,0,0,0.6000000238418579,461.7441711425781,462.8592224121094)" opacity="1"><g opacity="1" transform="matrix(1,0,0,1,159.09300231933594,-46.43199920654297)"><path fill="rgb(255,255,255)" fill-opacity="1" d=" M0,-4.550000190734863 C2.5111451148986816,-4.550000190734863 4.550000190734863,-2.5111451148986816 4.550000190734863,0 C4.550000190734863,2.5111451148986816 2.5111451148986816,4.550000190734863 0,4.550000190734863 C-2.5111451148986816,4.550000190734863 -4.550000190734863,2.5111451148986816 -4.550000190734863,0 C-4.550000190734863,-2.5111451148986816 -2.5111451148986816,-4.550000190734863 0,-4.550000190734863z"></path></g></g><g style="display: none;" transform="matrix(0.20521210134029388,0.5638155937194824,-0.5638155937194824,0.20521210134029388,515.2470092773438,554.278564453125)" opacity="1"><g opacity="1" transform="matrix(1,0,0,1,-209.75,-80.25)"><path fill="rgb(112,255,129)" fill-opacity="1" d=" M4.621204766542977e-16,-7.546999931335449 C4.621204766542977e-16,-7.546999931335449 2.2177138328552246,-3.0524210929870605 2.2177138328552246,-3.0524210929870605 C2.2177138328552246,-3.0524210929870605 7.177623748779297,-2.332151174545288 7.177623748779297,-2.332151174545288 C7.177623748779297,-2.332151174545288 3.588336229324341,1.1659210920333862 3.588336229324341,1.1659210920333862 C3.588336229324341,1.1659210920333862 4.4360151290893555,6.105651378631592 4.4360151290893555,6.105651378631592 C4.4360151290893555,6.105651378631592 2.310296127921497e-16,3.7730000019073486 2.310296127921497e-16,3.7730000019073486 C2.310296127921497e-16,3.7730000019073486 -4.4360151290893555,6.105651378631592 -4.4360151290893555,6.105651378631592 C-4.4360151290893555,6.105651378631592 -3.588336229324341,1.1659210920333862 -3.588336229324341,1.1659210920333862 C-3.588336229324341,1.1659210920333862 -7.177623748779297,-2.332151174545288 -7.177623748779297,-2.332151174545288 C-7.177623748779297,-2.332151174545288 -2.2177138328552246,-3.0524210929870605 -2.2177138328552246,-3.0524210929870605 C-2.2177138328552246,-3.0524210929870605 4.621204766542977e-16,-7.546999931335449 4.621204766542977e-16,-7.546999931335449z"></path></g></g><g style="display: none;" transform="matrix(0.43800002336502075,0,0,0.43800002336502075,80.19972229003906,455.8602600097656)" opacity="1"><g opacity="1" transform="matrix(1,0,0,1,226.0279998779297,-88.72200012207031)"><path fill="rgb(112,255,129)" fill-opacity="1" d=" M0,-9.050000190734863 C4.99469518661499,-9.050000190734863 9.050000190734863,-4.99469518661499 9.050000190734863,0 C9.050000190734863,4.99469518661499 4.99469518661499,9.050000190734863 0,9.050000190734863 C-4.99469518661499,9.050000190734863 -9.050000190734863,4.99469518661499 -9.050000190734863,0 C-9.050000190734863,-4.99469518661499 -4.99469518661499,-9.050000190734863 0,-9.050000190734863z"></path></g></g><g style="display: none;" transform="matrix(-0.5523029565811157,0.2344386875629425,-0.2344386875629425,-0.5523029565811157,70.94073486328125,402.6512145996094)" opacity="1"><g opacity="1" transform="matrix(1.4800000190734863,0,0,1.4800000190734863,-209.75,-80.25)"><path fill="rgb(112,255,129)" fill-opacity="1" d=" M4.621204766542977e-16,-7.546999931335449 C4.621204766542977e-16,-7.546999931335449 1.8865000009536743,-3.2675137519836426 1.8865000009536743,-3.2675137519836426 C1.8865000009536743,-3.2675137519836426 6.53589391708374,-3.7734999656677246 6.53589391708374,-3.7734999656677246 C6.53589391708374,-3.7734999656677246 3.7730000019073486,-8.377742948056596e-16 3.7730000019073486,-8.377742948056596e-16 C3.7730000019073486,-8.377742948056596e-16 6.53589391708374,3.7734999656677246 6.53589391708374,3.7734999656677246 C6.53589391708374,3.7734999656677246 1.8865000009536743,3.2675137519836426 1.8865000009536743,3.2675137519836426 C1.8865000009536743,3.2675137519836426 3.813661659959975e-15,7.546999931335449 3.813661659959975e-15,7.546999931335449 C3.813661659959975e-15,7.546999931335449 -1.8865000009536743,3.2675137519836426 -1.8865000009536743,3.2675137519836426 C-1.8865000009536743,3.2675137519836426 -6.53589391708374,3.7734999656677246 -6.53589391708374,3.7734999656677246 C-6.53589391708374,3.7734999656677246 -3.7730000019073486,3.813156404806938e-15 -3.7730000019073486,3.813156404806938e-15 C-3.7730000019073486,3.813156404806938e-15 -6.53589391708374,-3.7734999656677246 -6.53589391708374,-3.7734999656677246 C-6.53589391708374,-3.7734999656677246 -1.8865000009536743,-3.2675137519836426 -1.8865000009536743,-3.2675137519836426 C-1.8865000009536743,-3.2675137519836426 4.621204766542977e-16,-7.546999931335449 4.621204766542977e-16,-7.546999931335449z"></path></g></g><g style="display: none;" transform="matrix(-0.15189926326274872,-0.8688214421272278,0.8688214421272278,-0.15189926326274872,263.1877136230469,525.5838623046875)" opacity="1"><g opacity="1" transform="matrix(1,0,0,1,0,0)"><path fill="rgb(255,255,255)" fill-opacity="1" d=" M102.25,-14.5 C101.25,-15 99.5,-11.75 98.5,-10.5 C97.5,-9.25 96,-3.25 96,0.25 C96,3.75 99.25,3.25 101.5,3.5 C103.75,3.75 104.5,8.5 103.75,11 C103,13.5 107.75,10.75 110,7 C110.9280014038086,5.453999996185303 108.5,3.5 108.75,-3 C108.81999969482422,-4.818999767303467 108.25,-6.25 106,-5.25 C103.75,-4.25 102,-1 102.5,-3.25 C103,-5.5 107,-7 106.25,-9.5 C105.5,-12 103.25,-14 102.25,-14.5z"></path></g></g><g style="display: none;" transform="matrix(-0.4945765435695648,-0.3396970331668854,0.3396970331668854,-0.4945765435695648,804.77001953125,411.3323059082031)" opacity="1"><g opacity="1" transform="matrix(1,0,0,1,0,0)"><path fill="rgb(255,255,255)" fill-opacity="1" d=" M132,-114 C129.75,-116.25 126,-110.5 124,-107.75 C122,-105 123,-103 120,-95.5 C117,-88 119.25,-86 123,-86.25 C126.75,-86.5 132.25,-92.5 132.5,-96.75 C132.75,-101 134.25,-111.75 132,-114z"></path></g></g><g style="display: none;" transform="matrix(0.8238750100135803,-0.3148873746395111,0.3148873746395111,0.8238750100135803,615.461669921875,457.7345275878906)" opacity="1"><g opacity="1" transform="matrix(1,0,0,1,0,0)"><path fill="rgb(112,255,129)" fill-opacity="1" d=" M102.25,-14.5 C101.25,-15 99.5,-11.75 98.5,-10.5 C97.5,-9.25 96,-3.25 96,0.25 C96,3.75 99.25,3.25 101.5,3.5 C103.75,3.75 104.5,8.5 103.75,11 C103,13.5 107.75,10.75 110,7 C110.9280014038086,5.453999996185303 108.5,3.5 108.75,-3 C108.81999969482422,-4.818999767303467 108.25,-6.25 106,-5.25 C103.75,-4.25 102,-1 102.5,-3.25 C103,-5.5 107,-7 106.25,-9.5 C105.5,-12 103.25,-14 102.25,-14.5z"></path></g></g><g style="display: none;" transform="matrix(-0.06271708011627197,-0.5967131853103638,0.5967131853103638,-0.06271708011627197,710.7313232421875,217.2063751220703)" opacity="1"><g opacity="1" transform="matrix(1,0,0,1,-209.75,-80.25)"><path fill="rgb(255,255,255)" fill-opacity="1" d=" M4.621204766542977e-16,-7.546999931335449 C4.621204766542977e-16,-7.546999931335449 2.2177138328552246,-3.0524210929870605 2.2177138328552246,-3.0524210929870605 C2.2177138328552246,-3.0524210929870605 7.177623748779297,-2.332151174545288 7.177623748779297,-2.332151174545288 C7.177623748779297,-2.332151174545288 3.588336229324341,1.1659210920333862 3.588336229324341,1.1659210920333862 C3.588336229324341,1.1659210920333862 4.4360151290893555,6.105651378631592 4.4360151290893555,6.105651378631592 C4.4360151290893555,6.105651378631592 2.310296127921497e-16,3.7730000019073486 2.310296127921497e-16,3.7730000019073486 C2.310296127921497e-16,3.7730000019073486 -4.4360151290893555,6.105651378631592 -4.4360151290893555,6.105651378631592 C-4.4360151290893555,6.105651378631592 -3.588336229324341,1.1659210920333862 -3.588336229324341,1.1659210920333862 C-3.588336229324341,1.1659210920333862 -7.177623748779297,-2.332151174545288 -7.177623748779297,-2.332151174545288 C-7.177623748779297,-2.332151174545288 -2.2177138328552246,-3.0524210929870605 -2.2177138328552246,-3.0524210929870605 C-2.2177138328552246,-3.0524210929870605 4.621204766542977e-16,-7.546999931335449 4.621204766542977e-16,-7.546999931335449z"></path></g></g><g style="display: none;" transform="matrix(0.6000000238418579,0,0,0.6000000238418579,174.9441680908203,386.0592041015625)" opacity="1"><g opacity="1" transform="matrix(1,0,0,1,159.09300231933594,-46.43199920654297)"><path fill="rgb(255,255,255)" fill-opacity="1" d=" M0,-4.550000190734863 C2.5111451148986816,-4.550000190734863 4.550000190734863,-2.5111451148986816 4.550000190734863,0 C4.550000190734863,2.5111451148986816 2.5111451148986816,4.550000190734863 0,4.550000190734863 C-2.5111451148986816,4.550000190734863 -4.550000190734863,2.5111451148986816 -4.550000190734863,0 C-4.550000190734863,-2.5111451148986816 -2.5111451148986816,-4.550000190734863 0,-4.550000190734863z"></path></g></g><g style="display: none;" transform="matrix(0,-0.6000000238418579,0.6000000238418579,0,734.9500122070312,193.9499969482422)" opacity="1"><g opacity="1" transform="matrix(1,0,0,1,-209.75,-80.25)"><path fill="rgb(255,255,255)" fill-opacity="1" d=" M4.621204766542977e-16,-7.546999931335449 C4.621204766542977e-16,-7.546999931335449 2.2177138328552246,-3.0524210929870605 2.2177138328552246,-3.0524210929870605 C2.2177138328552246,-3.0524210929870605 7.177623748779297,-2.332151174545288 7.177623748779297,-2.332151174545288 C7.177623748779297,-2.332151174545288 3.588336229324341,1.1659210920333862 3.588336229324341,1.1659210920333862 C3.588336229324341,1.1659210920333862 4.4360151290893555,6.105651378631592 4.4360151290893555,6.105651378631592 C4.4360151290893555,6.105651378631592 2.310296127921497e-16,3.7730000019073486 2.310296127921497e-16,3.7730000019073486 C2.310296127921497e-16,3.7730000019073486 -4.4360151290893555,6.105651378631592 -4.4360151290893555,6.105651378631592 C-4.4360151290893555,6.105651378631592 -3.588336229324341,1.1659210920333862 -3.588336229324341,1.1659210920333862 C-3.588336229324341,1.1659210920333862 -7.177623748779297,-2.332151174545288 -7.177623748779297,-2.332151174545288 C-7.177623748779297,-2.332151174545288 -2.2177138328552246,-3.0524210929870605 -2.2177138328552246,-3.0524210929870605 C-2.2177138328552246,-3.0524210929870605 4.621204766542977e-16,-7.546999931335449 4.621204766542977e-16,-7.546999931335449z"></path></g></g><g style="display: none;" transform="matrix(0.921553909778595,0,0,0.921553909778595,564.5858154296875,4.302504062652588)" opacity="0.0028285714277984653"><g opacity="1" transform="matrix(1,0,0,1,-29.5,37.5)"><path fill="rgb(255,255,255)" fill-opacity="1" d=" M0,-23.106000900268555 C-12.76099967956543,-23.106000900268555 -23.106000900268555,-12.76099967956543 -23.106000900268555,0 C-23.106000900268555,12.76099967956543 -12.76099967956543,23.106000900268555 0,23.106000900268555 C12.76099967956543,23.106000900268555 23.106000900268555,12.76099967956543 23.106000900268555,0 C23.106000900268555,-12.76099967956543 12.76099967956543,-23.106000900268555 0,-23.106000900268555z"></path></g></g><g style="display: none;" transform="matrix(1.1018435955047607,0,0,1.1018435955047607,569.9043579101562,-2.3682162761688232)" opacity="0.009866666666377312"><g opacity="1" transform="matrix(1,0,0,1,-29.5,37.5)"><path stroke-linecap="butt" stroke-linejoin="miter" fill-opacity="0" stroke-miterlimit="4" stroke="rgb(255,255,255)" stroke-opacity="1" stroke-width="4" d=" M0,-23.106000900268555 C-12.76099967956543,-23.106000900268555 -23.106000900268555,-12.76099967956543 -23.106000900268555,0 C-23.106000900268555,12.76099967956543 -12.76099967956543,23.106000900268555 0,23.106000900268555 C12.76099967956543,23.106000900268555 23.106000900268555,12.76099967956543 23.106000900268555,0 C23.106000900268555,-12.76099967956543 12.76099967956543,-23.106000900268555 0,-23.106000900268555z"></path></g></g><g style="display: none;" transform="matrix(2.550814151763916,-0.5236069560050964,0.5236069560050964,2.550814151763916,955.1814575195312,777.39453125)" opacity="1"><g opacity="1" transform="matrix(1.090000033378601,0,0,1.090000033378601,0,0)"><path fill="rgb(112,255,129)" fill-opacity="1" d=" M-209.5,-105.25 C-210.25,-105.375 -210.31300354003906,-103.81199645996094 -210.68800354003906,-103.81199645996094 C-211.06300354003906,-103.81199645996094 -211.68699645996094,-103.18699645996094 -211.375,-102.81199645996094 C-211.06300354003906,-102.43699645996094 -210.25,-102 -209.81199645996094,-102.375 C-209.37399291992188,-102.75 -208.81199645996094,-102.3759994506836 -208.5,-102.93800354003906 C-208.18800354003906,-103.5 -208.75,-103.81300354003906 -208.68800354003906,-104.375 C-208.62600708007812,-104.93699645996094 -208.75,-105.125 -209.5,-105.25z"></path></g></g><g style="display: none;" transform="matrix(2.6040000915527344,0,0,2.6040000915527344,1059.3603515625,881.5197143554688)" opacity="1"><g opacity="1" transform="matrix(1.090000033378601,0,0,1.090000033378601,0,0)"><path fill="rgb(112,255,129)" fill-opacity="1" d=" M-209.5919952392578,-104.57599639892578 C-210.3419952392578,-104.70099639892578 -210.81500244140625,-104.45600128173828 -211.0570068359375,-104.16899871826172 C-211.70799255371094,-103.39700317382812 -211.68699645996094,-103.18699645996094 -211.375,-102.81199645996094 C-211.06300354003906,-102.43699645996094 -210.78399658203125,-102.06600189208984 -210.38099670410156,-102.2300033569336 C-209.97799682617188,-102.39399719238281 -209.2220001220703,-102.177001953125 -208.91000366210938,-102.73899841308594 C-208.59800720214844,-103.3010025024414 -208.89500427246094,-103.36399841308594 -208.83299255371094,-103.9260025024414 C-208.8159942626953,-104.24299621582031 -208.8419952392578,-104.45099639892578 -209.5919952392578,-104.57599639892578z"></path></g></g><g style="display: none;" transform="matrix(0.8820000290870667,0,0,0.8820000290870667,164.260498046875,546.3430786132812)" opacity="1"><g opacity="1" transform="matrix(1,0,0,1,0,0)"><path fill="rgb(255,255,255)" fill-opacity="1" d=" M102.25,-14.5 C101.25,-15 99.5,-11.75 98.5,-10.5 C97.5,-9.25 96,-3.25 96,0.25 C96,3.75 99.25,3.25 101.5,3.5 C103.75,3.75 104.5,8.5 103.75,11 C103,13.5 107.75,10.75 110,7 C110.9280014038086,5.453999996185303 108.5,3.5 108.75,-3 C108.81999969482422,-4.818999767303467 108.25,-6.25 106,-5.25 C103.75,-4.25 102,-1 102.5,-3.25 C103,-5.5 107,-7 106.25,-9.5 C105.5,-12 103.25,-14 102.25,-14.5z"></path></g></g><g style="display: none;" transform="matrix(-0.08886171132326126,-0.5933831930160522,0.5933831930160522,-0.08886171132326126,425.5469055175781,645.7968139648438)" opacity="1"><g opacity="1" transform="matrix(1,0,0,1,0,0)"><path fill="rgb(255,255,255)" fill-opacity="1" d=" M132,-114 C129.75,-116.25 126,-110.5 124,-107.75 C122,-105 123,-103 120,-95.5 C117,-88 119.25,-86 123,-86.25 C126.75,-86.5 132.25,-92.5 132.5,-96.75 C132.75,-101 134.25,-111.75 132,-114z"></path></g></g><g style="display: none;" transform="matrix(0.10418891161680222,-0.5908846855163574,0.5908846855163574,0.10418891161680222,319.6509094238281,662.896240234375)" opacity="1"><g opacity="1" transform="matrix(1,0,0,1,0,0)"><path fill="rgb(112,255,129)" fill-opacity="1" d=" M39,-66.5 C28.351999282836914,-72.23300170898438 31.5,-64.5 32,-61.5 C32.5,-58.5 32.5,-51.5 35.5,-51.5 C38.5,-51.5 45.5,-51.5 47,-53 C48.5,-54.5 45.5,-63 39,-66.5z"></path></g></g><g style="display: none;" transform="matrix(0.35731664299964905,-0.04387296736240387,0.04387296736240387,0.35731664299964905,433.6318054199219,626.7708129882812)" opacity="1"><g opacity="1" transform="matrix(1,0,0,1,0,0)"><path fill="rgb(112,255,129)" fill-opacity="1" d=" M39,-66.5 C28.351999282836914,-72.23300170898438 31.5,-64.5 32,-61.5 C32.5,-58.5 32.5,-51.5 35.5,-51.5 C38.5,-51.5 45.5,-51.5 47,-53 C48.5,-54.5 45.5,-63 39,-66.5z"></path></g></g><g style="display: none;" transform="matrix(0.6000000238418579,0,0,0.6000000238418579,104.58317565917969,651.2332153320312)" opacity="1"><g opacity="1" transform="matrix(1,0,0,1,226.0279998779297,-88.72200012207031)"><path fill="rgb(112,255,129)" fill-opacity="1" d=" M0,-9.050000190734863 C4.99469518661499,-9.050000190734863 9.050000190734863,-4.99469518661499 9.050000190734863,0 C9.050000190734863,4.99469518661499 4.99469518661499,9.050000190734863 0,9.050000190734863 C-4.99469518661499,9.050000190734863 -9.050000190734863,4.99469518661499 -9.050000190734863,0 C-9.050000190734863,-4.99469518661499 -4.99469518661499,-9.050000190734863 0,-9.050000190734863z"></path></g></g><g style="display: none;" transform="matrix(-0.15529143810272217,-0.5795555114746094,0.5795555114746094,-0.15529143810272217,279.1548156738281,479.4641418457031)" opacity="1"><g opacity="1" transform="matrix(1,0,0,1,-209.75,-80.25)"><path fill="rgb(255,255,255)" fill-opacity="1" d=" M4.621204766542977e-16,-7.546999931335449 C4.621204766542977e-16,-7.546999931335449 2.2177138328552246,-3.0524210929870605 2.2177138328552246,-3.0524210929870605 C2.2177138328552246,-3.0524210929870605 7.177623748779297,-2.332151174545288 7.177623748779297,-2.332151174545288 C7.177623748779297,-2.332151174545288 3.588336229324341,1.1659210920333862 3.588336229324341,1.1659210920333862 C3.588336229324341,1.1659210920333862 4.4360151290893555,6.105651378631592 4.4360151290893555,6.105651378631592 C4.4360151290893555,6.105651378631592 2.310296127921497e-16,3.7730000019073486 2.310296127921497e-16,3.7730000019073486 C2.310296127921497e-16,3.7730000019073486 -4.4360151290893555,6.105651378631592 -4.4360151290893555,6.105651378631592 C-4.4360151290893555,6.105651378631592 -3.588336229324341,1.1659210920333862 -3.588336229324341,1.1659210920333862 C-3.588336229324341,1.1659210920333862 -7.177623748779297,-2.332151174545288 -7.177623748779297,-2.332151174545288 C-7.177623748779297,-2.332151174545288 -2.2177138328552246,-3.0524210929870605 -2.2177138328552246,-3.0524210929870605 C-2.2177138328552246,-3.0524210929870605 4.621204766542977e-16,-7.546999931335449 4.621204766542977e-16,-7.546999931335449z"></path></g></g><g style="display: none;" transform="matrix(-0.28168296813964844,-0.5297685861587524,0.5297685861587524,-0.28168296813964844,403.03094482421875,448.6759948730469)" opacity="1"><g opacity="1" transform="matrix(1,0,0,1,-209.75,-80.25)"><path fill="rgb(112,255,129)" fill-opacity="1" d=" M4.621204766542977e-16,-7.546999931335449 C4.621204766542977e-16,-7.546999931335449 2.2177138328552246,-3.0524210929870605 2.2177138328552246,-3.0524210929870605 C2.2177138328552246,-3.0524210929870605 7.177623748779297,-2.332151174545288 7.177623748779297,-2.332151174545288 C7.177623748779297,-2.332151174545288 3.588336229324341,1.1659210920333862 3.588336229324341,1.1659210920333862 C3.588336229324341,1.1659210920333862 4.4360151290893555,6.105651378631592 4.4360151290893555,6.105651378631592 C4.4360151290893555,6.105651378631592 2.310296127921497e-16,3.7730000019073486 2.310296127921497e-16,3.7730000019073486 C2.310296127921497e-16,3.7730000019073486 -4.4360151290893555,6.105651378631592 -4.4360151290893555,6.105651378631592 C-4.4360151290893555,6.105651378631592 -3.588336229324341,1.1659210920333862 -3.588336229324341,1.1659210920333862 C-3.588336229324341,1.1659210920333862 -7.177623748779297,-2.332151174545288 -7.177623748779297,-2.332151174545288 C-7.177623748779297,-2.332151174545288 -2.2177138328552246,-3.0524210929870605 -2.2177138328552246,-3.0524210929870605 C-2.2177138328552246,-3.0524210929870605 4.621204766542977e-16,-7.546999931335449 4.621204766542977e-16,-7.546999931335449z"></path></g></g><g style="display: none;" transform="matrix(0.5657001733779907,-0.19995833933353424,0.19995833933353424,0.5657001733779907,409.7022705078125,582.2562255859375)" opacity="1"><g opacity="1" transform="matrix(1.4800000190734863,0,0,1.4800000190734863,-209.75,-80.25)"><path fill="rgb(255,255,255)" fill-opacity="1" d=" M4.621204766542977e-16,-7.546999931335449 C4.621204766542977e-16,-7.546999931335449 1.8865000009536743,-3.2675137519836426 1.8865000009536743,-3.2675137519836426 C1.8865000009536743,-3.2675137519836426 6.53589391708374,-3.7734999656677246 6.53589391708374,-3.7734999656677246 C6.53589391708374,-3.7734999656677246 3.7730000019073486,-8.377742948056596e-16 3.7730000019073486,-8.377742948056596e-16 C3.7730000019073486,-8.377742948056596e-16 6.53589391708374,3.7734999656677246 6.53589391708374,3.7734999656677246 C6.53589391708374,3.7734999656677246 1.8865000009536743,3.2675137519836426 1.8865000009536743,3.2675137519836426 C1.8865000009536743,3.2675137519836426 3.813661659959975e-15,7.546999931335449 3.813661659959975e-15,7.546999931335449 C3.813661659959975e-15,7.546999931335449 -1.8865000009536743,3.2675137519836426 -1.8865000009536743,3.2675137519836426 C-1.8865000009536743,3.2675137519836426 -6.53589391708374,3.7734999656677246 -6.53589391708374,3.7734999656677246 C-6.53589391708374,3.7734999656677246 -3.7730000019073486,3.813156404806938e-15 -3.7730000019073486,3.813156404806938e-15 C-3.7730000019073486,3.813156404806938e-15 -6.53589391708374,-3.7734999656677246 -6.53589391708374,-3.7734999656677246 C-6.53589391708374,-3.7734999656677246 -1.8865000009536743,-3.2675137519836426 -1.8865000009536743,-3.2675137519836426 C-1.8865000009536743,-3.2675137519836426 4.621204766542977e-16,-7.546999931335449 4.621204766542977e-16,-7.546999931335449z"></path></g></g><g style="display: none;" transform="matrix(0.5926130414009094,-0.0938606783747673,0.0938606783747673,0.5926130414009094,531.6328735351562,632.4699096679688)" opacity="1"><g opacity="1" transform="matrix(1.4800000190734863,0,0,1.4800000190734863,-209.75,-80.25)"><path fill="rgb(112,255,129)" fill-opacity="1" d=" M4.621204766542977e-16,-7.546999931335449 C4.621204766542977e-16,-7.546999931335449 1.8865000009536743,-3.2675137519836426 1.8865000009536743,-3.2675137519836426 C1.8865000009536743,-3.2675137519836426 6.53589391708374,-3.7734999656677246 6.53589391708374,-3.7734999656677246 C6.53589391708374,-3.7734999656677246 3.7730000019073486,-8.377742948056596e-16 3.7730000019073486,-8.377742948056596e-16 C3.7730000019073486,-8.377742948056596e-16 6.53589391708374,3.7734999656677246 6.53589391708374,3.7734999656677246 C6.53589391708374,3.7734999656677246 1.8865000009536743,3.2675137519836426 1.8865000009536743,3.2675137519836426 C1.8865000009536743,3.2675137519836426 3.813661659959975e-15,7.546999931335449 3.813661659959975e-15,7.546999931335449 C3.813661659959975e-15,7.546999931335449 -1.8865000009536743,3.2675137519836426 -1.8865000009536743,3.2675137519836426 C-1.8865000009536743,3.2675137519836426 -6.53589391708374,3.7734999656677246 -6.53589391708374,3.7734999656677246 C-6.53589391708374,3.7734999656677246 -3.7730000019073486,3.813156404806938e-15 -3.7730000019073486,3.813156404806938e-15 C-3.7730000019073486,3.813156404806938e-15 -6.53589391708374,-3.7734999656677246 -6.53589391708374,-3.7734999656677246 C-6.53589391708374,-3.7734999656677246 -1.8865000009536743,-3.2675137519836426 -1.8865000009536743,-3.2675137519836426 C-1.8865000009536743,-3.2675137519836426 4.621204766542977e-16,-7.546999931335449 4.621204766542977e-16,-7.546999931335449z"></path></g></g><g style="display: none;" transform="matrix(-0.9543692469596863,2.4228076934814453,-2.4228076934814453,-0.9543692469596863,132.7594451904297,1046.4652099609375)" opacity="1"><g opacity="1" transform="matrix(1.090000033378601,0,0,1.090000033378601,0,0)"><path fill="rgb(255,255,255)" fill-opacity="1" d=" M-209.5,-105.25 C-210.25,-105.375 -210.31300354003906,-103.81199645996094 -210.68800354003906,-103.81199645996094 C-211.06300354003906,-103.81199645996094 -211.68699645996094,-103.18699645996094 -211.375,-102.81199645996094 C-211.06300354003906,-102.43699645996094 -210.25,-102 -209.81199645996094,-102.375 C-209.37399291992188,-102.75 -208.81199645996094,-102.3759994506836 -208.5,-102.93800354003906 C-208.18800354003906,-103.5 -208.75,-103.81300354003906 -208.68800354003906,-104.375 C-208.62600708007812,-104.93699645996094 -208.75,-105.125 -209.5,-105.25z"></path></g></g><g style="display: none;" transform="matrix(2.3788726329803467,-1.0591423511505127,1.0591423511505127,2.3788726329803467,852.7993774414062,475.9195861816406)" opacity="1"><g opacity="1" transform="matrix(1.090000033378601,0,0,1.090000033378601,0,0)"><path fill="rgb(255,255,255)" fill-opacity="1" d=" M-209.5919952392578,-104.57599639892578 C-210.3419952392578,-104.70099639892578 -210.81500244140625,-104.45600128173828 -211.0570068359375,-104.16899871826172 C-211.70799255371094,-103.39700317382812 -211.68699645996094,-103.18699645996094 -211.375,-102.81199645996094 C-211.06300354003906,-102.43699645996094 -210.78399658203125,-102.06600189208984 -210.38099670410156,-102.2300033569336 C-209.97799682617188,-102.39399719238281 -209.2220001220703,-102.177001953125 -208.91000366210938,-102.73899841308594 C-208.59800720214844,-103.3010025024414 -208.89500427246094,-103.36399841308594 -208.83299255371094,-103.9260025024414 C-208.8159942626953,-104.24299621582031 -208.8419952392578,-104.45099639892578 -209.5919952392578,-104.57599639892578z"></path></g></g><g style="display: none;" transform="matrix(0.6000000238418579,0,0,0.6000000238418579,279.7441711425781,637.8591918945312)" opacity="1"><g opacity="1" transform="matrix(1,0,0,1,159.09300231933594,-46.43199920654297)"><path fill="rgb(255,255,255)" fill-opacity="1" d=" M0,-4.550000190734863 C2.5111451148986816,-4.550000190734863 4.550000190734863,-2.5111451148986816 4.550000190734863,0 C4.550000190734863,2.5111451148986816 2.5111451148986816,4.550000190734863 0,4.550000190734863 C-2.5111451148986816,4.550000190734863 -4.550000190734863,2.5111451148986816 -4.550000190734863,0 C-4.550000190734863,-2.5111451148986816 -2.5111451148986816,-4.550000190734863 0,-4.550000190734863z"></path></g></g><g style="display: none;" transform="matrix(0.20521210134029388,0.5638155937194824,-0.5638155937194824,0.20521210134029388,333.2470397949219,729.278564453125)" opacity="1"><g opacity="1" transform="matrix(1,0,0,1,-209.75,-80.25)"><path fill="rgb(112,255,129)" fill-opacity="1" d=" M4.621204766542977e-16,-7.546999931335449 C4.621204766542977e-16,-7.546999931335449 2.2177138328552246,-3.0524210929870605 2.2177138328552246,-3.0524210929870605 C2.2177138328552246,-3.0524210929870605 7.177623748779297,-2.332151174545288 7.177623748779297,-2.332151174545288 C7.177623748779297,-2.332151174545288 3.588336229324341,1.1659210920333862 3.588336229324341,1.1659210920333862 C3.588336229324341,1.1659210920333862 4.4360151290893555,6.105651378631592 4.4360151290893555,6.105651378631592 C4.4360151290893555,6.105651378631592 2.310296127921497e-16,3.7730000019073486 2.310296127921497e-16,3.7730000019073486 C2.310296127921497e-16,3.7730000019073486 -4.4360151290893555,6.105651378631592 -4.4360151290893555,6.105651378631592 C-4.4360151290893555,6.105651378631592 -3.588336229324341,1.1659210920333862 -3.588336229324341,1.1659210920333862 C-3.588336229324341,1.1659210920333862 -7.177623748779297,-2.332151174545288 -7.177623748779297,-2.332151174545288 C-7.177623748779297,-2.332151174545288 -2.2177138328552246,-3.0524210929870605 -2.2177138328552246,-3.0524210929870605 C-2.2177138328552246,-3.0524210929870605 4.621204766542977e-16,-7.546999931335449 4.621204766542977e-16,-7.546999931335449z"></path></g></g><g style="display: none;" transform="matrix(0.43800002336502075,0,0,0.43800002336502075,-101.80027770996094,630.8602905273438)" opacity="1"><g opacity="1" transform="matrix(1,0,0,1,226.0279998779297,-88.72200012207031)"><path fill="rgb(112,255,129)" fill-opacity="1" d=" M0,-9.050000190734863 C4.99469518661499,-9.050000190734863 9.050000190734863,-4.99469518661499 9.050000190734863,0 C9.050000190734863,4.99469518661499 4.99469518661499,9.050000190734863 0,9.050000190734863 C-4.99469518661499,9.050000190734863 -9.050000190734863,4.99469518661499 -9.050000190734863,0 C-9.050000190734863,-4.99469518661499 -4.99469518661499,-9.050000190734863 0,-9.050000190734863z"></path></g></g><g style="display: none;" transform="matrix(-0.5523029565811157,0.2344386875629425,-0.2344386875629425,-0.5523029565811157,-111.05926513671875,577.6511840820312)" opacity="1"><g opacity="1" transform="matrix(1.4800000190734863,0,0,1.4800000190734863,-209.75,-80.25)"><path fill="rgb(112,255,129)" fill-opacity="1" d=" M4.621204766542977e-16,-7.546999931335449 C4.621204766542977e-16,-7.546999931335449 1.8865000009536743,-3.2675137519836426 1.8865000009536743,-3.2675137519836426 C1.8865000009536743,-3.2675137519836426 6.53589391708374,-3.7734999656677246 6.53589391708374,-3.7734999656677246 C6.53589391708374,-3.7734999656677246 3.7730000019073486,-8.377742948056596e-16 3.7730000019073486,-8.377742948056596e-16 C3.7730000019073486,-8.377742948056596e-16 6.53589391708374,3.7734999656677246 6.53589391708374,3.7734999656677246 C6.53589391708374,3.7734999656677246 1.8865000009536743,3.2675137519836426 1.8865000009536743,3.2675137519836426 C1.8865000009536743,3.2675137519836426 3.813661659959975e-15,7.546999931335449 3.813661659959975e-15,7.546999931335449 C3.813661659959975e-15,7.546999931335449 -1.8865000009536743,3.2675137519836426 -1.8865000009536743,3.2675137519836426 C-1.8865000009536743,3.2675137519836426 -6.53589391708374,3.7734999656677246 -6.53589391708374,3.7734999656677246 C-6.53589391708374,3.7734999656677246 -3.7730000019073486,3.813156404806938e-15 -3.7730000019073486,3.813156404806938e-15 C-3.7730000019073486,3.813156404806938e-15 -6.53589391708374,-3.7734999656677246 -6.53589391708374,-3.7734999656677246 C-6.53589391708374,-3.7734999656677246 -1.8865000009536743,-3.2675137519836426 -1.8865000009536743,-3.2675137519836426 C-1.8865000009536743,-3.2675137519836426 4.621204766542977e-16,-7.546999931335449 4.621204766542977e-16,-7.546999931335449z"></path></g></g><g style="display: none;" transform="matrix(-0.15189926326274872,-0.8688214421272278,0.8688214421272278,-0.15189926326274872,81.18771362304688,700.5838623046875)" opacity="1"><g opacity="1" transform="matrix(1,0,0,1,0,0)"><path fill="rgb(255,255,255)" fill-opacity="1" d=" M102.25,-14.5 C101.25,-15 99.5,-11.75 98.5,-10.5 C97.5,-9.25 96,-3.25 96,0.25 C96,3.75 99.25,3.25 101.5,3.5 C103.75,3.75 104.5,8.5 103.75,11 C103,13.5 107.75,10.75 110,7 C110.9280014038086,5.453999996185303 108.5,3.5 108.75,-3 C108.81999969482422,-4.818999767303467 108.25,-6.25 106,-5.25 C103.75,-4.25 102,-1 102.5,-3.25 C103,-5.5 107,-7 106.25,-9.5 C105.5,-12 103.25,-14 102.25,-14.5z"></path></g></g><g style="display: none;" transform="matrix(-0.4945765435695648,-0.3396970331668854,0.3396970331668854,-0.4945765435695648,622.77001953125,586.3323364257812)" opacity="1"><g opacity="1" transform="matrix(1,0,0,1,0,0)"><path fill="rgb(255,255,255)" fill-opacity="1" d=" M132,-114 C129.75,-116.25 126,-110.5 124,-107.75 C122,-105 123,-103 120,-95.5 C117,-88 119.25,-86 123,-86.25 C126.75,-86.5 132.25,-92.5 132.5,-96.75 C132.75,-101 134.25,-111.75 132,-114z"></path></g></g><g style="display: none;" transform="matrix(0.8238750100135803,-0.3148873746395111,0.3148873746395111,0.8238750100135803,433.4616394042969,632.7345581054688)" opacity="1"><g opacity="1" transform="matrix(1,0,0,1,0,0)"><path fill="rgb(112,255,129)" fill-opacity="1" d=" M102.25,-14.5 C101.25,-15 99.5,-11.75 98.5,-10.5 C97.5,-9.25 96,-3.25 96,0.25 C96,3.75 99.25,3.25 101.5,3.5 C103.75,3.75 104.5,8.5 103.75,11 C103,13.5 107.75,10.75 110,7 C110.9280014038086,5.453999996185303 108.5,3.5 108.75,-3 C108.81999969482422,-4.818999767303467 108.25,-6.25 106,-5.25 C103.75,-4.25 102,-1 102.5,-3.25 C103,-5.5 107,-7 106.25,-9.5 C105.5,-12 103.25,-14 102.25,-14.5z"></path></g></g><g style="display: none;" transform="matrix(-0.06271708011627197,-0.5967131853103638,0.5967131853103638,-0.06271708011627197,528.7313232421875,392.2063903808594)" opacity="1"><g opacity="1" transform="matrix(1,0,0,1,-209.75,-80.25)"><path fill="rgb(255,255,255)" fill-opacity="1" d=" M4.621204766542977e-16,-7.546999931335449 C4.621204766542977e-16,-7.546999931335449 2.2177138328552246,-3.0524210929870605 2.2177138328552246,-3.0524210929870605 C2.2177138328552246,-3.0524210929870605 7.177623748779297,-2.332151174545288 7.177623748779297,-2.332151174545288 C7.177623748779297,-2.332151174545288 3.588336229324341,1.1659210920333862 3.588336229324341,1.1659210920333862 C3.588336229324341,1.1659210920333862 4.4360151290893555,6.105651378631592 4.4360151290893555,6.105651378631592 C4.4360151290893555,6.105651378631592 2.310296127921497e-16,3.7730000019073486 2.310296127921497e-16,3.7730000019073486 C2.310296127921497e-16,3.7730000019073486 -4.4360151290893555,6.105651378631592 -4.4360151290893555,6.105651378631592 C-4.4360151290893555,6.105651378631592 -3.588336229324341,1.1659210920333862 -3.588336229324341,1.1659210920333862 C-3.588336229324341,1.1659210920333862 -7.177623748779297,-2.332151174545288 -7.177623748779297,-2.332151174545288 C-7.177623748779297,-2.332151174545288 -2.2177138328552246,-3.0524210929870605 -2.2177138328552246,-3.0524210929870605 C-2.2177138328552246,-3.0524210929870605 4.621204766542977e-16,-7.546999931335449 4.621204766542977e-16,-7.546999931335449z"></path></g></g><g style="display: none;" transform="matrix(0.6000000238418579,0,0,0.6000000238418579,-7.055829048156738,561.0592041015625)" opacity="1"><g opacity="1" transform="matrix(1,0,0,1,159.09300231933594,-46.43199920654297)"><path fill="rgb(255,255,255)" fill-opacity="1" d=" M0,-4.550000190734863 C2.5111451148986816,-4.550000190734863 4.550000190734863,-2.5111451148986816 4.550000190734863,0 C4.550000190734863,2.5111451148986816 2.5111451148986816,4.550000190734863 0,4.550000190734863 C-2.5111451148986816,4.550000190734863 -4.550000190734863,2.5111451148986816 -4.550000190734863,0 C-4.550000190734863,-2.5111451148986816 -2.5111451148986816,-4.550000190734863 0,-4.550000190734863z"></path></g></g><g style="display: none;" transform="matrix(0,-0.6000000238418579,0.6000000238418579,0,552.9500122070312,368.95001220703125)" opacity="1"><g opacity="1" transform="matrix(1,0,0,1,-209.75,-80.25)"><path fill="rgb(255,255,255)" fill-opacity="1" d=" M4.621204766542977e-16,-7.546999931335449 C4.621204766542977e-16,-7.546999931335449 2.2177138328552246,-3.0524210929870605 2.2177138328552246,-3.0524210929870605 C2.2177138328552246,-3.0524210929870605 7.177623748779297,-2.332151174545288 7.177623748779297,-2.332151174545288 C7.177623748779297,-2.332151174545288 3.588336229324341,1.1659210920333862 3.588336229324341,1.1659210920333862 C3.588336229324341,1.1659210920333862 4.4360151290893555,6.105651378631592 4.4360151290893555,6.105651378631592 C4.4360151290893555,6.105651378631592 2.310296127921497e-16,3.7730000019073486 2.310296127921497e-16,3.7730000019073486 C2.310296127921497e-16,3.7730000019073486 -4.4360151290893555,6.105651378631592 -4.4360151290893555,6.105651378631592 C-4.4360151290893555,6.105651378631592 -3.588336229324341,1.1659210920333862 -3.588336229324341,1.1659210920333862 C-3.588336229324341,1.1659210920333862 -7.177623748779297,-2.332151174545288 -7.177623748779297,-2.332151174545288 C-7.177623748779297,-2.332151174545288 -2.2177138328552246,-3.0524210929870605 -2.2177138328552246,-3.0524210929870605 C-2.2177138328552246,-3.0524210929870605 4.621204766542977e-16,-7.546999931335449 4.621204766542977e-16,-7.546999931335449z"></path></g></g><g style="display: none;" transform="matrix(0.913890540599823,0,0,0.913890540599823,382.3597717285156,179.58604431152344)" opacity="0.024957142856093528"><g opacity="1" transform="matrix(1,0,0,1,-29.5,37.5)"><path fill="rgb(255,255,255)" fill-opacity="1" d=" M0,-23.106000900268555 C-12.76099967956543,-23.106000900268555 -23.106000900268555,-12.76099967956543 -23.106000900268555,0 C-23.106000900268555,12.76099967956543 -12.76099967956543,23.106000900268555 0,23.106000900268555 C12.76099967956543,23.106000900268555 23.106000900268555,12.76099967956543 23.106000900268555,0 C23.106000900268555,-12.76099967956543 12.76099967956543,-23.106000900268555 0,-23.106000900268555z"></path></g></g><g style="display: none;" transform="matrix(1.0977206230163574,0,0,1.0977206230163574,387.7827453613281,172.78433227539062)" opacity="0.022425000000038723"><g opacity="1" transform="matrix(1,0,0,1,-29.5,37.5)"><path stroke-linecap="butt" stroke-linejoin="miter" fill-opacity="0" stroke-miterlimit="4" stroke="rgb(255,255,255)" stroke-opacity="1" stroke-width="4" d=" M0,-23.106000900268555 C-12.76099967956543,-23.106000900268555 -23.106000900268555,-12.76099967956543 -23.106000900268555,0 C-23.106000900268555,12.76099967956543 -12.76099967956543,23.106000900268555 0,23.106000900268555 C12.76099967956543,23.106000900268555 23.106000900268555,12.76099967956543 23.106000900268555,0 C23.106000900268555,-12.76099967956543 12.76099967956543,-23.106000900268555 0,-23.106000900268555z"></path></g></g></g></svg>