<svg xmlns="http://www.w3.org/2000/svg" width="30" height="30" fill="none" viewBox="0 0 30 30"><path fill="#0067F5" d="M14.61 8.646c1.206 0 3.505-1.628 5.874-1.384.992.028 3.812.382 5.632 2.972-.148.087-3.36 1.931-3.325 5.72.04 4.541 4.07 6.044 4.119 6.06-.025.108-.632 2.17-2.143 4.26-1.262 1.843-2.585 3.646-4.685 3.678-2.04.046-2.728-1.172-5.068-1.172-2.362 0-3.093 1.14-5.05 1.218-2.001.072-3.53-1.966-4.837-3.794C2.512 22.475.476 15.696 3.205 11.083c1.322-2.262 3.734-3.719 6.311-3.758 2.003-.04 3.862 1.32 5.093 1.32ZM20.508 0c.2 1.774-.52 3.523-1.573 4.809-1.098 1.265-2.857 2.233-4.568 2.108-.224-1.707.643-3.523 1.614-4.63C17.08 1.028 18.985.065 20.51 0Z"></path></svg>